<svg width="386" height="350" fill="none" xmlns="http://www.w3.org/2000/svg"><g opacity=".6"><path d="M345.796 135.477l15.267 27.606-15.267 27.605h-30.637l-15.268-27.605 15.268-27.606h30.637zm.712-1.38h-32.163l-16.082 29.092 16.082 29.091h32.163l16.082-29.091-16.082-29.092zM137.954 179.646l-.407-.743 2.443-1.487.407.743-2.443 1.487zm3.766-2.336l-.407-.743 2.443-1.487.407.744-2.443 1.486zm3.868-2.336l-.407-.743 2.443-1.486.407.743-2.443 1.486zm3.766-2.229l-.407-.744 2.443-1.486.407.743-2.443 1.487zm3.868-2.336l-.407-.743 2.442-1.487.408.743-2.443 1.487zm3.766-2.336l-.407-.743 2.442-1.487.408.744-2.443 1.486zm3.868-2.23l-.408-.743 2.443-1.486.407.743-2.442 1.486zm3.766-2.335l-.408-.744 2.443-1.486.407.743-2.442 1.487zm3.867-2.336l-.407-.744 2.443-1.486.407.743-2.443 1.487zm3.766-2.336l-.407-.743 2.443-1.487.407.743-2.443 1.487zm3.868-2.23l-.407-.743 2.443-1.486.407.743-2.443 1.486zm3.766-2.336l-.407-.743 2.443-1.486.407.743-2.443 1.486zm3.766-2.335l-.407-.744 2.443-1.486.407.743-2.443 1.487zm3.868-2.336l-.407-.743 2.442-1.487.408.743-2.443 1.487zM190.372 73.048l-2.443-1.486.407-.744 2.443 1.487-.407.743zM77.596 71.455l-.407-.743 2.544-1.486.407.743-2.544 1.486zm108.908-.849l-2.443-1.486.407-.744 2.443 1.487-.407.743zM81.464 69.12l-.408-.744 2.545-1.486.407.743-2.544 1.487zm101.274-.956l-2.443-1.486.407-.744 2.443 1.487-.407.743zM85.433 66.89l-.407-.743 2.544-1.487.408.744-2.545 1.486zm93.437-1.062l-2.443-1.486.408-.743 2.442 1.486-.407.743zM89.3 64.554l-.406-.743 2.544-1.486.407.743-2.544 1.486zm85.702-1.168L172.56 61.9l.407-.743 2.443 1.486-.408.743zM93.27 62.218l-.407-.743 2.545-1.486.407.743-2.545 1.486zm77.865-1.168l-2.443-1.486.407-.743 2.443 1.486-.407.743zm-73.997-1.167l-.407-.744 2.545-1.486.407.743-2.545 1.486zm70.129-1.275l-2.443-1.486.407-.743 2.443 1.486-.407.743zm-66.261-1.061l-.407-.743 2.544-1.487.408.743-2.545 1.487zm62.495-1.38l-2.443-1.487.407-.743 2.443 1.486-.407.743zm-58.526-.85l-.407-.743 2.545-1.487.407.744-2.545 1.486zm54.658-1.486l-2.443-1.487.407-.743 2.443 1.486-.407.744zm-50.79-.85l-.407-.743 2.545-1.486.407.743-2.545 1.486zm46.922-1.592l-2.442-1.487.407-.743 2.443 1.486-.408.744zm-42.952-.744l-.407-.743 2.544-1.486.407.743-2.544 1.486zm39.085-1.698l-2.443-1.487.407-.743 2.443 1.486-.407.744zm-35.217-.637l-.408-.744 2.545-1.486.407.743-2.544 1.487zm31.349-1.7l-2.443-1.486.407-.743 2.443 1.487-.407.743zm-27.38-.636l-.407-.743 2.545-1.487.407.743-2.545 1.487zm23.512-1.805l-2.443-1.487.407-.743 2.443 1.487-.407.743zm-19.644-.425l-.407-.743 2.544-1.486.407.743-2.544 1.486zm15.878-2.017l-2.443-1.487.407-.743 2.443 1.487-.407.743zm-12.01-.319l-.407-.743 2.544-1.486.407.743-2.544 1.486zM252.97 36.418v2.017h.712l.713.743.61-.637-2.035-2.123zm3.053 3.185l-.61.637 1.933 2.017.611-.636-1.934-2.018zm-2.239.425h-.814v2.867h.814v-2.867zm5.191 2.76l-.611.637 1.934 2.018.611-.637-1.934-2.018zm-5.191 1.593h-.814v2.867h.814V44.38zm8.244 1.593l-.61.637 1.934 2.017.61-.637-1.934-2.017zm-8.244 2.866h-.814v2.867h.814V48.84zm11.196.319l-.611.637 1.934 2.017.611-.637-1.934-2.017zm2.952 3.079l-.611.637 1.934 2.017.611-.637-1.934-2.017zM253.784 53.3h-.814v2.866h.814V53.3zm17.201 2.123l-.61.637 1.934 2.017.61-.637-1.934-2.017zm-17.201 2.336h-.814v2.76h.814v-2.76zm20.153.85l-.611.636 1.934 2.018.611-.637-1.934-2.018zm3.054 3.184l-.611.638 1.934 2.017.611-.637-1.934-2.017zm-23.207.425h-.814v2.867h.814v-2.867zm26.158 2.654l-.61.638 1.934 2.017.61-.637-1.934-2.017zm-26.158 1.7h-.814v2.866h.814v-2.867zm29.11 1.486l-.611.637 1.934 2.017.611-.637-1.934-2.017zm-29.11 2.973h-.814v2.866h.814v-2.866zm32.164.212l-.611.637 1.934 2.017.61-.637-1.933-2.017zm2.951 3.185l-.61.637 1.933 2.017.611-.637-1.934-2.017zm-35.115 1.062h-.814v2.867h.814V75.49zm38.067 2.123l-.611.637 1.934 2.018.611-.637-1.934-2.018zm-38.067 2.336h-.814v2.867h.814v-2.867zm41.12.743l-.61.637 1.934 2.018.61-.637-1.934-2.018zm2.952 3.186l-.61.637 1.933 2.017.611-.637-1.934-2.017zm-44.072.53h-.814v2.867h.814v-2.867zm47.024 2.655l-.611.637 1.934 2.017.611-.637-1.934-2.017zm-47.024 1.698h-.814v2.867h.814v-2.867zm50.077 1.487l-.61.637 1.934 2.017.61-.637-1.934-2.017zm-50.077 2.973h-.814v2.867h.814V93.22zm53.029.106l-.611.637 1.934 2.017.611-.637-1.934-2.017zm3.054 3.185l-.611.637 1.934 2.018.611-.638-1.934-2.017zm-56.083 1.168h-.814v2.867h.814V97.68zm59.034 2.017l-.61.637 1.934 2.018.61-.637-1.934-2.018zm-59.034 2.442h-.814v2.867h.814v-2.867zm61.986.744l-.611.637 1.934 2.017.611-.637-1.934-2.017zm3.054 3.079l-.611.637.611.637.61-.637-.61-.637z" fill="#BECEFE"/><path d="M114.137 74.109H73.932l-20.255-36.63L73.73 1.167l1.12.638-19.747 35.674 19.543 35.356h39.492v1.274zM134.609 181.79l-1.058-.636-19.926 36.059 1.059.637 19.925-36.06z" fill="#BECEFE"/><path d="M174.087 110.101h-40.51l-20.255-36.63 20.255-36.63h40.51l20.255 36.63-20.255 36.63zm-39.797-1.274h39.186l19.543-35.356-19.543-35.356H134.29l-19.543 35.356 19.543 35.356z" fill="#BECEFE"/><path d="M174.088 182.087h-40.51l-20.153-36.312 1.119-.637 19.746 35.675h39.085l19.644-35.356-19.746-35.674 1.018-.637 20.153 36.311-20.356 36.63zM233.936 145.776l-1.018-.637 19.746-35.675-19.543-35.355h-39.492v-1.274h40.205l20.255 36.629-20.153 36.312z" fill="#BECEFE"/><path d="M253.9 37.828l-1.058-.638-19.899 35.956 1.058.637L253.9 37.827zM321.469 108.827h-68.093v1.274h68.093v-1.274zM114.137 147.581c1.124 0 2.035-.95 2.035-2.123 0-1.173-.911-2.124-2.035-2.124-1.125 0-2.036.951-2.036 2.124s.911 2.123 2.036 2.123zM74.34 147.581c1.123 0 2.035-.95 2.035-2.123 0-1.173-.912-2.124-2.036-2.124s-2.035.951-2.035 2.124.91 2.123 2.035 2.123zM114.137 219.567c1.124 0 2.035-.951 2.035-2.124 0-1.172-.911-2.123-2.035-2.123-1.125 0-2.036.951-2.036 2.123 0 1.173.911 2.124 2.036 2.124zM134.086 111.588c1.124 0 2.036-.95 2.036-2.123 0-1.173-.912-2.124-2.036-2.124s-2.036.951-2.036 2.124.912 2.123 2.036 2.123zM134.086 183.574c1.124 0 2.036-.951 2.036-2.123 0-1.173-.912-2.124-2.036-2.124s-2.036.951-2.036 2.124c0 1.172.912 2.123 2.036 2.123zM174.087 111.588c1.124 0 2.035-.95 2.035-2.123 0-1.173-.911-2.124-2.035-2.124s-2.036.951-2.036 2.124.912 2.123 2.036 2.123zM174.087 39.602c1.124 0 2.035-.95 2.035-2.123 0-1.173-.911-2.123-2.035-2.123s-2.036.95-2.036 2.123c0 1.173.912 2.123 2.036 2.123zM133.882 39.602c1.124 0 2.036-.95 2.036-2.123 0-1.173-.912-2.123-2.036-2.123s-2.036.95-2.036 2.123c0 1.173.912 2.123 2.036 2.123z" fill="#BECEFE"/><path d="M253.376 111.588c1.124 0 2.036-.95 2.036-2.123 0-1.173-.912-2.124-2.036-2.124s-2.036.951-2.036 2.124.912 2.123 2.036 2.123zM321.47 111.588c1.124 0 2.035-.95 2.035-2.123 0-1.173-.911-2.124-2.035-2.124-1.125 0-2.036.951-2.036 2.124s.911 2.123 2.036 2.123zM114.137 75.595c1.124 0 2.035-.95 2.035-2.123 0-1.173-.911-2.124-2.035-2.124-1.125 0-2.036.95-2.036 2.124 0 1.172.911 2.123 2.036 2.123zM74.34 75.595c1.123 0 2.035-.95 2.035-2.123 0-1.173-.912-2.124-2.036-2.124s-2.035.95-2.035 2.124c0 1.172.91 2.123 2.035 2.123zM233.426 75.595c1.125 0 2.036-.95 2.036-2.123 0-1.173-.911-2.124-2.036-2.124-1.124 0-2.035.95-2.035 2.124 0 1.172.911 2.123 2.035 2.123zM253.376 39.602c1.124 0 2.036-.95 2.036-2.123 0-1.173-.912-2.123-2.036-2.123s-2.036.95-2.036 2.123c0 1.173.912 2.123 2.036 2.123zM193.527 75.595c1.124 0 2.036-.95 2.036-2.123 0-1.173-.912-2.124-2.036-2.124s-2.035.95-2.035 2.124c0 1.172.911 2.123 2.035 2.123zM174.087 183.574c1.124 0 2.035-.951 2.035-2.123 0-1.173-.911-2.124-2.035-2.124s-2.036.951-2.036 2.124c0 1.172.912 2.123 2.036 2.123zM193.527 147.581c1.124 0 2.036-.95 2.036-2.123 0-1.173-.912-2.124-2.036-2.124s-2.035.951-2.035 2.124.911 2.123 2.035 2.123zM233.426 147.581c1.125 0 2.036-.95 2.036-2.123 0-1.173-.911-2.124-2.036-2.124-1.124 0-2.035.951-2.035 2.124s.911 2.123 2.035 2.123zM54.39 39.602c1.124 0 2.035-.95 2.035-2.123 0-1.173-.911-2.123-2.036-2.123-1.124 0-2.035.95-2.035 2.123 0 1.173.911 2.123 2.035 2.123zM74.34 4.247c1.123 0 2.035-.95 2.035-2.124C76.375.951 75.463 0 74.339 0s-2.035.95-2.035 2.123c0 1.173.91 2.124 2.035 2.124zM153.323 56.272a.3.3 0 00-.407 0c-.102.106-.203.212-.203.319v3.397c-7.227.425-12.825 6.689-12.825 14.015 0 3.504 1.221 6.795 3.46 9.343.102.106.204.106.306.106.102 0 .203 0 .203-.106l3.156-2.548c.101-.106.101-.212.101-.319 0-.106 0-.212-.101-.318-1.629-1.699-2.443-3.928-2.443-6.264 0-4.672 3.562-8.6 8.143-8.919v3.398c0 .106.101.318.203.318.102.106.305 0 .407 0l3.664-3.079h.102l1.425-1.168 2.239-1.805c.102-.106.102-.212.102-.318 0-.106-.102-.212-.102-.319l-7.43-5.733zM162.789 64.129l-3.359 2.76c-.101.106-.101.213-.101.319 0 .106 0 .212.101.318a9.173 9.173 0 012.748 6.583c0 4.99-3.867 8.919-8.651 9.025V79.63c0-.106-.102-.318-.204-.318-.101-.107-.305 0-.407 0l-3.664 2.866c-.102 0-.102.106-.204.106l-3.358 2.76c-.102.107-.102.213-.102.32 0 .106.102.212.102.318l7.226 6.052c.102.106.102.106.204.106h.203c.102-.106.204-.212.204-.319v-3.29c7.532.105 13.842-6.159 13.842-14.016 0-3.716-1.425-7.22-3.969-9.874-.204-.425-.407-.425-.611-.212z" fill="#BECEFE"/><path opacity=".4" d="M269.152 46.61l1.425 1.593c.306.319.713.319 1.018-.106a22.958 22.958 0 003.664-13.484c-.407-12.635-10.585-22.509-22.697-22.084-.815 0-1.629.106-2.545.212-10.077 1.487-17.914 10.299-18.626 20.916-.408 5.734 1.221 11.255 4.478 15.714.204.319.713.319 1.018 0l1.323-1.593c.204-.212.204-.53 0-.849-2.341-3.291-3.562-7.22-3.562-11.467 0-10.086 7.532-18.686 17.201-19.536 10.687-.955 19.848 7.751 20.153 18.793.102 3.928-.916 7.75-2.952 11.042-.203.212-.101.637.102.85z" fill="#BECEFE"/><path opacity=".6" d="M263.961 40.665l1.73 1.805c.306.425.917.319 1.12-.212 1.018-2.23 1.425-4.566 1.323-7.008-.203-7.326-5.394-13.59-12.315-14.864-2.036-.425-4.072-.318-6.107.212-6.82 1.7-11.604 8.282-11.4 15.608.102 2.442.712 4.778 1.832 6.901.203.425.814.531 1.221.106l1.629-2.017c.203-.212.203-.53.102-.743-.611-1.38-.916-2.867-1.018-4.353-.204-4.884 2.646-9.45 7.023-11.255a10.262 10.262 0 017.735-.212c4.479 1.486 7.532 5.84 7.736 10.724 0 1.486-.204 3.079-.713 4.459-.101.318-.101.637.102.85z" fill="#BECEFE"/><path d="M253.172 30.048c-2.849.106-5.089 2.548-4.987 5.627 0 1.593.611 2.973 1.629 3.928v-2.23c0-.848.305-1.698.814-2.335a3.376 3.376 0 012.748-1.38c1.629 0 3.054 1.168 3.461 2.867.101.318.101.53.101.849v2.336c1.222-1.062 1.731-2.655 1.629-4.46-.204-2.972-2.545-5.308-5.395-5.202z" fill="#BECEFE"/><path d="M266.303 55.211l-.204-6.37c0-.425-.102-1.912-1.323-2.23a1.854 1.854 0 00-1.527.106h-.102c-.203-.743-.712-1.274-1.526-1.38-.917-.106-1.527.212-1.934.425-.408-.85-1.222-1.275-2.24-1.168-.814.106-1.323.53-1.73 1.061l-.204-5.414c0-1.062-.101-2.124-.101-3.186-.102-1.167-1.018-2.017-2.138-2.017-.61 0-1.221.319-1.628.85-.407.53-.509 1.167-.509 1.804v9.875c0 .212.102 5.202.102 5.202-.408-.425-.916-.85-1.324-1.38-1.017-1.062-2.748-1.805-3.969-1.911-.611 0-1.12 0-1.425.318l-.305.319c-.611.637-1.018 1.698-.509 2.335.203.319.508.531.814.744.407.318 1.221.53 1.73 1.274 1.018 1.168 3.257 3.928 4.58 5.308.306.213.917.744 1.12.85.814.53 1.527 1.062 1.832 1.274.204.212 1.323.743 1.323.743.916.531 2.545 1.062 4.377.956 1.832-.106 3.562 0 4.784-1.168h.102v-.106a6.903 6.903 0 001.934-4.778V55.21zM154.137 139.724c-4.885 0-9.465 1.911-12.926 5.415-.509.531-.916 1.274-.916 2.123 0 .85.305 1.593.814 2.124.509.637 1.323.956 2.036.956.712 0 1.425-.319 1.934-.85 2.443-2.442 5.598-3.716 8.957-3.716 3.359 0 6.514 1.274 8.957 3.716 1.119 1.168 2.951 1.062 4.071-.106.509-.531.814-1.38.814-2.124 0-.849-.305-1.592-.916-2.123-3.46-3.504-8.041-5.415-12.825-5.415z" fill="#BECEFE"/><path d="M173.069 136.858c-5.191-5.097-11.908-7.857-18.931-7.857-7.125 0-13.843 2.76-19.034 7.963-.509.531-.916 1.274-.916 2.123 0 .85.305 1.593.814 2.124.509.637 1.324.955 2.036.955.713 0 1.425-.318 1.934-.849 4.071-4.035 9.466-6.264 15.064-6.264 5.598 0 10.891 2.229 14.962 6.264 1.12 1.168 2.952 1.062 4.071-.106.509-.531.815-1.38.815-2.124.101-.955-.204-1.698-.815-2.229zM154.647 150.553c-3.054 0-5.598 2.655-5.598 5.84s2.544 5.839 5.598 5.839c3.053 0 5.598-2.654 5.598-5.839 0-3.185-2.545-5.84-5.598-5.84zm0 5.84c0 .106-.102.106 0 0-.102 0-.102 0 0 0zM111.49 23.358l-3.156-3.29c-1.017-1.063-2.544-1.594-4.071-1.487-1.425.106-2.85.85-3.969 2.017l-6.006 6.264c-.101.106-.203.319-.305.425a4.323 4.323 0 00-2.036-.212c-1.425.106-2.85.849-3.97 2.017l-9.669 10.086c-1.12 1.168-1.73 2.549-1.934 4.035-.203 1.699.306 3.185 1.425 4.353l3.156 3.291c.916.956 2.239 1.487 3.562 1.487h.51c1.424-.106 2.849-.85 3.867-2.017l5.496-5.734c.305-.318.51-.743.61-1.062.612.213 1.12.319 1.833.319 1.629 0 3.257-.743 4.478-2.017l9.67-10.087c1.119-1.168 1.73-2.548 1.934-4.034.102-1.7-.407-3.292-1.425-4.354zm-18.118 12.21c-.102-.106-.102-.318-.102-.424 0-.425.204-.743.51-1.168.101-.106.203-.319.305-.425l1.628 1.699c.102.106.102.319.102.425 0 .424-.203.743-.509 1.168-.102.106-.203.318-.305.424l-1.629-1.699zm5.7-3.716l-1.527-1.592 6.006-6.264c.305-.319.712-.531 1.018-.531.203 0 .407 0 .407.106l3.155 3.291c.102.106.102.319.102.425 0 .425-.204.743-.509 1.168l-7.227 7.538c.102-1.699-.407-3.079-1.425-4.14zm-7.837 9.238l-5.496 5.733c-.306.318-.713.53-1.12.53-.204 0-.407 0-.407-.105l-3.156-3.292c-.101-.106-.101-.318-.101-.425 0-.424.203-.743.509-1.167l7.226-7.539c-.102 1.487.407 2.973 1.425 3.929l1.629 1.699c-.204.318-.407.53-.51.636zM312.818 172.213c-.407 0-.712-.212-.916-.637-1.018-2.548-1.629-5.308-1.629-8.175 0-.531.408-.956.916-.956.509 0 .917.425.917.956 0 2.548.508 5.096 1.424 7.432.204.531 0 1.062-.508 1.274 0 .106-.102.106-.204.106zM347.526 174.549c-.102 0-.305.001-.407-.106-.509-.212-.712-.849-.407-1.274.814-1.805 1.323-3.716 1.628-5.627.102-.531.509-.956 1.018-.849.509.106.916.531.815 1.061-.306 2.124-.815 4.247-1.731 6.265-.203.318-.61.53-.916.53zM349.562 164.463c-.509 0-.916-.425-.916-.955 0-7.645-4.377-14.546-11.095-17.519-.509-.212-.712-.743-.509-1.274.204-.531.713-.743 1.222-.531 7.43 3.291 12.316 10.83 12.316 19.324 0 .53-.509.955-1.018.955zM312.41 157.88c-.101 0-.203 0-.305-.106-.509-.212-.712-.743-.611-1.274 2.85-8.388 10.382-14.015 18.932-14.015.509 0 .916.425.916.955 0 .531-.407.956-.916.956-7.736 0-14.657 5.096-17.201 12.741-.102.531-.509.743-.815.743z" fill="#BECEFE"/><path d="M315.261 166.374c-.509 0-.916-.318-.916-.849-.102-.637-.102-1.38-.102-2.018 0-6.051 3.053-11.679 8.041-14.651.407-.319 1.018-.107 1.323.318.305.425.102 1.062-.305 1.38-4.377 2.655-7.125 7.645-7.125 12.953 0 .638 0 1.275.102 1.805.101.531-.306 1.062-.815 1.062h-.203zM339.892 151.828c-.203 0-.407-.106-.61-.212-2.545-2.017-5.599-3.185-8.856-3.185-.712 0-1.425 0-2.035.106-.509.106-1.018-.319-1.12-.85-.102-.53.305-1.061.814-1.168.815-.106 1.527-.212 2.341-.212 3.665 0 7.125 1.274 9.975 3.61.407.319.509.956.204 1.38-.204.425-.509.531-.713.531zM340.503 181.451c-.204 0-.407-.107-.611-.213a.932.932 0 01-.102-1.38c4.886-6.264 7.329-17.094 2.749-24.526-.306-.425-.204-1.062.305-1.38.407-.319 1.018-.213 1.323.318 2.341 3.716 3.257 8.706 2.545 13.909-.611 4.671-2.647 9.449-5.395 12.953-.305.212-.509.319-.814.319zM331.444 170.409c-.509 0-.916-.425-.916-.956-.102-1.911-.305-3.716-.814-5.521-.102-.53.203-1.061.712-1.168a.939.939 0 011.12.744c.509 1.911.712 3.822.814 5.945 0 .531-.407.956-.916.956zM329.205 184.423c-.101 0-.203 0-.305-.106-.509-.212-.712-.743-.509-1.274 1.222-3.292 2.036-6.795 2.239-10.193 0-.531.509-.955 1.018-.955s.916.53.916 1.061c-.203 3.61-1.119 7.326-2.443 10.724-.203.531-.509.743-.916.743zM315.464 176.885h-.305c-.509-.107-.814-.744-.611-1.275.509-1.911.713-4.034.407-6.051-.101-.531.306-1.062.815-1.062.509-.106 1.018.318 1.018.849a16.841 16.841 0 01-.509 6.795c0 .425-.408.744-.815.744z" fill="#BECEFE"/><path d="M342.03 164.462c-.509 0-.916-.424-.916-.955 0-3.716-1.731-7.114-4.682-9.131-.407-.319-.509-.956-.204-1.38.305-.425.916-.531 1.323-.213 3.461 2.442 5.497 6.477 5.497 10.83-.102.425-.509.849-1.018.849zM318.824 164.463c-.509 0-.916-.425-.916-.955 0-7.22 5.598-13.06 12.519-13.06.407 0 .814 0 1.323.106.509.107.916.531.815 1.062-.102.531-.509.956-1.018.85-.407 0-.713-.107-1.12-.107-5.903 0-10.687 4.991-10.687 11.149.102.53-.407.955-.916.955zM318.518 180.07c-.102 0-.204 0-.305-.106-.509-.213-.713-.744-.509-1.274.814-2.124 1.119-4.354 1.119-6.689 0-1.487-.203-2.973-.509-4.46-.101-.531.204-1.061.713-1.168a.938.938 0 011.119.744c.408 1.592.509 3.291.509 4.884 0 2.548-.407 4.99-1.323 7.432 0 .424-.407.637-.814.637zM332.971 184.529c-.306 0-.611-.106-.814-.424-.306-.425-.204-1.062.203-1.381 4.784-3.397 7.838-8.706 8.652-14.758.102-.531.509-.955 1.018-.849.509.106.916.531.814 1.062-.814 6.689-4.173 12.422-9.466 16.138 0 .106-.204.212-.407.212z" fill="#BECEFE"/><path d="M323.607 160.746c-.102 0-.306 0-.407-.106-.509-.212-.611-.849-.407-1.38 1.526-2.973 4.478-4.884 7.633-4.884 2.138 0 4.173.849 5.802 2.336.407.318.407.955.102 1.38-.306.425-.916.425-1.323.106-1.222-1.168-2.85-1.805-4.581-1.805-2.544 0-4.784 1.487-6.005 3.822-.102.319-.509.531-.814.531zM323.913 174.019c-.509 0-.916-.425-.916-.956 0-2.866-.407-5.627-1.12-8.387-.102-.531.204-1.062.611-1.168a.936.936 0 011.119.743c.815 2.867 1.12 5.839 1.12 8.918.204.425-.203.85-.814.85zM322.182 182.407c-.102 0-.305 0-.407-.107-.509-.212-.713-.849-.509-1.274.611-1.38 1.018-2.973 1.323-4.459.102-.531.611-.956 1.12-.849.509.106.916.637.814 1.167-.305 1.699-.712 3.398-1.425 4.991-.204.318-.611.531-.916.531zM338.976 169.56c-.101 0-.101 0 0 0a.906.906 0 01-.916-1.062 19.221 19.221 0 00-.916-6.795c-.203-.531.102-1.062.611-1.274.509-.213 1.018.106 1.221.637.815 2.442 1.12 4.99 1.018 7.538-.102.531-.509.956-1.018.956zM325.541 183.787c-.102 0-.306 0-.407-.107-.509-.212-.713-.849-.509-1.274.407-1.061.814-2.123 1.119-3.185.102-.531.713-.849 1.222-.637.509.106.814.743.61 1.274a23.857 23.857 0 01-1.221 3.504c-.102.106-.509.425-.814.425zM327.271 177.31h-.101c-.509-.107-.916-.637-.815-1.168.204-1.593.306-3.186.204-4.672 0-.743-.102-1.486-.204-2.23-.101-.53.306-1.061.815-1.167.508-.107 1.017.318 1.119.849.102.849.204 1.593.305 2.442.102 1.699 0 3.397-.203 5.096-.204.531-.611.85-1.12.85z" fill="#BECEFE"/><path d="M335.617 170.833c-.509 0-.916-.425-.916-.955 0-3.292-.916-9.556-4.275-9.556-1.73 0-3.053 1.486-3.053 3.185v.213c0 .53-.407 1.061-.916 1.061-.509 0-1.018-.424-1.018-.955v-.319c0-2.867 2.239-5.202 4.987-5.202 4.479 0 6.107 6.264 6.107 11.573 0 .53-.407.955-.916.955zM333.785 179.751c-.102 0-.305 0-.407-.106-.509-.212-.712-.849-.509-1.274a24.226 24.226 0 001.527-5.308c.102-.531.611-.956 1.12-.85.508.106.916.637.814 1.168-.306 2.017-.814 3.928-1.629 5.733-.203.425-.509.637-.916.637zM228.478 274.458c-24.326-.106-44.072-20.916-43.97-46.291.102-25.376 20.051-45.973 44.377-45.867 24.327.106 44.073 20.916 43.971 46.291-.102 25.376-20.051 45.974-44.378 45.867zm.407-87.274c-21.781-.106-39.492 18.262-39.593 40.983-.102 22.721 17.506 41.195 39.288 41.301 21.782.106 39.492-18.262 39.594-40.983 0-22.615-17.609-41.195-39.289-41.301z" fill="#BECEFE"/><path d="M228.377 284.12c-29.518-.106-53.335-25.269-53.233-56.059h4.071c-.102 28.454 21.884 51.6 49.162 51.812 27.278.106 49.466-22.827 49.67-51.282.102-28.454-21.884-51.6-49.161-51.812v-4.247c29.517.106 53.334 25.269 53.232 56.059-.102 30.791-24.224 55.742-53.741 55.529z" fill="#BECEFE"/><path d="M272.957 275.308l-2.85-3.079c23.105-23.889 23.309-62.854.408-86.956l2.951-2.973c24.428 25.8 24.225 67.527-.509 93.008zM312.277 226.328c1.478 0 2.676-1.25 2.676-2.792 0-1.542-1.198-2.792-2.676-2.792-1.479 0-2.677 1.25-2.677 2.792 0 1.542 1.198 2.792 2.677 2.792zM323.748 243.775c1.349 0 2.443-1.141 2.443-2.549 0-1.407-1.094-2.548-2.443-2.548s-2.443 1.141-2.443 2.548c0 1.408 1.094 2.549 2.443 2.549zM335.962 260.549c1.349 0 2.443-1.14 2.443-2.548 0-1.407-1.094-2.548-2.443-2.548s-2.443 1.141-2.443 2.548c0 1.408 1.094 2.548 2.443 2.548zM23.844 246.303c1.349 0 2.442-1.141 2.442-2.548 0-1.408-1.093-2.548-2.442-2.548-1.35 0-2.443 1.14-2.443 2.548 0 1.407 1.094 2.548 2.443 2.548zM246.596 218.187h-3.054v-4.035c0-8.281-6.616-14.97-14.657-14.97-8.142 0-14.657 6.689-14.657 14.97v4.035h-2.748c-1.628 0-2.85 1.38-2.85 2.973v29.516c0 1.699 1.324 2.973 2.85 2.973h35.116c1.628 0 2.85-1.381 2.85-2.973V221.16c0-1.699-1.222-2.973-2.85-2.973zm-14.657 22.19c0 1.699-1.323 2.973-2.85 2.973-1.629 0-2.85-1.38-2.85-2.973v-8.919c0-1.698 1.323-2.972 2.85-2.972 1.628 0 2.85 1.38 2.85 2.972v8.919zm5.801-22.19h-17.812v-4.035c0-4.884 3.97-8.918 8.855-8.918 4.886 0 8.856 4.034 8.856 8.918v4.035h.101zM107.216 154.164l14.86 26.756-14.86 26.756H77.495l-14.86-26.756 14.86-26.756h29.721zm.814-1.486H76.782L61.108 180.92l15.674 28.242h31.248l15.675-28.242-15.675-28.242z" fill="#BECEFE"/><path d="M94.9 182.725h-1.12c-.102 0-.204-.107-.204-.213-.101-.424-.305-.743-.407-1.061v-.213l.815-.849c.305-.319.509-.743.509-1.168 0-.425-.204-.849-.51-1.168l-1.73-1.805c-.305-.318-.712-.531-1.12-.531-.406 0-.814.213-1.119.531l-.814.849c-.102.107-.204 0-.204 0-.305-.212-.712-.318-1.018-.424 0 0-.101-.106-.101-.213v-1.167c0-.956-.713-1.699-1.629-1.699h-2.443c-.916 0-1.628.743-1.628 1.699v1.167c0 .107-.102.213-.102.213-.305.106-.713.318-1.018.424 0 0-.102.107-.203 0l-.815-.849c-.305-.318-.712-.531-1.12-.531-.406 0-.814.213-1.119.531l-1.73 1.805c-.611.637-.611 1.699 0 2.336l.814.849s.102.106 0 .213c-.204.318-.305.743-.407 1.061 0 0-.102.213-.204.213h-1.12c-.915 0-1.628.743-1.628 1.698v2.549c0 .955.713 1.698 1.629 1.698h1.12c.101 0 .101 0 .203.107.102.424.305.849.509 1.274v.212l-.815.849c-.61.637-.61 1.699 0 2.336l1.73 1.805c.306.319.713.531 1.12.531.408 0 .815-.212 1.12-.531l.814-.849s.102-.106.204 0c.407.212.814.318 1.221.531.102 0 .102.106.102.212v1.062c0 .955.713 1.698 1.629 1.698h2.442c.916 0 1.629-.743 1.629-1.698v-1.062c0-.106 0-.212.102-.212.407-.107.814-.319 1.221-.531h.204l.814.849c.305.319.713.531 1.12.531.407 0 .814-.212 1.12-.531l1.73-1.805c.305-.318.508-.743.508-1.168 0-.424-.203-.849-.508-1.168l-.815-.849s-.102-.106 0-.212c.204-.425.306-.85.51-1.274 0-.107.101-.107.203-.107h1.12c.915 0 1.628-.743 1.628-1.698v-2.549c-.713-.955-1.425-1.698-2.24-1.698zm-5.497 2.972c0 2.549-2.035 4.672-4.478 4.672-2.443 0-4.479-2.123-4.479-4.672 0-2.548 2.036-4.671 4.479-4.671s4.478 2.123 4.478 4.671zm19.746-12.422h-.712c-.102 0-.102-.106-.102-.106-.102-.212-.203-.531-.305-.743v-.106l.509-.531c.203-.213.305-.531.305-.85 0-.318-.102-.637-.305-.849l-1.222-1.274c-.203-.212-.509-.319-.814-.319-.305 0-.611.107-.814.319l-.509.531h-.102c-.204-.106-.509-.213-.712-.319 0 0-.102 0-.102-.106v-.849c0-.637-.509-1.168-1.12-1.168h-1.73c-.611 0-1.12.531-1.12 1.168v.849c0 .106-.102.106-.102.106-.203.106-.508.213-.712.319h-.102l-.509-.531c-.203-.212-.509-.319-.814-.319-.305 0-.61.107-.814.319l-1.222 1.274c-.407.425-.407 1.168 0 1.593l.51.53v.107c-.103.212-.204.531-.306.743 0 0 0 .106-.102.106h-.712c-.611 0-1.12.531-1.12 1.168v1.805c0 .637.509 1.168 1.12 1.168h.712c.102 0 .102 0 .102.106.102.318.203.531.305.849v.107l-.509.53c-.407.425-.407 1.168 0 1.593l1.222 1.274c.203.212.509.319.814.319.305 0 .61-.107.814-.319l.51-.531h.1c.306.106.51.213.815.319l.102.106v.743c0 .637.509 1.168 1.12 1.168h1.73c.611 0 1.12-.531 1.12-1.168v-.743c0-.106 0-.106.101-.106.306-.106.509-.213.815-.319h.101l.509.531c.204.212.509.319.815.319.305 0 .61-.107.814-.319l1.221-1.274c.204-.212.306-.531.306-.849 0-.319-.102-.637-.306-.85l-.509-.531v-.106c.102-.318.204-.531.306-.849l.101-.106h.713c.611 0 1.12-.531 1.12-1.168v-1.805c-.204-.531-.713-.956-1.324-.956zm-3.766 2.018c0 1.804-1.425 3.185-3.053 3.185-1.73 0-3.054-1.381-3.054-3.185 0-1.805 1.324-3.186 3.054-3.186 1.73-.106 3.053 1.381 3.053 3.186z" fill="#BECEFE"/><path d="M110.88 268.195c-13.538-14.121-35.625-14.121-49.162 0-12.723 13.272-13.334 33.869-2.85 47.884l-3.46 3.61c-1.324-.319-2.545.106-3.461 1.062l-17.405 18.155c-1.527 1.593-1.527 4.141 0 5.628l3.155 3.291c1.527 1.593 3.97 1.593 5.395 0l17.405-18.156c.916-.955 1.323-2.336 1.017-3.61l3.461-3.609c5.191 4.246 11.604 6.901 18.22 7.432.712.106 1.323-.531 1.424-1.168.102-.743-.508-1.381-1.12-1.487a31.774 31.774 0 01-19.847-9.661c-12.52-13.06-12.621-34.295 0-47.46 12.52-13.059 32.978-13.059 45.497 0 12.52 13.059 12.52 34.4 0 47.46-5.293 5.521-12.417 9.024-19.848 9.661a1.311 1.311 0 00-1.12 1.487c.103.743.612 1.168 1.324 1.168h.102c8.04-.744 15.674-4.46 21.476-10.512 13.334-14.121 13.334-37.054-.203-51.175zM41.26 346.02c-.51.531-1.324.531-1.73 0l-3.156-3.291c-.509-.531-.509-1.381 0-1.805l12.825-13.378 4.987 5.202L41.26 346.02zm17.405-18.156l-2.749 2.867-4.987-5.202 2.748-2.867c.51-.531 1.323-.531 1.73 0l3.156 3.291c.509.531.509 1.38.102 1.911zm4.275-7.113l-2.85 2.973-2.443-2.549 2.85-2.972 2.443 2.548z" fill="#416BE5" fill-opacity=".34"/><path d="M98.157 275.946v-2.655c0-.743-.61-1.38-1.323-1.38s-1.323.637-1.323 1.38v1.912H76.884v-1.912c0-.743-.61-1.38-1.323-1.38-.712 0-1.323.637-1.323 1.38v2.655c0 7.113 3.359 13.908 9.262 17.837-5.7 3.928-9.262 10.617-9.262 17.837v2.654c0 .744.61 1.381 1.323 1.381s1.323-.637 1.323-1.381v-1.911h18.728v1.911c0 .744.611 1.381 1.324 1.381.712 0 1.323-.637 1.323-1.381v-2.654c0-7.114-3.36-13.909-9.263-17.837 5.599-3.822 9.161-10.511 9.161-17.837zm-21.07 2.017h18.424c-.102 1.062-.306 2.017-.51 2.973H77.598c-.204-1.062-.407-2.017-.51-2.973zm2.953 8.6a27.266 27.266 0 01-1.629-2.973h15.573c-.407 1.062-1.018 2.018-1.629 2.973H80.04zm15.47 23.252H77.089c.102-1.062.305-2.017.509-2.973h17.405c.203.956.407 1.911.509 2.973zm-3.053-8.6c.61.956 1.12 1.911 1.629 2.973H78.513c.407-1.062 1.018-2.017 1.628-2.973h12.316zm-2.137-2.654h-8.143c1.221-1.274 2.545-2.336 4.071-3.186 1.527.85 2.85 1.912 4.072 3.186zm-4.072-6.265c-1.526-.849-2.85-1.911-4.071-3.185h8.143c-1.222 1.274-2.545 2.336-4.072 3.185z" fill="#416BE5" fill-opacity=".34"/><path d="M111.898 290.067c.102.743.712 1.274 1.425 1.168a1.311 1.311 0 001.119-1.487 29.613 29.613 0 00-8.041-16.881c-11.094-11.573-29.11-11.573-40.204 0-11.094 11.573-11.094 30.365 0 41.938 5.496 5.734 12.825 8.706 20.153 8.706 7.329 0 14.555-2.866 20.153-8.706 4.784-4.99 7.634-11.573 8.245-18.474.101-.743-.509-1.38-1.222-1.486-.712-.107-1.323.53-1.425 1.274-.509 6.37-3.155 12.316-7.532 16.881-10.076 10.511-26.463 10.511-36.642 0-10.076-10.511-10.076-27.605 0-38.222 10.077-10.511 26.464-10.511 36.642 0 4.072 4.141 6.616 9.449 7.329 15.289zM254.394 142.803v-3.079c0-1.168.916-2.123 2.036-2.123.916 0 1.73.637 1.934 1.592h.814c.204 0 .305-.106.407-.318a11.913 11.913 0 011.832-4.566c.102-.212.102-.424 0-.53l-.61-.637c-.713.424-1.629.424-2.24-.213-.407-.424-.712-.955-.712-1.486s.203-1.168.611-1.593l2.137-2.229c.407-.425.916-.638 1.425-.638s1.018.213 1.425.638c.407.424.611.955.611 1.486 0 .425-.102.743-.306 1.062l.611.637c.102.106.305.106.509 0a11.534 11.534 0 014.377-1.911c.203 0 .305-.213.305-.425v-.849c-.305-.107-.712-.319-.916-.531-.407-.425-.611-.956-.509-1.487 0-1.168.916-2.017 2.036-2.017h2.951c.509 0 1.018.212 1.425.637.408.425.611.956.509 1.486 0 .956-.61 1.699-1.526 1.912v.849c0 .212.101.318.305.425 1.628.318 3.053.955 4.377 1.911.203.106.407.106.509 0l.61-.637a1.854 1.854 0 01-.305-1.062c0-.531.203-1.062.611-1.486.814-.85 2.035-.85 2.85 0l2.137 2.229c.814.85.814 2.124 0 2.973-.407.425-.916.637-1.425.637-.407 0-.712-.106-1.018-.318l-.611.637c-.101.106-.101.318 0 .53.917 1.381 1.527 2.973 1.833 4.566 0 .212.203.318.407.318h.814c.204-.849 1.018-1.592 1.934-1.592 1.119 0 2.036.955 2.036 2.123v3.079c0 1.168-.917 2.124-2.036 2.124a1.98 1.98 0 01-1.934-1.593h-.814c-.204 0-.306.106-.407.319a11.888 11.888 0 01-1.833 4.565c-.101.213-.101.425 0 .531l.611.637c.814-.425 1.731-.318 2.443.319a2.114 2.114 0 010 2.972l-2.137 2.23c-.815.85-2.036.85-2.85 0a2.137 2.137 0 01-.611-1.486c0-.425.102-.744.305-1.062l-.61-.637c-.102-.106-.306-.106-.509 0a11.557 11.557 0 01-4.377 1.911c-.204 0-.305.212-.305.425v.849c.814.212 1.425.956 1.526 1.805 0 .531-.101 1.168-.509 1.593-.407.424-.916.637-1.425.637h-2.951c-.509 0-1.12-.213-1.425-.637-.407-.425-.611-1.062-.509-1.593.102-.849.712-1.593 1.527-1.805v-.849c0-.213-.102-.319-.306-.425a10.9 10.9 0 01-4.376-1.911c-.204-.106-.408-.106-.509 0l-.611.637c.203.318.305.637.305 1.062a2.14 2.14 0 01-.61 1.486c-.408.425-.916.637-1.425.637s-1.018-.212-1.425-.637l-2.138-2.23c-.407-.424-.611-.955-.611-1.592 0-.531.306-1.168.713-1.487.611-.53 1.527-.637 2.239-.212l.611-.637c.102-.106.102-.318 0-.531-.916-1.38-1.527-2.973-1.832-4.565 0-.213-.204-.319-.407-.319h-.815c-.203.85-1.017 1.593-1.933 1.593-1.425 0-2.24-.956-2.24-2.124zm8.347-8.812c0 .318-.102.743-.306 1.062-.814 1.274-1.323 2.654-1.628 4.14-.204.85-.916 1.487-1.731 1.487h-1.221c-.407 0-.814-.425-.814-.85 0-.424-.306-.743-.713-.743s-.712.319-.712.743v3.08c0 .424.305.743.712.743s.713-.319.713-.743c0-.425.407-.85.814-.85h1.221c.815 0 1.527.637 1.731 1.487.305 1.486.814 2.866 1.628 4.14a1.841 1.841 0 01-.203 2.336l-.916.956a.777.777 0 01-1.12 0c-.204-.213-.611-.319-.916-.106a.827.827 0 00-.204.53c0 .213.102.425.204.531l2.137 2.23a.764.764 0 00.509.212c.204 0 .306-.106.509-.212.306-.319.306-.743 0-.956a.86.86 0 010-1.168l.916-.955c.611-.637 1.527-.743 2.239-.212 1.222.849 2.545 1.38 3.97 1.698.814.213 1.425.956 1.425 1.805v1.381c0 .424-.407.849-.814.849s-.713.318-.713.637c0 .212 0 .425.204.531a.761.761 0 00.509.212h2.951a.76.76 0 00.509-.212.83.83 0 00.204-.531c0-.319-.305-.637-.713-.637-.407 0-.814-.425-.814-.849v-1.381c0-.849.611-1.592 1.425-1.805 1.425-.318 2.748-.849 3.97-1.698.712-.531 1.628-.425 2.239.212l.916.955c.305.319.305.85 0 1.275-.305.318-.305.743 0 .955.305.319.712.319.916 0l2.137-2.23c.306-.318.306-.743 0-.955-.305-.319-.712-.319-.916 0-.305.318-.814.318-1.221 0l-.916-.956a1.84 1.84 0 01-.204-2.336c.815-1.274 1.324-2.654 1.629-4.14.204-.85.916-1.487 1.73-1.487h1.222c.407 0 .814.425.814.85 0 .424.305.743.712.743.408 0 .713-.319.713-.743v-3.079c0-.425-.305-.744-.713-.744-.407 0-.712.319-.712.744 0 .424-.407.849-.814.849h-1.222c-.814 0-1.526-.637-1.73-1.486-.305-1.487-.814-2.867-1.629-4.141-.509-.743-.407-1.699.204-2.336l.916-.956c.204-.212.407-.212.611-.212.203 0 .407.106.61.212.306.319.713.319.916 0 .306-.318.306-.743 0-.955l-2.137-2.23c-.305-.318-.712-.318-.916 0a.83.83 0 00-.204.531c0 .212.102.319.204.531.305.319.305.849 0 1.274l-.916.956c-.611.637-1.527.743-2.239.212-1.222-.849-2.545-1.38-3.97-1.699-.814-.212-1.425-.955-1.425-1.805v-1.38c0-.425.407-.849.814-.849.408 0 .713-.319.713-.637 0-.213-.102-.319-.204-.531a.76.76 0 00-.509-.213h-2.951c-.407 0-.713.319-.713.637 0 .213.102.319.204.531a.762.762 0 00.509.213c.407 0 .814.424.814.849v1.274c0 .849-.611 1.593-1.425 1.805-1.425.319-2.748.849-3.97 1.699-.712.531-1.628.425-2.239-.213l-.916-.955a.86.86 0 010-1.168.83.83 0 00.204-.531c0-.212-.102-.318-.204-.531a.761.761 0 00-.509-.212c-.203 0-.305.106-.509.212l-2.137 2.23a.827.827 0 00-.204.531c0 .212.102.424.204.531.305.212.611.212.916-.107a.777.777 0 011.12 0l.916.956c.305.212.509.743.509 1.168z" fill="#416BE5" fill-opacity=".34"/><path d="M274.141 138.557c0-1.593 1.221-2.867 2.748-2.867 1.526 0 2.748 1.274 2.748 2.867 0 1.592-1.222 2.866-2.748 2.866-1.527.106-2.748-1.274-2.748-2.866zm4.274 0c0-.85-.61-1.487-1.425-1.487-.814 0-1.425.637-1.425 1.487 0 .849.611 1.486 1.425 1.486.713.106 1.425-.637 1.425-1.486zM264.674 136.645c0-1.38 1.12-2.548 2.443-2.548s2.443 1.168 2.443 2.548c0 1.381-1.12 2.549-2.443 2.549s-2.443-1.168-2.443-2.549zm3.562 0c0-.637-.508-1.168-1.119-1.168s-1.12.531-1.12 1.168c0 .637.509 1.168 1.12 1.168.611-.106 1.119-.531 1.119-1.168zM265.386 146.095c0-2.123 1.527-4.035 3.665-4.247.407 0 .712.212.712.637 0 .425-.203.743-.61.743-1.425.213-2.443 1.381-2.443 2.867 0 1.593 1.221 2.867 2.748 2.867 1.425 0 2.646-1.062 2.748-2.548 0-.425.407-.637.713-.637.407 0 .61.424.61.743-.203 2.123-1.934 3.822-4.071 3.822-2.239 0-4.072-1.911-4.072-4.247zM276.277 145.245c0-.212.102-.319.204-.531a.759.759 0 01.508-.212c.204 0 .306.106.509.212a.829.829 0 01.203.531c0 .212-.101.318-.203.53a.757.757 0 01-.509.213c-.203 0-.305-.106-.508-.213-.102-.212-.204-.424-.204-.53zM262.74 141.317c0-.212.102-.318.204-.531a.759.759 0 01.508-.212c.204 0 .306.106.509.212a.831.831 0 01.203.531c0 .212-.101.318-.203.531a.761.761 0 01-.509.212c-.203 0-.305-.106-.508-.212-.102-.213-.204-.425-.204-.531zM270.679 133.46c0-.213.102-.319.204-.531a.76.76 0 01.508-.212c.204 0 .306.106.509.212a.827.827 0 01.204.531c0 .212-.102.318-.204.53a.762.762 0 01-.509.213c-.203 0-.305-.107-.508-.213a.827.827 0 01-.204-.53z" fill="#416BE5" fill-opacity=".34"/><path d="M271.29 143.547c0-.213.102-.319.203-.531a.764.764 0 01.509-.212c.204 0 .305.106.509.212a.832.832 0 01.203.531c0 .212-.102.318-.203.53a.761.761 0 01-.509.212c-.203 0-.305-.106-.509-.212-.203-.106-.203-.318-.203-.53zM351.801 290.81v-3.079c0-1.168.916-2.123 2.036-2.123.916 0 1.73.637 1.934 1.592h.814c.203 0 .305-.106.407-.318a11.898 11.898 0 011.832-4.566c.102-.212.102-.424 0-.531l-.611-.637c-.712.425-1.628.425-2.239-.212-.407-.425-.712-.956-.712-1.486 0-.531.203-1.168.61-1.593l2.138-2.23c.407-.424.916-.637 1.425-.637s1.018.213 1.425.637c.407.425.61.956.61 1.487 0 .424-.101.743-.305 1.062l.611.637c.102.106.305.106.509 0a11.555 11.555 0 014.376-1.912c.204 0 .306-.212.306-.424v-.85c-.306-.106-.713-.318-.916-.53-.407-.425-.611-.956-.509-1.487 0-1.168.916-2.017 2.035-2.017h2.952c.509 0 1.018.212 1.425.637.407.424.611.955.509 1.486 0 .956-.611 1.699-1.527 1.911v.85c0 .212.102.318.306.424 1.628.319 3.053.956 4.376 1.912.204.106.407.106.509 0l.611-.637a1.849 1.849 0 01-.305-1.062c0-.531.203-1.062.61-1.487.815-.849 2.036-.849 2.85 0l2.138 2.23a2.115 2.115 0 010 2.973c-.407.425-.916.637-1.425.637-.407 0-.713-.106-1.018-.319l-.611.637c-.102.107-.102.319 0 .531.916 1.381 1.527 2.973 1.832 4.566 0 .212.204.318.407.318h.815c.203-.849 1.017-1.592 1.934-1.592 1.119 0 2.035.955 2.035 2.123v3.079c0 1.168-.916 2.124-2.035 2.124a1.979 1.979 0 01-1.934-1.593h-.815c-.203 0-.305.106-.407.319a11.893 11.893 0 01-1.832 4.565c-.102.212-.102.425 0 .531l.611.637c.814-.425 1.73-.319 2.443.318.814.85.814 2.124 0 2.973l-2.138 2.23c-.814.849-2.035.849-2.85 0a2.142 2.142 0 01-.61-1.486c0-.425.101-.744.305-1.062l-.611-.637c-.102-.106-.305-.106-.509 0a11.568 11.568 0 01-4.376 1.911c-.204 0-.306.212-.306.425v.849c.815.212 1.425.956 1.527 1.805 0 .531-.102 1.168-.509 1.593-.407.424-.916.637-1.425.637h-2.952c-.508 0-1.119-.213-1.425-.637-.407-.425-.61-1.062-.508-1.593.101-.849.712-1.593 1.526-1.805v-.849c0-.213-.101-.319-.305-.425a10.912 10.912 0 01-4.377-1.911c-.203-.106-.407-.106-.509 0l-.61.637c.203.318.305.637.305 1.062 0 .53-.204 1.061-.611 1.486-.407.425-.916.637-1.425.637s-1.018-.212-1.425-.637l-2.137-2.23c-.407-.424-.611-.955-.611-1.592 0-.531.306-1.168.713-1.487a1.934 1.934 0 012.239-.212l.611-.637c.101-.106.101-.319 0-.531-.916-1.38-1.527-2.973-1.832-4.565 0-.213-.204-.319-.408-.319h-.814c-.203.849-1.018 1.593-1.934 1.593-1.323-.107-2.239-1.062-2.239-2.124zm8.346-8.918c0 .318-.102.743-.305 1.061-.814 1.274-1.323 2.655-1.629 4.141-.203.849-.916 1.487-1.73 1.487h-1.221c-.407 0-.815-.425-.815-.85s-.305-.743-.712-.743-.713.318-.713.743v3.079c0 .425.306.743.713.743s.712-.318.712-.743.408-.849.815-.849h1.221c.814 0 1.527.637 1.73 1.486.306 1.487.815 2.867 1.629 4.141.509.743.407 1.699-.204 2.336l-.916.955a.774.774 0 01-1.119 0c-.204-.212-.611-.318-.916-.106a.83.83 0 00-.204.531.83.83 0 00.204.531l2.137 2.23a.761.761 0 00.509.212c.204 0 .305-.106.509-.212.305-.319.305-.744 0-.956a.86.86 0 010-1.168l.916-.955c.611-.638 1.527-.744 2.239-.213 1.222.85 2.545 1.38 3.97 1.699.814.212 1.425.956 1.425 1.805v1.38c0 .425-.407.85-.815.85-.407 0-.712.318-.712.637 0 .212 0 .424.204.53a.755.755 0 00.508.213h2.952a.757.757 0 00.509-.213.827.827 0 00.204-.53c0-.319-.306-.637-.713-.637s-.814-.425-.814-.85v-1.38c0-.849.611-1.593 1.425-1.805 1.425-.319 2.748-.849 3.969-1.699.713-.531 1.629-.425 2.24.213l.916.955c.305.319.305.849 0 1.274-.306.319-.306.743 0 .956.305.318.712.318.916 0l2.137-2.23c.306-.318.306-.743 0-.955-.305-.319-.712-.319-.916 0-.305.318-.814.318-1.221 0l-.916-.956c-.611-.637-.713-1.593-.204-2.336.814-1.274 1.323-2.654 1.629-4.141.203-.849.916-1.486 1.73-1.486h1.221c.407 0 .815.425.815.849 0 .425.305.744.712.744s.713-.319.713-.744v-3.079c0-.424-.306-.743-.713-.743s-.712.319-.712.743c0 .425-.408.85-.815.85h-1.221c-.814 0-1.527-.637-1.73-1.487-.306-1.486-.815-2.866-1.629-4.14a1.84 1.84 0 01.204-2.336l.916-.956c.203-.212.407-.212.61-.212.204 0 .408.106.611.212.305.319.713.319.916 0 .306-.318.306-.743 0-.955l-2.137-2.23c-.306-.319-.713-.319-.916 0a.827.827 0 00-.204.531c0 .212.102.318.204.531.305.318.305.849 0 1.274l-.916.955c-.611.637-1.527.744-2.24.213-1.221-.85-2.544-1.381-3.969-1.699-.814-.212-1.425-.956-1.425-1.805v-1.38c0-.425.407-.85.814-.85s.713-.318.713-.637c0-.212-.102-.318-.204-.531a.761.761 0 00-.509-.212h-3.155c-.407 0-.713.319-.713.637 0 .212.102.319.204.531a.761.761 0 00.509.212c.407 0 .814.425.814.85v1.274c0 .849-.611 1.592-1.425 1.805-1.425.318-2.748.849-3.969 1.698-.713.531-1.629.425-2.24-.212l-.916-.955a.86.86 0 010-1.168.832.832 0 00.204-.531c0-.213-.102-.319-.204-.531a.76.76 0 00-.509-.212c-.203 0-.305.106-.509.212l-2.137 2.23a.827.827 0 00-.204.53c0 .213.102.425.204.531.305.213.611.213.916-.106a.777.777 0 011.12 0l.916.956c.509.318.712.743.712 1.168z" fill="#416BE5" fill-opacity=".34"/><path d="M371.547 286.564c0-1.593 1.222-2.867 2.749-2.867 1.526 0 2.748 1.274 2.748 2.867s-1.222 2.867-2.748 2.867c-1.425 0-2.749-1.274-2.749-2.867zm4.275 0c0-.849-.61-1.486-1.425-1.486-.814 0-1.425.637-1.425 1.486s.611 1.486 1.425 1.486c.815 0 1.425-.637 1.425-1.486zM362.183 284.546c0-1.38 1.12-2.548 2.443-2.548s2.443 1.168 2.443 2.548c0 1.381-1.12 2.548-2.443 2.548-1.425 0-2.443-1.167-2.443-2.548zm3.461 0c0-.637-.509-1.168-1.12-1.168-.611 0-1.119.531-1.119 1.168 0 .637.508 1.168 1.119 1.168s1.12-.531 1.12-1.168zM362.794 294.101c0-2.123 1.526-4.034 3.664-4.247.407 0 .712.213.712.638 0 .424-.203.743-.61.743-1.425.212-2.443 1.38-2.443 2.866 0 1.593 1.221 2.867 2.748 2.867 1.425 0 2.646-1.062 2.748-2.548 0-.425.407-.637.713-.637.407 0 .61.425.61.743-.203 2.124-1.934 3.822-4.071 3.822-2.239 0-4.071-1.911-4.071-4.247zM373.685 293.146c0-.212.101-.318.203-.53a.757.757 0 01.509-.213c.203 0 .305.106.508.213a.827.827 0 01.204.53c0 .212-.102.319-.204.531a.759.759 0 01-.508.212c-.204 0-.305-.106-.509-.212a.829.829 0 01-.203-.531zM360.249 289.217c0-.212.102-.318.204-.53a.759.759 0 01.508-.212c.204 0 .306.106.509.212a.827.827 0 01.204.53c0 .213-.102.319-.204.531a.761.761 0 01-.509.212c-.203 0-.305-.106-.508-.212-.204-.212-.204-.318-.204-.531zM368.086 281.467c0-.212.102-.318.204-.531a.759.759 0 01.508-.212c.204 0 .306.106.509.212a.832.832 0 01.204.531c0 .212-.102.318-.204.531a.761.761 0 01-.509.212c-.203 0-.305-.106-.508-.212-.102-.213-.204-.425-.204-.531z" fill="#416BE5" fill-opacity=".34"/><path d="M368.698 291.553c0-.212.101-.318.203-.53a.761.761 0 01.509-.212c.203 0 .305.106.508.212a.827.827 0 01.204.53c0 .213-.102.319-.204.531a.759.759 0 01-.508.212c-.204 0-.306-.106-.509-.212-.102-.212-.203-.424-.203-.531zM140.452 220.787c2.473 0 4.478-2.091 4.478-4.672 0-2.58-2.005-4.671-4.478-4.671-2.474 0-4.479 2.091-4.479 4.671 0 2.581 2.005 4.672 4.479 4.672zM4.478 238.999c2.474 0 4.479-2.092 4.479-4.672 0-2.58-2.005-4.672-4.479-4.672-2.473 0-4.478 2.092-4.478 4.672 0 2.58 2.005 4.672 4.478 4.672zM155.868 278.069c1.405 0 2.545-1.188 2.545-2.654s-1.14-2.655-2.545-2.655-2.545 1.189-2.545 2.655c0 1.466 1.14 2.654 2.545 2.654zM29.008 207.405c1.405 0 2.544-1.188 2.544-2.654s-1.139-2.654-2.544-2.654c-1.406 0-2.545 1.188-2.545 2.654s1.14 2.654 2.545 2.654zM16.392 270.397c1.406 0 2.545-1.189 2.545-2.655 0-1.466-1.14-2.654-2.545-2.654s-2.544 1.188-2.544 2.654 1.139 2.655 2.544 2.655z" fill="#416BE5" fill-opacity=".34"/><path d="M340.706 205.233l14.046 13.803-9.465 18.687M373.074 213.091l-18.321 5.946" stroke="#BECEFE" stroke-miterlimit="10"/><path d="M352.615 223.178c-2.239-1.168-3.053-4.035-1.832-6.371 1.12-2.336 3.868-3.185 6.107-1.911 2.24 1.274 3.054 4.035 1.832 6.37-1.119 2.23-3.867 3.186-6.107 1.912zM343.15 241.97c-2.24-1.168-3.054-4.035-1.833-6.371 1.12-2.336 3.868-3.185 6.107-1.911 2.24 1.274 3.054 4.035 1.833 6.37-1.222 2.23-3.97 3.079-6.107 1.912zM370.936 217.337c-2.239-1.168-3.053-4.034-1.832-6.37 1.12-2.336 3.868-3.185 6.107-1.911 2.239 1.274 3.054 4.034 1.832 6.37-1.119 2.23-3.867 3.079-6.107 1.911zM338.671 209.375c-2.24-1.168-3.054-4.035-1.833-6.371 1.222-2.335 3.868-3.185 6.107-1.911 2.24 1.168 3.054 4.035 1.833 6.371-1.222 2.229-3.97 3.185-6.107 1.911z" fill="#BECEFE"/><path d="M153.324 178.372l.508 11.892-11.399 3.822M164.011 195.572l-10.179-5.308" stroke="#E7F1FB" stroke-width=".534" stroke-miterlimit="10"/><path d="M151.288 191.113c-.509-1.487.305-3.079 1.73-3.504 1.425-.531 2.952.319 3.359 1.805.407 1.486-.305 3.079-1.73 3.504-1.324.424-2.85-.319-3.359-1.805zM139.888 195.042c-.509-1.487.305-3.08 1.73-3.504 1.425-.531 2.952.318 3.359 1.805.407 1.486-.305 3.079-1.73 3.503-1.425.425-2.85-.424-3.359-1.804zM161.466 196.421c-.509-1.486.305-3.079 1.73-3.503 1.425-.531 2.952.318 3.359 1.805.407 1.486-.305 3.079-1.73 3.503-1.425.425-2.952-.318-3.359-1.805zM150.779 179.221c-.509-1.486.305-3.079 1.73-3.503 1.425-.425 2.952.318 3.359 1.805.407 1.486-.306 3.079-1.731 3.503-1.424.425-2.849-.318-3.358-1.805zM225.182 126.559c-.102 0-.204 0-.305-.106-.408-.213-8.856-4.035-8.856-11.892v-6.689c0-.318.204-.637.509-.743l8.448-2.973c.204-.106.306-.106.509 0l8.448 2.973c.306.106.509.425.509.743v6.689c0 7.857-8.55 11.679-8.855 11.892-.204 0-.305.106-.407.106zm-7.736-18.05v6.052c0 6.052 6.209 9.556 7.634 10.299 1.425-.743 7.634-4.247 7.634-10.299v-6.052l-7.634-2.654-7.634 2.654zM225.895 100.971h-23.003c-2.952 0-5.395-2.548-5.395-5.627 0-3.08 2.443-5.628 5.395-5.628h23.003c2.951 0 5.394 2.549 5.394 5.628s-2.443 5.627-5.394 5.627zm-23.003-9.556c-2.138 0-3.868 1.805-3.868 4.035 0 2.23 1.73 4.034 3.868 4.034h23.003c2.137 0 3.867-1.805 3.867-4.034 0-2.23-1.73-4.035-3.867-4.035h-23.003z" fill="#416BE5" fill-opacity=".34"/><path d="M204.418 97.785c-1.221 0-2.341-1.061-2.341-2.442 0-1.38 1.018-2.442 2.341-2.442 1.323 0 2.341 1.062 2.341 2.442 0 1.38-1.018 2.442-2.341 2.442zm0-3.185a.82.82 0 00-.814.85c0 .53.305.849.814.849.509 0 .814-.319.814-.85a.82.82 0 00-.814-.849zM212.153 97.785c-1.221 0-2.341-1.061-2.341-2.442 0-1.38 1.018-2.442 2.341-2.442 1.222 0 2.341 1.062 2.341 2.442 0 1.38-1.119 2.442-2.341 2.442zm0-3.185a.82.82 0 00-.814.85c0 .53.305.849.814.849a.82.82 0 00.815-.85.82.82 0 00-.815-.849zM212.154 110.527h-9.161c-2.952 0-5.394-2.549-5.394-5.628 0-1.486.509-2.866 1.526-3.928 1.018-1.062 2.341-1.593 3.766-1.593h23.003c1.222 0 2.341.425 3.257 1.168.306.319.408.744.102 1.168-.305.319-.712.425-1.119.106-.713-.53-1.425-.849-2.341-.849H202.79c-1.018 0-1.934.425-2.749 1.168-.712.743-1.119 1.805-1.119 2.867 0 2.229 1.73 4.034 3.868 4.034h9.16a.82.82 0 01.814.85c0 .53-.203.637-.61.637z" fill="#416BE5" fill-opacity=".34"/><path d="M204.418 107.342c-1.221 0-2.341-1.062-2.341-2.442 0-1.381 1.018-2.442 2.341-2.442 1.323 0 2.341 1.061 2.341 2.442 0 1.38-1.018 2.442-2.341 2.442zm0-3.186a.82.82 0 00-.814.85c0 .531.305.849.814.849.509 0 .814-.318.814-.849a.82.82 0 00-.814-.85zM212.153 107.342c-1.221 0-2.341-1.062-2.341-2.442 0-1.381 1.018-2.442 2.341-2.442 1.222 0 2.341 1.061 2.341 2.442 0 1.38-1.119 2.442-2.341 2.442zm0-3.186a.82.82 0 00-.814.85c0 .531.305.849.814.849a.82.82 0 00.815-.849.82.82 0 00-.815-.85zM212.154 120.082h-9.161c-2.952 0-5.394-2.548-5.394-5.627 0-1.486.509-2.867 1.526-3.928 1.018-1.062 2.341-1.593 3.766-1.593h9.161a.82.82 0 01.814.849c0 .531-.305.85-.814.85h-9.161c-1.017 0-1.934.425-2.748 1.168-.712.743-1.119 1.805-1.119 2.866 0 2.23 1.73 4.035 3.867 4.035h9.161a.82.82 0 01.814.849c0 .531-.305.531-.712.531z" fill="#416BE5" fill-opacity=".34"/><path d="M204.418 116.897c-1.221 0-2.341-1.062-2.341-2.442 0-1.38 1.018-2.442 2.341-2.442 1.323 0 2.341 1.062 2.341 2.442 0 1.38-1.018 2.442-2.341 2.442zm0-3.185a.82.82 0 00-.814.849c0 .531.305.85.814.85.509 0 .814-.319.814-.85a.82.82 0 00-.814-.849zM212.153 116.897c-1.221 0-2.341-1.062-2.341-2.442 0-1.38 1.018-2.442 2.341-2.442 1.222 0 2.341 1.062 2.341 2.442 0 1.38-1.119 2.442-2.341 2.442zm0-3.185a.82.82 0 00-.814.849c0 .531.305.85.814.85a.82.82 0 00.815-.85.82.82 0 00-.815-.849zM227.93 113.075v-1.274c0-1.593-1.221-2.973-2.85-2.973-1.526 0-2.849 1.274-2.849 2.973v1.274c-.509 0-.917.424-.917.955v4.566c0 .53.408.955.917.955h5.699c.509 0 .916-.425.916-.955v-4.566c.102-.531-.305-.955-.916-.955zm-2.442 3.397v1.168c0 .212-.102.319-.306.319-.203 0-.305-.107-.305-.319v-1.168c-.305-.106-.509-.425-.509-.849a.82.82 0 01.814-.85c.509 0 .815.425.815.85 0 .424-.204.743-.509.849zm1.221-3.397h-3.155v-1.274c0-.956.712-1.593 1.526-1.593.917 0 1.527.743 1.527 1.593v1.274h.102zM350.478 77.931c-.305.319-.305.955 0 1.274.305.318.916.318 1.221 0 .305-.319.305-.956 0-1.274-.305-.318-.814-.318-1.221 0z" fill="#416BE5" fill-opacity=".34"/><path d="M364.117 57.652c-1.425 1.168-1.832 1.805-7.023 7.114l-3.155-.531 1.425-1.486a2.774 2.774 0 000-3.823 2.505 2.505 0 00-3.664 0l-4.072 4.247-14.148-2.442c-.916-.106-1.832.213-2.544.85-1.222 1.274-1.12 3.503.305 4.565l14.046 10.617-2.646 2.761c-.916.956-1.832 2.23-2.85 3.822l-6.514-2.017c-1.018-.319-2.036 0-2.748.743-1.222 1.274-1.018 3.398.407 4.353l5.394 3.929c-.916 2.123-1.527 3.716-1.527 3.822-.101.319 0 .743.204.956.204.212.611.318.916.212.102 0 1.527-.637 3.664-1.593l3.766 5.627c1.018 1.487 3.054 1.699 4.173.425a2.93 2.93 0 00.713-2.867l-1.934-6.795c1.527-1.061 2.748-2.017 3.664-2.973l2.647-2.76 10.178 14.652c1.018 1.486 3.155 1.699 4.377.319.61-.638.916-1.7.814-2.655l-2.341-14.758 4.071-4.247a2.774 2.774 0 000-3.822 2.506 2.506 0 00-3.664 0l-1.425 1.486-.509-3.291c5.191-5.415 5.7-5.84 6.82-7.326 2.646-3.61 3.257-7.114 1.526-8.919-1.526-1.592-4.987-.955-8.346 1.805zm-11.196 2.655c.305-.319.916-.319 1.221 0 .306.318.306.955 0 1.274l-2.341 2.442-2.035-.319 3.155-3.397zm-20.459 4.459c-.61-.425-.61-1.274-.101-1.805.305-.319.61-.425 1.018-.319l22.29 3.823-8.855 9.237-14.352-10.936zm-.508 18.686c.305-.318.712-.424 1.017-.318l6.107 1.911c-.61 1.168-1.221 2.442-1.934 3.822l-5.19-3.716c-.408-.424-.509-1.274 0-1.699zm14.453 15.077c-.509.531-1.222.425-1.629-.106l-3.562-5.415c1.323-.637 2.544-1.274 3.664-2.017l1.832 6.37c.102.531 0 .956-.305 1.168zm21.069-23.146c.305-.318.916-.318 1.221 0 .306.319.306.956 0 1.274l-3.155 3.292-.305-2.124 2.239-2.442zm-1.018 21.766c.102.424-.102.743-.305 1.062-.509.53-1.323.424-1.731-.107L354.041 83.24l8.855-9.237 3.562 23.146zM348.85 85.894c-.916.956-2.341 2.018-4.072 3.186-2.341 1.486-4.987 2.76-7.532 3.928 1.12-2.654 2.443-5.521 3.766-7.963 1.018-1.805 2.036-3.185 2.952-4.14 20.866-21.66 19.644-20.598 20.866-21.66 1.425-.106 2.646.318 3.46 1.274.815.85 1.323 2.23 1.222 3.61-.916 1.274.203 0-20.662 21.765zm22.29-24.1c-.305-.956-.712-1.806-1.425-2.55-.712-.742-1.527-1.167-2.443-1.486 1.222-.637 3.359-1.38 4.275-.424.713.743.509 2.548-.407 4.46z" fill="#416BE5" fill-opacity=".34"/><path d="M355.363 72.835l-2.443 2.548c-.305.318-.305.955 0 1.274.306.318.916.318 1.222 0l2.443-2.548c.305-.319.305-.956 0-1.274-.306-.319-.916-.319-1.222 0zM360.147 67.844l-2.443 2.549c-.305.318-.305.955 0 1.274.305.318.916.318 1.221 0l2.443-2.549c.306-.318.306-.955 0-1.274-.305-.318-.814-.318-1.221 0z" fill="#416BE5" fill-opacity=".34"/><path stroke="#BECDF6" stroke-width=".534" d="M23.919 243.824h156.1M289.436 223.578h22.603M287.652 241.207h35.689M283.488 257.681h53.533"/></g></svg>