<svg width="58" height="81" fill="none" xmlns="http://www.w3.org/2000/svg"><path d="M17.139 80.089v-26.59h.805v25.138l.765-.478 8.667-5.416.235-.147V54.22h.806v18.902l-11.278 6.966zM29.778 73.123V54.22h.805v18.375l.235.147 8.667 5.416.765.478V53.5h.806v26.59l-11.278-6.966z" stroke="#4668FF"/><mask id="a" fill="#fff"><path d="M36.861 56.61c-1.444 0-2.708-.541-4.153-1.264-1.264-.541-2.527-1.083-3.61-1.083-1.084 0-2.348.542-3.612 1.083-1.806.723-3.792 1.625-5.417 1.084-1.805-.542-2.889-2.347-3.791-4.153-.722-1.264-1.264-2.347-2.167-2.889-.903-.542-2.167-.903-3.43-1.083-1.987-.361-3.973-.903-5.056-2.347-1.083-1.445-.903-3.612-.722-5.598.18-1.264.36-2.708 0-3.61-.361-.904-1.084-1.806-1.986-2.89C1.472 32.416.208 30.79.208 28.805c0-1.986 1.445-3.43 2.709-5.056.902-1.083 1.805-1.986 1.986-2.889.36-.902.18-2.347 0-3.61-.18-1.987-.361-3.973.722-5.598s3.07-1.986 5.056-2.347c1.263-.361 2.708-.542 3.43-1.084.722-.541 1.444-1.625 2.167-2.888 1.083-1.806 1.986-3.612 3.791-4.153 1.625-.542 3.611.18 5.417 1.083 1.264.542 2.528 1.083 3.611 1.083 1.083 0 2.347-.541 3.611-1.083C34.514 1.541 36.5.638 38.125 1.18c1.806.541 2.889 2.347 3.792 4.153.722 1.263 1.264 2.347 2.166 2.888.903.542 2.167.903 3.43 1.084 1.987.36 3.973.902 5.056 2.347 1.084 1.444.903 3.611.723 5.597-.18 1.264-.361 2.709 0 3.611.36.903 1.083 1.806 1.986 2.89 1.444 1.444 2.708 3.069 2.708 5.055 0 1.986-1.444 3.43-2.708 5.055-.903 1.084-1.806 1.986-1.986 2.89-.361.902-.18 2.346 0 3.61.18 1.986.36 3.973-.723 5.598s-3.069 1.986-5.055 2.347c-1.264.36-2.709.541-3.43 1.083-.723.542-1.445 1.625-2.167 2.889-1.084 1.806-1.986 3.611-3.792 4.153-.361.18-.903.18-1.264.18zm-7.764-4.152c1.445 0 2.89.722 4.334 1.263 1.625.723 3.069 1.264 4.152.903 1.084-.36 1.986-1.805 2.89-3.25.721-1.264 1.444-2.708 2.708-3.43 1.083-.903 2.708-1.084 4.152-1.445 1.625-.36 3.25-.722 3.973-1.625.722-.903.541-2.528.36-4.333-.18-1.445-.36-3.07.181-4.514.361-1.264 1.445-2.347 2.528-3.611 1.264-1.264 2.347-2.528 2.347-3.792 0-1.264-1.083-2.528-2.347-3.791-1.083-1.084-1.986-2.167-2.528-3.612-.36-1.444-.36-2.889-.18-4.514.18-1.625.36-3.25-.361-4.333-.723-.903-2.348-1.264-3.973-1.625-1.444-.36-3.07-.722-4.152-1.444-1.084-.903-1.806-2.167-2.709-3.43-.903-1.445-1.625-2.89-2.889-3.25-1.083-.362-2.527.36-4.152.902-1.445.542-2.89 1.264-4.334 1.264-1.444 0-2.889-.722-4.333-1.264-1.625-.722-3.07-1.264-4.153-.903-1.083.361-1.986 1.806-2.889 3.25-.722 1.264-1.444 2.709-2.708 3.43-1.083.903-2.708 1.084-4.153 1.445-1.625.361-3.25.722-3.972 1.625s-.542 2.528-.361 4.333c.18 1.445.36 3.07-.18 4.514-.362 1.264-1.445 2.348-2.529 3.611-.902 1.445-1.986 2.709-1.986 3.973 0 1.264 1.084 2.527 2.348 3.791 1.083 1.084 1.986 2.167 2.527 3.612.361 1.444.361 2.888.18 4.513-.18 1.625-.36 3.25.362 4.334.722.903 2.347 1.264 3.972 1.625 1.445.36 3.07.722 4.153 1.444 1.083.903 1.805 2.167 2.708 3.43.903 1.445 1.625 2.89 2.89 3.25 1.082.362 2.527-.36 4.152-.902 1.083-.722 2.528-1.444 3.972-1.444z"/></mask><path d="M36.861 56.61c-1.444 0-2.708-.541-4.153-1.264-1.264-.541-2.527-1.083-3.61-1.083-1.084 0-2.348.542-3.612 1.083-1.806.723-3.792 1.625-5.417 1.084-1.805-.542-2.889-2.347-3.791-4.153-.722-1.264-1.264-2.347-2.167-2.889-.903-.542-2.167-.903-3.43-1.083-1.987-.361-3.973-.903-5.056-2.347-1.083-1.445-.903-3.612-.722-5.598.18-1.264.36-2.708 0-3.61-.361-.904-1.084-1.806-1.986-2.89C1.472 32.416.208 30.79.208 28.805c0-1.986 1.445-3.43 2.709-5.056.902-1.083 1.805-1.986 1.986-2.889.36-.902.18-2.347 0-3.61-.18-1.987-.361-3.973.722-5.598s3.07-1.986 5.056-2.347c1.263-.361 2.708-.542 3.43-1.084.722-.541 1.444-1.625 2.167-2.888 1.083-1.806 1.986-3.612 3.791-4.153 1.625-.542 3.611.18 5.417 1.083 1.264.542 2.528 1.083 3.611 1.083 1.083 0 2.347-.541 3.611-1.083C34.514 1.541 36.5.638 38.125 1.18c1.806.541 2.889 2.347 3.792 4.153.722 1.263 1.264 2.347 2.166 2.888.903.542 2.167.903 3.43 1.084 1.987.36 3.973.902 5.056 2.347 1.084 1.444.903 3.611.723 5.597-.18 1.264-.361 2.709 0 3.611.36.903 1.083 1.806 1.986 2.89 1.444 1.444 2.708 3.069 2.708 5.055 0 1.986-1.444 3.43-2.708 5.055-.903 1.084-1.806 1.986-1.986 2.89-.361.902-.18 2.346 0 3.61.18 1.986.36 3.973-.723 5.598s-3.069 1.986-5.055 2.347c-1.264.36-2.709.541-3.43 1.083-.723.542-1.445 1.625-2.167 2.889-1.084 1.806-1.986 3.611-3.792 4.153-.361.18-.903.18-1.264.18zm-7.764-4.152c1.445 0 2.89.722 4.334 1.263 1.625.723 3.069 1.264 4.152.903 1.084-.36 1.986-1.805 2.89-3.25.721-1.264 1.444-2.708 2.708-3.43 1.083-.903 2.708-1.084 4.152-1.445 1.625-.36 3.25-.722 3.973-1.625.722-.903.541-2.528.36-4.333-.18-1.445-.36-3.07.181-4.514.361-1.264 1.445-2.347 2.528-3.611 1.264-1.264 2.347-2.528 2.347-3.792 0-1.264-1.083-2.528-2.347-3.791-1.083-1.084-1.986-2.167-2.528-3.612-.36-1.444-.36-2.889-.18-4.514.18-1.625.36-3.25-.361-4.333-.723-.903-2.348-1.264-3.973-1.625-1.444-.36-3.07-.722-4.152-1.444-1.084-.903-1.806-2.167-2.709-3.43-.903-1.445-1.625-2.89-2.889-3.25-1.083-.362-2.527.36-4.152.902-1.445.542-2.89 1.264-4.334 1.264-1.444 0-2.889-.722-4.333-1.264-1.625-.722-3.07-1.264-4.153-.903-1.083.361-1.986 1.806-2.889 3.25-.722 1.264-1.444 2.709-2.708 3.43-1.083.903-2.708 1.084-4.153 1.445-1.625.361-3.25.722-3.972 1.625s-.542 2.528-.361 4.333c.18 1.445.36 3.07-.18 4.514-.362 1.264-1.445 2.348-2.529 3.611-.902 1.445-1.986 2.709-1.986 3.973 0 1.264 1.084 2.527 2.348 3.791 1.083 1.084 1.986 2.167 2.527 3.612.361 1.444.361 2.888.18 4.513-.18 1.625-.36 3.25.362 4.334.722.903 2.347 1.264 3.972 1.625 1.445.36 3.07.722 4.153 1.444 1.083.903 1.805 2.167 2.708 3.43.903 1.445 1.625 2.89 2.89 3.25 1.082.362 2.527-.36 4.152-.902 1.083-.722 2.528-1.444 3.972-1.444z" fill="#4668FF"/><path d="M32.708 55.346l1.342-2.683-.079-.04-.08-.034-1.183 2.757zm-7.222 0l1.114 2.786.034-.014.034-.014-1.182-2.758zM20.07 56.43l.95-2.846-.044-.015-.044-.013-.862 2.874zm-3.791-4.153l2.683-1.342-.037-.074-.041-.072-2.605 1.488zm-5.597-3.972l-.537 2.951.056.01.056.009.425-2.97zM4.903 40.36l-2.97-.424-.011.076-.007.077 2.988.271zm-1.986-6.5l2.304-1.92-.087-.105-.096-.096-2.121 2.121zm0-10.11L.612 21.828l-.032.038-.031.04 2.368 1.842zm1.986-2.89l-2.786-1.114-.102.256-.054.27 2.942.588zm0-3.61l-2.988.27.007.077.01.076 2.97-.424zm5.778-7.945l.536 2.951.146-.026.142-.04-.825-2.885zm5.597-3.972l-2.573-1.544-.016.027-.016.028 2.605 1.489zm3.791-4.153l.863 2.873.043-.013.043-.014-.949-2.846zm5.417 1.083l-1.341 2.683.078.04.081.035 1.182-2.758zm7.222 0L31.594-.522l-.034.013-.033.015 1.181 2.757zm5.417-1.083l-.949 2.846.043.014.044.013.862-2.873zm3.792 4.153l-2.684 1.341.038.075.04.072 2.606-1.488zm5.597 3.972l.536-2.952-.055-.01-.057-.008-.424 2.97zm5.778 7.944l2.97.425.01-.077.007-.076-2.987-.272zm1.986 6.5l-2.305 1.92.087.105.096.096 2.122-2.12zm0 10.111l2.304 1.92.033-.038.03-.04-2.367-1.842zm-1.986 2.89l2.785 1.113.102-.255.054-.27-2.941-.589zm0 3.61l2.987-.271-.007-.077-.01-.076-2.97.424zm-5.778 7.945l-.537-2.952-.145.027-.142.04.824 2.885zm-5.597 3.972l2.572 1.544.017-.028.015-.028-2.604-1.488zm-3.792 4.153l-.862-2.874-.248.075-.232.115 1.342 2.684zm-4.694-2.709l1.218-2.741-.082-.036-.083-.032-1.053 2.81zm7.041-2.347l2.544 1.59.032-.05.029-.051-2.605-1.489zm2.709-3.43l1.488 2.604.23-.13.202-.17-1.92-2.304zm4.152-1.445l-.65-2.928-.039.008-.038.01.727 2.91zm4.334-5.958l2.985-.299-.004-.036-.005-.037-2.976.372zm.18-4.514l2.81 1.053.042-.113.033-.116-2.885-.824zm2.528-3.611l-2.121-2.121-.082.081-.075.087 2.278 1.953zM51.847 21.22l-2.91.728.041.166.06.16 2.81-1.054zm-.541-8.847l2.496-1.664-.072-.108-.082-.102-2.343 1.874zm-3.973-1.625l-.727 2.91.038.01.038.009.651-2.929zm-4.152-1.444l-1.921 2.304.123.103.133.089 1.665-2.496zm-2.709-3.43l-2.544 1.59.05.078.053.075 2.441-1.744zm-2.889-3.25l-.948 2.845.062.02.062.019.824-2.885zm-4.152.902L32.48.681l-.052.017-.052.02 1.053 2.809zm-8.667 0l-1.218 2.741.081.037.084.031 1.053-2.809zm-7.042 2.347l-2.544-1.59-.031.05-.03.052 2.605 1.488zm-2.708 3.43L13.525 6.7l-.229.131-.203.17 1.92 2.304zM10.86 10.75l.65 2.929.04-.009.038-.01-.728-2.91zm-4.333 5.958l-2.985.299.003.037.005.037 2.977-.372zm-.18 4.514l-2.81-1.053-.042.113-.033.116 2.884.824zm-2.529 3.611L1.542 22.88l-.147.171-.12.192 2.544 1.59zm2.89 11.376l2.91-.728-.042-.166-.06-.16-2.809 1.053zm.541 8.847l-2.496 1.664.072.108.081.102 2.343-1.874zm3.972 1.625l.728-2.91-.038-.01-.039-.009-.65 2.929zm4.153 1.444l1.92-2.305-.123-.102-.133-.089-1.664 2.496zm2.708 3.43l2.544-1.59-.049-.078-.053-.075-2.442 1.744zm2.89 3.25l.948-2.845-.062-.02-.063-.019-.824 2.885zm4.152-.902l.949 2.846.38-.127.335-.223-1.664-2.496zm11.736-.292c-.68 0-1.39-.236-2.811-.947l-2.683 5.367c1.468.734 3.285 1.58 5.494 1.58v-6zm-2.97-1.021c-.608-.26-1.358-.584-2.107-.833-.742-.248-1.68-.493-2.687-.493v6c.077 0 .312.026.79.185.469.156.983.374 1.64.656l2.363-5.515zm-4.794-1.326c-1.007 0-1.945.245-2.686.493-.75.25-1.5.573-2.107.833l2.364 5.515c.657-.282 1.17-.5 1.64-.656.477-.16.713-.185.79-.185v-6zm-4.725 1.298c-1.014.405-1.735.715-2.44.904-.694.186-.917.118-.914.119l-1.897 5.692c1.628.543 3.21.294 4.366-.016 1.147-.308 2.321-.811 3.113-1.128l-2.228-5.571zm-3.44.995c-.15-.044-.404-.175-.775-.628-.388-.475-.764-1.128-1.196-1.993l-5.366 2.684c.47.94 1.087 2.093 1.918 3.108.848 1.036 2.038 2.08 3.694 2.576l1.724-5.747zm-2.05-2.767c-.302-.53-.714-1.29-1.141-1.917-.452-.663-1.105-1.468-2.086-2.056l-3.087 5.145c-.079-.047-.01-.04.216.29.25.367.47.78.889 1.514l5.21-2.977zm-3.227-3.973c-1.38-.828-3.081-1.271-4.55-1.481l-.849 5.94c1.059.15 1.885.43 2.312.686l3.087-5.145zm-4.438-1.463c-2.078-.378-2.896-.8-3.192-1.196l-4.8 3.6c1.87 2.494 5.025 3.155 6.919 3.5l1.073-5.904zm-3.192-1.196c-.056-.074-.195-.324-.242-1.004-.049-.69.014-1.49.107-2.521l-5.975-.543c-.087.955-.205 2.232-.118 3.482.088 1.261.4 2.817 1.428 4.187l4.8-3.6zm-.152-3.372c.09-.628.202-1.449.231-2.259.027-.754.001-1.849-.416-2.891l-5.57 2.228c-.04-.098-.03-.12-.02-.018.011.096.018.248.01.467-.016.454-.084.987-.175 1.624l5.94.849zm-.185-5.15c-.57-1.424-1.632-2.694-2.467-3.695L.612 35.78c.971 1.166 1.353 1.702 1.505 2.083l5.571-2.228zm-2.65-3.896c-1.397-1.397-1.83-2.256-1.83-2.934h-6c0 3.294 2.095 5.684 3.587 7.177l4.243-4.243zm-1.83-2.934c0-.214.064-.508.409-1.048.421-.66.874-1.146 1.668-2.166L.549 21.907c-.47.605-1.372 1.654-1.989 2.62-.693 1.084-1.352 2.506-1.352 4.278h6zm2.013-3.135c.326-.39.94-1.082 1.346-1.615.426-.559 1.048-1.46 1.277-2.606l-5.883-1.177c.049-.244.13-.242-.167.147-.127.167-.285.357-.493.6-.191.224-.448.52-.689.81l4.61 3.84zm2.467-3.696c.417-1.042.443-2.136.416-2.89-.029-.81-.142-1.632-.231-2.26l-5.94.85c.09.636.159 1.17.175 1.623.008.22.001.372-.01.468-.01.102-.02.08.02-.019l5.57 2.229zm.202-4.996c-.203-2.237-.162-3.073.231-3.662L3.13 9.988c-1.774 2.66-1.372 5.797-1.214 7.533l5.975-.543zm.231-3.662c.095-.143.269-.319.77-.512.57-.218 1.272-.356 2.326-.548l-1.073-5.903c-.932.17-2.215.393-3.407.851-1.259.485-2.62 1.301-3.608 2.784l4.992 3.328zm3.384-1.127c.667-.19.927-.216 1.847-.454.6-.156 1.675-.45 2.56-1.114l-3.6-4.8c.12-.09.173-.096.06-.053-.105.04-.27.092-.526.159-.26.067-.531.13-.883.212-.33.077-.717.17-1.107.281l1.649 5.77zm4.406-1.568c1.288-.965 2.28-2.591 2.972-3.8l-5.21-2.977a16.07 16.07 0 01-.905 1.44 4.831 4.831 0 01-.33.41c-.089.099-.132.131-.127.127l3.6 4.8zm2.94-3.745c.63-1.052.977-1.69 1.408-2.237.371-.471.574-.556.672-.586l-1.724-5.747c-1.707.512-2.858 1.601-3.66 2.62-.743.941-1.39 2.11-1.842 2.863l5.145 3.087zm2.167-2.85c.084-.028.366-.082.981.068.608.149 1.326.442 2.146.852L26.828-.42c-.986-.493-2.165-1.012-3.407-1.315-1.235-.301-2.759-.445-4.3.069l1.897 5.692zm3.286.995c.607.26 1.357.583 2.107.833.741.247 1.68.492 2.686.492v-6c-.076 0-.312-.025-.789-.184-.47-.157-.983-.375-1.64-.656L24.304 5.02zm4.793 1.325c1.007 0 1.945-.245 2.687-.492.75-.25 1.5-.573 2.106-.833L31.527-.494c-.657.281-1.171.5-1.64.656-.478.159-.713.184-.79.184v6zm4.725-1.297c1.014-.406 1.735-.715 2.44-.904.694-.186.918-.118.914-.12l1.898-5.691c-1.629-.543-3.21-.294-4.367.016-1.146.307-2.32.81-3.113 1.128l2.228 5.57zm3.44-.996c.15.045.404.175.776.629.388.474.763 1.128 1.195 1.992L44.6 3.991c-.47-.941-1.088-2.093-1.919-3.109-.847-1.035-2.037-2.079-3.694-2.576l-1.724 5.747zm2.05 2.768c.303.53.715 1.29 1.142 1.917.451.663 1.105 1.467 2.086 2.056l3.087-5.145c.078.047.01.04-.216-.291-.25-.367-.47-.78-.89-1.514l-5.21 2.977zm3.228 3.973c1.379.827 3.08 1.27 4.55 1.48l.848-5.94c-1.058-.15-1.885-.43-2.311-.685l-3.087 5.145zm4.437 1.462c2.079.378 2.896.8 3.192 1.196l4.8-3.6c-1.87-2.494-5.025-3.155-6.919-3.499l-1.073 5.903zm3.192 1.196c.056.075.195.325.243 1.004.048.691-.014 1.49-.108 2.522l5.975.543c.087-.955.205-2.232.118-3.482-.088-1.261-.4-2.817-1.428-4.187l-4.8 3.6zm.153 3.373c-.09.627-.203 1.448-.232 2.258-.027.755 0 1.85.416 2.892l5.571-2.229c.04.099.03.121.019.019a3.369 3.369 0 01-.01-.468c.017-.454.085-.987.175-1.623l-5.94-.85zm.184 5.15c.57 1.424 1.633 2.693 2.467 3.695l4.61-3.841c-.972-1.166-1.353-1.702-1.506-2.083l-5.57 2.229zm2.65 3.895c1.397 1.397 1.83 2.257 1.83 2.935h6c0-3.294-2.095-5.685-3.587-7.177l-4.243 4.242zm1.83 2.935c0 .214-.063.508-.408 1.048-.422.66-.875 1.145-1.668 2.166l4.736 3.683c.47-.604 1.371-1.654 1.988-2.619.693-1.085 1.352-2.506 1.352-4.278h-6zm-2.013 3.135c-.325.39-.94 1.082-1.345 1.614-.426.56-1.049 1.46-1.278 2.607l5.883 1.176c-.048.244-.13.243.167-.146.127-.167.285-.357.493-.601.191-.224.449-.52.69-.81l-4.61-3.84zm-2.467 3.695c-.417 1.042-.443 2.137-.416 2.891.03.81.142 1.631.232 2.259l5.94-.849c-.091-.637-.16-1.17-.175-1.624a3.369 3.369 0 01.009-.467c.011-.103.02-.08-.019.018l-5.57-2.228zm-.202 4.997c.203 2.237.162 3.072-.23 3.661l4.992 3.329c1.774-2.661 1.371-5.798 1.213-7.533l-5.975.543zm-.23 3.661c-.096.143-.27.32-.77.512-.57.219-1.272.356-2.327.548l1.074 5.903c.931-.169 2.215-.393 3.406-.85 1.26-.485 2.62-1.302 3.609-2.784l-4.993-3.329zM46.69 45.42c-.668.19-.928.216-1.847.455-.601.156-1.675.45-2.56 1.113l3.6 4.8c-.121.091-.174.097-.06.053.105-.04.269-.092.525-.158.261-.068.532-.13.884-.212.33-.078.716-.17 1.106-.282L46.69 45.42zm-4.407 1.568c-1.287.966-2.28 2.592-2.971 3.8l5.21 2.977c.337-.59.636-1.07.904-1.439.132-.181.242-.316.33-.411.09-.099.133-.131.127-.127l-3.6-4.8zm-2.939 3.745c-.63 1.052-.977 1.69-1.409 2.238-.371.47-.574.556-.672.585l1.724 5.747c1.707-.512 2.859-1.6 3.661-2.62.742-.94 1.389-2.109 1.841-2.862l-5.145-3.087zm-2.56 3.014a1.833 1.833 0 01.35-.132c.056-.013.08-.014.06-.012a1.637 1.637 0 01-.113.005 8.135 8.135 0 01-.22.002v6c.164 0 .534.002.93-.037.364-.037 1.014-.13 1.676-.46l-2.684-5.367zm-7.687 1.71c.24 0 .6.063 1.192.266.726.25 1.105.439 2.088.807l2.107-5.618c-.462-.173-1.527-.616-2.245-.863-.853-.293-1.938-.591-3.142-.591v6zm3.115 1.006c.823.365 1.787.773 2.748 1.02.941.244 2.236.433 3.572-.013l-1.897-5.692c.252-.084.283.015-.175-.104-.438-.113-1.009-.337-1.811-.694l-2.437 5.483zm6.32 1.007c1.378-.46 2.325-1.47 2.897-2.18.61-.755 1.16-1.643 1.587-2.326l-5.088-3.18c-.476.762-.829 1.318-1.166 1.736a2.541 2.541 0 01-.315.34c-.051.043.011-.023.188-.082l1.897 5.692zm4.545-4.607c.423-.74.678-1.223 1-1.68.298-.424.492-.577.592-.635l-2.977-5.21c-1.164.666-1.963 1.596-2.522 2.391-.536.761-1.003 1.633-1.303 2.157l5.21 2.977zm2.024-2.615c.065-.054.268-.183.833-.342.27-.076.57-.145.937-.226.342-.075.775-.167 1.19-.27l-1.455-5.821c-.307.077-.619.142-1.022.231-.378.083-.823.183-1.275.31-.88.248-2.03.66-3.049 1.509l3.841 4.61zm2.883-.82c.767-.17 1.77-.39 2.677-.71.864-.307 2.097-.857 2.987-1.97L48.963 43c.168-.21.227-.128-.308.063-.493.174-1.115.317-1.973.508l1.302 5.857zm5.664-2.68c.977-1.22 1.146-2.66 1.175-3.611.03-.984-.088-2.065-.171-2.895l-5.97.597c.097.976.16 1.61.144 2.116-.016.538-.118.363.137.045l4.685 3.748zm.995-6.58c-.194-1.554-.23-2.441.013-3.088l-5.618-2.106c-.84 2.242-.515 4.605-.348 5.939l5.954-.744zm.089-3.317c.03-.103.131-.339.486-.8.389-.506.79-.93 1.435-1.683l-4.556-3.905c-.439.512-1.12 1.26-1.635 1.93-.547.712-1.168 1.65-1.5 2.81l5.77 1.648zm1.764-2.314c.656-.655 1.412-1.453 2.009-2.332.587-.866 1.217-2.094 1.217-3.58h-6c0-.224.088-.188-.182.21-.26.385-.678.851-1.286 1.46l4.242 4.242zm3.226-5.913c0-1.487-.63-2.714-1.217-3.58-.597-.88-1.353-1.677-2.009-2.333l-4.242 4.243c.608.608 1.025 1.074 1.286 1.459.27.398.182.434.182.211h6zm-3.226-5.913c-.974-.974-1.522-1.695-1.84-2.543l-5.618 2.107c.765 2.04 2.023 3.487 3.216 4.679l4.242-4.243zm-1.738-2.217c-.242-.968-.27-2.02-.11-3.455l-5.963-.663c-.202 1.816-.228 3.652.252 5.573l5.82-1.455zm-.11-3.455c.085-.763.205-1.796.175-2.792-.03-1-.214-2.326-1.021-3.537l-4.993 3.328c-.085-.128.002-.1.017.39.015.494-.045 1.086-.141 1.948l5.963.663zm-1-6.539c-.89-1.113-2.123-1.662-2.987-1.969-.906-.321-1.91-.54-2.677-.71l-1.302 5.857c.858.19 1.48.333 1.973.508.535.19.476.273.308.062l4.685-3.748zM48.061 7.84c-.783-.196-1.43-.348-2.045-.54-.617-.193-.98-.362-1.171-.49L41.516 11.8c.892.594 1.884.966 2.71 1.225.83.259 1.718.468 2.38.634l1.455-5.821zM45.1 7c-.69-.575-1.035-1.256-2.188-2.87l-4.882 3.488c.653.914 1.752 2.76 3.229 3.991L45.101 7zm-2.085-2.716c-.342-.547-.905-1.53-1.475-2.27-.61-.794-1.598-1.836-3.133-2.274l-1.649 5.769c-.272-.078-.266-.217.026.163.136.176.29.405.486.722.098.156.196.318.307.5.108.178.227.373.35.57l5.088-3.18zM38.532-.222c-1.454-.484-2.843-.159-3.658.078-.707.205-1.922.668-2.392.825l1.897 5.692c.455-.152.905-.318 1.257-.446.38-.138.664-.237.91-.309.248-.072.367-.088.402-.091.027-.002-.104.013-.313-.057l1.897-5.692zm-6.155.94c-.983.369-1.362.557-2.088.807-.592.203-.951.266-1.192.266v6c1.204 0 2.289-.299 3.142-.592.718-.247 1.784-.69 2.245-.863L32.377.718zm-3.28 1.073c-.24 0-.6-.063-1.191-.266-.727-.25-1.106-.438-2.089-.807L23.71 6.336c.462.173 1.528.616 2.245.863.853.293 1.938.592 3.142.592v-6zM25.982.786C25.16.42 24.195.013 23.234-.236c-.94-.242-2.236-.431-3.572.014L21.56 5.47c-.253.084-.284-.014.175.104.438.113 1.008.338 1.81.694L25.983.786zm-6.32-1.008c-1.378.46-2.324 1.47-2.897 2.18-.61.755-1.16 1.644-1.587 2.326l5.088 3.18c.476-.762.829-1.318 1.167-1.736.159-.197.264-.298.315-.34.05-.042-.012.024-.188.082L19.662-.222zm-4.544 4.608c-.423.74-.678 1.222-1 1.68-.298.424-.492.577-.593.634l2.977 5.21c1.164-.665 1.963-1.596 2.523-2.39.535-.762 1.002-1.633 1.302-2.157l-5.21-2.977zM13.092 7c-.065.054-.268.183-.832.342-.271.076-.57.145-.938.226-.341.075-.774.167-1.19.27l1.456 5.822c.307-.077.618-.143 1.022-.232.377-.083.823-.183 1.274-.31.88-.247 2.031-.66 3.05-1.509L13.092 7zm-2.883.82c-.767.171-1.77.39-2.677.711-.863.307-2.096.856-2.987 1.97l4.685 3.747c-.168.21-.227.128.309-.062.493-.175 1.114-.318 1.972-.508L10.21 7.82zM4.546 10.5c-.977 1.221-1.146 2.66-1.175 3.611-.03.985.089 2.065.172 2.895l5.97-.597c-.098-.976-.16-1.61-.145-2.116.017-.538.118-.363-.137-.045L4.546 10.5zm-.995 6.58c.194 1.554.23 2.442-.013 3.088l5.618 2.107c.841-2.243.515-4.605.349-5.94l-5.954.745zm-.088 3.317c-.03.104-.132.34-.487.8-.388.506-.79.931-1.434 1.683l4.555 3.905c.439-.512 1.12-1.26 1.635-1.929.548-.712 1.168-1.65 1.5-2.81l-5.77-1.649zm-2.188 2.846c-.194.31-.397.611-.64.973-.227.34-.493.74-.735 1.153-.453.773-1.067 1.98-1.067 3.436h6c0 .192-.071.134.243-.401.141-.242.316-.508.545-.85.215-.321.485-.72.742-1.131l-5.088-3.18zm-2.442 5.562c0 1.487.63 2.714 1.218 3.58.596.88 1.353 1.677 2.008 2.333l4.243-4.243c-.608-.608-1.026-1.074-1.287-1.459-.27-.398-.182-.434-.182-.211h-6zm3.226 5.913c.975.974 1.522 1.695 1.84 2.543l5.618-2.107c-.765-2.04-2.023-3.487-3.215-4.679l-4.243 4.243zm1.739 2.217c.242.968.269 2.02.11 3.455l5.963.663c.201-1.816.228-3.652-.252-5.573l-5.821 1.455zm.11 3.455c-.086.763-.206 1.796-.176 2.792.03 1 .214 2.326 1.022 3.537l4.992-3.328c.085.128-.002.1-.016-.39-.015-.494.045-1.086.14-1.948l-5.963-.663zm1 6.539c.89 1.113 2.123 1.662 2.986 1.969.907.321 1.91.54 2.677.71l1.302-5.857c-.858-.19-1.48-.333-1.972-.508-.536-.19-.477-.273-.308-.062l-4.686 3.748zm5.587 2.661c.782.196 1.43.348 2.044.54.618.193.98.362 1.172.49l3.328-4.992c-.891-.594-1.884-.967-2.71-1.225-.83-.26-1.718-.468-2.38-.634l-1.454 5.821zm2.96.839c.689.575 1.035 1.256 2.187 2.87l4.883-3.488c-.654-.914-1.752-2.76-3.23-3.992l-3.84 4.61zm2.084 2.716c.342.547.906 1.53 1.476 2.27.61.794 1.597 1.836 3.133 2.274l1.648-5.769c.272.078.266.217-.026-.163a9.136 9.136 0 01-.486-.722c-.097-.156-.196-.318-.307-.5a55.908 55.908 0 00-.35-.57l-5.088 3.18zm4.484 4.506c1.454.484 2.843.159 3.659-.078.706-.205 1.922-.668 2.392-.825l-1.898-5.692c-.455.152-.904.318-1.257.446-.379.138-.664.237-.91.309a2.342 2.342 0 01-.402.091c-.026.002.105-.013.314.057l-1.898 5.692zm6.766-1.253c.934-.623 1.765-.94 2.308-.94v-6c-2.346 0-4.403 1.126-5.636 1.948l3.328 4.992z" fill="#4668FF" mask="url(#a)"/><path d="M29.097 46.54c-9.832 0-17.736-8.078-17.736-17.736 0-9.832 8.079-17.736 17.736-17.736 9.658 0 17.736 7.904 17.736 17.736A17.686 17.686 0 0129.097 46.54zm0-34.847c-9.304 0-16.93 7.627-16.93 16.93 0 9.304 7.626 16.931 16.93 16.931 9.304 0 16.93-7.627 16.93-16.93 0-9.304-7.626-16.931-16.93-16.931z" stroke="#4668FF"/><mask id="b" fill="#fff"><path d="M29.097 43.971c-8.305 0-15.167-6.86-15.167-15.166 0-8.306 6.862-15.167 15.167-15.167 8.306 0 15.167 6.861 15.167 15.167 0 8.305-6.861 15.166-15.167 15.166zm0-28.527a13.331 13.331 0 00-13.36 13.36 13.331 13.331 0 0013.36 13.362 13.331 13.331 0 0013.361-13.361 13.331 13.331 0 00-13.36-13.361z"/></mask><path d="M29.097 41.971c-7.2 0-13.167-5.965-13.167-13.166h-4c0 9.41 7.757 17.166 17.167 17.166v-4zM15.93 28.805c0-7.201 5.966-13.167 13.167-13.167v-4c-9.41 0-17.166 7.757-17.166 17.167h4zm13.167-13.167c7.201 0 13.167 5.966 13.167 13.167h4c0-9.41-7.757-17.167-17.167-17.167v4zm13.167 13.167c0 7.2-5.966 13.166-13.167 13.166v4c9.41 0 17.167-7.756 17.167-17.166h-4zM29.097 13.444a15.331 15.331 0 00-15.36 15.36h4a11.331 11.331 0 0111.36-11.36v-4zm-15.36 15.36a15.331 15.331 0 0015.36 15.362v-4a11.331 11.331 0 01-11.36-11.361h-4zm15.36 15.362a15.33 15.33 0 0015.361-15.361h-4a11.331 11.331 0 01-11.36 11.361v4zm15.361-15.361a15.33 15.33 0 00-15.36-15.361v4a11.331 11.331 0 0111.36 11.36h4z" fill="#4668FF" mask="url(#b)"/></svg>