<svg width="120" height="53" fill="none" xmlns="http://www.w3.org/2000/svg"><g clip-path="url(#clip0)"><path d="M16.508 18.152c1.502.148 3.04.29 4.579.446.504.05.504.062.423-.415a562.638 562.638 0 01-.498-3.177c-.056-.353-.056-.353.287-.297 1.912.297 3.83.595 5.75.886.255.037.398.13.454.414.224 1.121.492 2.236.704 3.357.056.29.206.328.43.371 1.22.235 2.436.49 3.656.718.262.05.387.168.437.434a549.74 549.74 0 001.034 5.405c.05.26.024.329-.275.279-1.295-.235-2.597-.433-3.893-.663-.206-.037-.218.013-.193.192.206 1.555.399 3.109.61 4.663.032.223 0 .291-.249.266-2.136-.223-4.273-.433-6.41-.65-.261-.025-.405-.13-.436-.415-.15-1.579-.317-3.158-.467-4.743-.019-.217-.093-.266-.299-.285-1.694-.136-3.389-.284-5.083-.427-.243-.018-.343-.13-.361-.371-.156-1.914-.312-3.827-.474-5.734-.025-.205.025-.297.274-.254z" fill="#CB1920"/><path d="M101.601 27.304v-.67c0-1.343.007-2.68-.006-4.024 0-.217.062-.29.28-.279.331.02.667.013.997 0 .175-.006.262.031.262.236-.006 2.57-.006 5.14 0 7.709 0 .18-.069.235-.237.229a2.936 2.936 0 00-.467 0c-.187.018-.305-.062-.417-.204a3247.973 3247.973 0 00-3.937-5.034c-.05-.062-.075-.15-.2-.174v.303c0 1.598-.006 3.202.006 4.8 0 .24-.062.327-.311.309-.33-.019-.667-.012-.997 0-.18.006-.255-.043-.255-.241.006-2.558.006-5.121 0-7.679 0-.185.05-.272.243-.247h.031c.704-.118 1.165.148 1.595.736 1.021 1.394 2.13 2.719 3.208 4.069.043.062.075.148.205.16zM62.867 26.406c0-1.257.006-2.514-.006-3.777 0-.23.062-.298.293-.291 1.856.012 3.712.012 5.569 0 .243 0 .305.074.293.297-.02.31-.02.62 0 .929.012.223-.075.272-.287.272-1.327-.006-2.654.006-3.987-.012-.28-.006-.355.074-.342.346.024.403.018.805 0 1.208-.013.254.062.334.323.328 1.259-.012 2.51 0 3.77-.012.26 0 .38.043.348.334a4.687 4.687 0 000 .836c.019.235-.062.297-.293.297-1.264-.012-2.529 0-3.8-.012-.267 0-.367.056-.348.34.024.403.018.805 0 1.208-.013.241.074.29.299.29 1.32-.011 2.635.007 3.955-.011.293-.007.38.086.362.365-.025.31-.013.62-.007.929.007.16-.037.247-.224.247a880.975 880.975 0 00-5.725 0c-.243 0-.193-.154-.193-.29v-3.821zM112.87 26.43c0-1.256.007-2.513-.006-3.776 0-.23.044-.323.305-.323 1.844.013 3.694.013 5.538 0 .243 0 .299.075.287.298-.019.31-.019.619 0 .928.012.223-.063.28-.281.273-1.326-.006-2.653 0-3.986-.012-.262 0-.368.043-.349.334.025.421.019.848 0 1.27-.006.222.075.278.286.272 1.277-.006 2.554.006 3.831-.013.262 0 .349.075.324.329a6.476 6.476 0 000 .835c.019.23-.062.298-.292.298-1.259-.013-2.511.006-3.769-.013-.293-.006-.405.062-.38.372.031.39.025.786 0 1.176-.013.242.075.291.299.285 1.327-.012 2.654 0 3.987-.012.255 0 .348.055.33.322-.025.31-.019.619 0 .929.018.241-.069.29-.299.29-1.732-.006-3.464-.006-5.196-.006-.629 0-.629 0-.629-.637V26.43zM60.276 14.591c.498 0 .996.007 1.495-.006.187-.006.28.031.274.248-.013.99-.006 1.981 0 2.972 0 .174-.075.291-.187.403-1.01 1.034-2.249 1.38-3.663 1.244a4.871 4.871 0 01-1.389-.316c-1.47-.606-2.193-1.758-2.342-3.269-.143-1.505.218-2.873 1.383-3.938 1.52-1.387 4.373-1.331 5.824.099.112.111.1.173 0 .272a10.96 10.96 0 00-.648.67c-.137.16-.23.117-.38.011-.996-.718-2.068-.885-3.19-.352-1.064.507-1.694 1.87-1.482 3.12.35 2.075 2.729 3.028 4.46 1.784.131-.093.194-.192.187-.36a9.222 9.222 0 010-.928c.013-.223-.043-.31-.286-.298-.517.02-1.04 0-1.557.013-.194.006-.28-.044-.268-.254a6.705 6.705 0 000-.867c-.013-.217.074-.26.274-.254.498.013.996.006 1.495.006zM108.099 22.078c.654-.007 1.351.105 1.999.458.43.235.76.563 1.009.984.075.124.069.192-.074.26-.312.149-.611.304-.916.465-.112.062-.174.037-.262-.056-.691-.737-1.868-.99-2.803-.62a1.207 1.207 0 00-.467.298c-.405.421-.324 1.022.187 1.307.398.223.841.272 1.283.328.604.08 1.209.167 1.788.378.959.34 1.545.984 1.595 2.024.062 1.14-.424 1.982-1.439 2.409-1.327.557-2.685.551-4.031.019-.666-.267-1.115-.762-1.439-1.394-.093-.185-.062-.266.125-.353.299-.136.592-.303.884-.452.094-.05.162-.099.25.044.604 1.046 1.588 1.22 2.684 1.127.293-.025.574-.1.829-.236.399-.216.617-.538.592-1.003-.019-.446-.293-.687-.661-.854-.51-.235-1.059-.26-1.607-.34-.542-.081-1.077-.193-1.582-.428-.804-.372-1.221-1.003-1.252-1.876-.031-.805.293-1.45.972-1.889.697-.458 1.457-.607 2.336-.6zM73.818 22.078c.954.012 1.863.185 2.585.86.673.632.655.681-.137 1.109-.336.18-.535.223-.878-.075-.779-.662-1.713-.73-2.66-.365-.386.149-.635.446-.635.873 0 .44.299.657.673.793.598.216 1.24.223 1.862.346.418.081.829.18 1.221.353.766.341 1.252.898 1.34 1.753.1.972-.162 1.795-1.016 2.365-.542.36-1.152.52-1.782.582-.853.08-1.7.037-2.51-.285-.729-.285-1.252-.792-1.588-1.492-.063-.13-.081-.21.08-.291.33-.149.648-.322.972-.495.094-.05.156-.062.218.05.567 1.009 1.514 1.2 2.56 1.15.33-.018.655-.092.954-.253.386-.21.616-.526.604-.972-.006-.427-.268-.694-.642-.873-.517-.248-1.077-.273-1.632-.36-.542-.08-1.077-.191-1.582-.427-.772-.359-1.202-.947-1.246-1.808-.05-.916.318-1.597 1.115-2.055.66-.366 1.377-.496 2.124-.483zM10.472 38.004c-.698 0-1.39-.446-1.663-1.115-.28-.687-.125-1.387.448-1.944.598-.576 1.19-1.152 1.8-1.71.686-.625 1.75-.594 2.461.05.654.595.804 1.58.243 2.23-.673.78-1.42 1.498-2.211 2.166-.287.242-.648.329-1.078.323zM97.247 15.248c0-1.257.013-2.514-.006-3.777-.006-.285.08-.353.349-.335.299.025.604.019.903 0 .243-.018.318.056.318.304-.013 2-.007 4-.007 6 0 .501-.068.427.424.427 1.165.006 2.323.006 3.488-.006.237 0 .306.068.293.297a6.138 6.138 0 000 .836c.013.223-.043.303-.286.303a362.83 362.83 0 00-5.196 0c-.23 0-.267-.08-.267-.285-.007-1.244-.013-2.507-.013-3.764zM63.54 15.186c0-1.25.006-2.495-.006-3.746 0-.223.05-.316.293-.304.311.019.622.019.934 0 .255-.018.336.068.336.329-.012 1.993-.006 3.98-.006 5.975 0 .508-.062.433.449.44 1.152.006 2.304.006 3.457-.007.23 0 .311.056.293.291-.019.297-.019.6 0 .898.012.198-.063.242-.25.242a736.055 736.055 0 00-5.232 0c-.224 0-.274-.075-.274-.285.006-1.276.006-2.551.006-3.833zM17.193 41.824c-.018-.254.069-.52.169-.78.261-.694.53-1.387.785-2.08.292-.775.884-1.227 1.563-1.19.797.044 1.464.607 1.663 1.4.1.396.056.774-.08 1.151-.262.719-.524 1.43-.792 2.15-.324.872-1.059 1.318-1.912 1.163-.791-.154-1.39-.916-1.396-1.814zM5.12 30.387c-.803 0-1.457-.458-1.625-1.108a1.5 1.5 0 01.853-1.74c.891-.415 1.8-.786 2.748-1.059.878-.254 1.837.273 2.068 1.078.187.643-.119 1.356-.804 1.659-.903.402-1.837.743-2.766 1.102a1.1 1.1 0 01-.473.068zM28.674 42.573c0 .446.013.886-.006 1.331a1.57 1.57 0 01-.592 1.183c-.598.49-1.389.378-1.856-.235-.193-.254-.337-.539-.343-.848-.025-1.028-.062-2.062-.018-3.09.012-.254.112-.477.255-.688.46-.693 1.314-.804 1.937-.253.399.352.598.81.61 1.337.013.421 0 .848 0 1.27.007-.007.007-.007.013-.007zM5.88 19.681c.393.019.767.068 1.097.291.648.44.71 1.208.131 1.734-.243.223-.53.384-.853.415a19.998 19.998 0 01-3.165.087c-.56-.031-.965-.397-1.078-.842-.1-.421.144-.936.58-1.245.398-.279.853-.353 1.327-.372.66-.024 1.314 0 1.962-.068zM35.645 41.991c.006.434-.087.787-.318 1.096-.392.545-1.046.57-1.483.062a1.583 1.583 0 01-.311-.532c-.262-.75-.53-1.499-.785-2.248-.15-.446-.15-.892.025-1.331.311-.78 1.109-.93 1.688-.316.156.167.28.359.355.576.25.712.499 1.418.742 2.13.068.198.105.402.087.563zM5.563 13.787c.212-.007.405.018.598.068.63.173 1.265.328 1.888.507.548.155.897.514.91.904.012.39-.356.774-.904.948a2.071 2.071 0 01-1.165.024c-.679-.179-1.364-.352-2.043-.544-.418-.118-.785-.304-.854-.793-.05-.347.275-.743.735-.947.275-.118.555-.186.835-.168zM15.63 33.056c-.997-.006-1.857-.823-1.85-1.758.006-.83.716-1.48 1.6-1.468.997.012 1.826.83 1.82 1.783 0 .843-.673 1.456-1.57 1.443zM21.417 37.025c-1.234-.006-2.124-1.374-1.626-2.495.33-.75 1.209-1.047 2-.675.778.371 1.22 1.27 1.028 2.08-.169.675-.71 1.096-1.402 1.09z" fill="#5792CA"/><path d="M65.097 38.796c0 .867-.006 1.734.007 2.6 0 .218-.069.292-.28.28a8.78 8.78 0 00-.904 0c-.18.006-.256-.044-.256-.242.007-1.765.007-3.53 0-5.294 0-.174.05-.242.231-.236.311.013.623.019.934 0 .23-.012.28.08.275.291-.013.867-.007 1.734-.007 2.601z" fill="#5793CA"/><path d="M40.174 37.979c-.025.26-.056.526-.194.761-.236.415-.672.508-1.046.205a1.303 1.303 0 01-.255-.267c-.393-.532-.792-1.058-1.178-1.597a1.963 1.963 0 01-.355-1.58c.062-.315.2-.606.53-.705.342-.105.648.031.86.297.504.613.977 1.257 1.4 1.926.175.285.206.62.238.96zM11.743 27.849c-.43 0-.816-.124-1.153-.384-.417-.322-.66-.743-.598-1.282.063-.539.386-.904.885-1.102.704-.279 1.364-.161 1.95.31.467.377.648.965.48 1.467-.181.55-.73.947-1.377.99h-.187zM28.487 37.08c0 .657-.305 1.159-.834 1.357-.493.186-1.047.019-1.477-.458a1.853 1.853 0 01-.486-1.573c.075-.52.337-.941.879-1.096.567-.161 1.04.056 1.426.47.33.366.505.806.492 1.3zM11.687 11.941c-.492-.006-.885-.105-1.24-.347-.473-.315-.953-.619-1.427-.94-.504-.347-.485-.837.069-1.11.63-.315 1.27-.29 1.875.063.51.297.99.638 1.489.96.255.167.455.377.405.706-.05.334-.312.464-.592.57-.212.073-.43.11-.58.098zM42.441 32.121c.006.167-.012.328-.075.49-.143.34-.442.47-.753.272-.555-.36-1.122-.712-1.626-1.14-.486-.415-.673-1.003-.605-1.647.056-.532.486-.749.941-.458.492.322.984.65 1.445 1.016.468.359.648.885.673 1.467zM10.379 22.158c-.617 0-1.078-.149-1.446-.526-.467-.483-.423-1.146.1-1.567.691-.563 1.819-.501 2.442.136.517.527.448 1.251-.168 1.666-.312.21-.654.303-.928.291zM17.087 9.786c-.666-.012-1.22-.241-1.62-.81-.23-.329-.485-.645-.722-.967-.23-.322-.15-.6.218-.768.636-.29 1.632-.043 2.069.508.267.34.535.681.797 1.028.38.508.212.898-.424.99-.106.013-.212.013-.318.02zM33.527 36.27c-.013.093-.013.18-.025.26-.081.44-.274.823-.729.953-.467.137-.86-.068-1.159-.42-.442-.515-.623-1.109-.454-1.778.193-.774.934-1.046 1.588-.582.536.384.741.941.779 1.567zM42.31 25.892c0 .52-.18.669-.691.551-.33-.074-.667-.149-.997-.235-.747-.186-1.358-.948-1.37-1.715-.007-.496.218-.675.697-.558l1.022.26c.76.186 1.34.923 1.34 1.697zM23.398 9.7c-.51-.05-1.01-.223-1.402-.632a.957.957 0 01-.255-.52c-.062-.334-.13-.669-.212-.997-.069-.272.062-.415.293-.495.685-.242 1.987.316 2.056 1.096.024.266.1.526.186.78.187.532-.05.743-.666.768zM36.997 18.629c-.025-.279.1-.428.373-.477.324-.062.648-.13.972-.192a.82.82 0 01.542.074c.523.273.872.694 1.028 1.251.118.421 0 .607-.43.706-.218.056-.442.099-.66.167-.393.13-.729.019-1.04-.223-.43-.34-.73-.755-.785-1.306zM11.288 17.477c-.43-.012-.928-.13-1.308-.539-.368-.396-.337-.86.068-1.22.642-.557 1.969-.42 2.48.248.336.44.236.954-.23 1.25-.269.18-.58.248-1.01.26zM29.322 11.57c-.66-.093-1.215-.378-1.557-.979a.568.568 0 01-.056-.501c.087-.254.15-.514.224-.768.093-.322.255-.446.592-.409a1.984 1.984 0 011.432.824c.15.204.181.427.119.675-.063.235-.131.477-.175.718-.068.322-.255.458-.579.44zM34.28 12.808c.611.012 1.433.7 1.545 1.263.044.198.02.384-.155.533-.18.148-.355.316-.517.489-.218.235-.474.285-.76.18-.592-.217-1.034-.595-1.259-1.195-.087-.23-.043-.415.156-.576.218-.174.424-.366.636-.545.105-.1.23-.174.355-.149zM36.872 33.582c-.025.18-.037.378-.118.564-.194.452-.592.607-1.047.402-.735-.328-1.19-1.492-.885-2.229.212-.508.692-.656 1.178-.347.592.366.81.942.872 1.61z" fill="#5792CA"/><path d="M14.104 12.115c.517.018.984.16 1.345.538.405.421.305.904-.224 1.152-.604.285-1.589.111-2.062-.36-.442-.439-.343-.959.237-1.207.23-.092.46-.13.704-.123z" fill="#5793CA"/><path d="M38.585 29.47c0 .317-.05.626-.367.763-.312.136-.61.012-.86-.205-.505-.44-.772-.984-.729-1.66.037-.569.48-.829.978-.55.642.365.934.94.978 1.653z" fill="#5792CA"/><path d="M18.103 10.492c.548.006 1.04.174 1.426.57.436.458.306.935-.305 1.077-.66.149-1.252-.043-1.75-.476-.212-.186-.393-.421-.28-.731.118-.31.392-.396.697-.427.069-.013.137-.013.212-.013zM36.567 23.88c-.007-.545.324-.768.834-.564.586.235 1.103.997 1.103 1.635 0 .538-.336.767-.835.563-.585-.241-1.096-1.003-1.102-1.634zM23.878 12.115c-.561-.062-1.11-.279-1.483-.8-.311-.433-.162-.773.355-.878.623-.124 1.539.297 1.838.854.093.18.15.365.043.557-.1.167-.38.273-.753.267zM36.716 20.245c-.006.365-.18.52-.548.489-.66-.062-1.476-.99-1.458-1.647.013-.36.225-.514.61-.458.667.086 1.402.94 1.396 1.616zM27.802 11.873c.58.08 1.14.39 1.47 1.028.224.433-.006.786-.492.75-.704-.056-1.265-.39-1.613-1.016-.256-.458-.032-.774.635-.762zM33.14 16.721c-.641-.012-1.47-.693-1.6-1.318-.087-.41.118-.644.535-.613.648.05 1.42.712 1.558 1.337.08.378-.106.6-.492.595z" fill="#5793CA"/><path d="M63.478 34.307a.89.89 0 01.915-.886.906.906 0 01.897.91.907.907 0 01-.922.886.893.893 0 01-.89-.91z" fill="#CB1920"/><path fill-rule="evenodd" clip-rule="evenodd" d="M86.595 17.632c.237-.93.006-1.976-1.165-2.551.916-.576 1.183-1.239.922-2.254-.237-.93-1.034-1.548-2.143-1.635-.877-.065-1.758-.057-2.64-.048-.54.005-1.081.01-1.62-.002-.215-.005-.214.112-.213.248v.031c0 2.539 0 5.078-.006 7.616-.006.223.069.273.28.273.633-.003 1.266-.003 1.9-.003.634 0 1.268 0 1.9-.003a4.518 4.518 0 001.29-.199c.754-.235 1.296-.687 1.495-1.473zm-4.226-3.215a23.692 23.692 0 00-.864.007c-.18.006-.261-.037-.255-.235.013-.464.006-.928 0-1.393 0-.161.025-.242.218-.242.348.006.698.005 1.048.004.42 0 .839-.002 1.257.009.349.006.673.13.91.408.423.496.242 1.164-.38 1.363a1.648 1.648 0 01-.518.086c-.38-.012-.753-.012-1.127-.006h-.29zm.239 3.456l-.374-.001c-.249-.002-.498-.003-.747.001-.168.006-.243-.03-.243-.223.012-.557.006-1.114 0-1.67v-.002c0-.16.05-.216.212-.21.271.002.543.001.815 0a38.58 38.58 0 011.427.012c.455.013.879.168 1.202.514.412.44.306 1.04-.218 1.331-.317.174-.666.23-1.021.242-.257.01-.52.008-.786.007h-.267zM61.802 30.127c-.735-.83-1.47-1.653-2.23-2.501.031-.01.057-.02.08-.029.043-.016.072-.027.1-.027 1.49-.378 2.062-1.709 1.807-3.047-.255-1.325-1.32-2.148-2.79-2.167-.68-.01-1.36-.009-2.04-.008-.566 0-1.132.002-1.698-.004-.194 0-.268.037-.268.254.006 2.557.006 5.12 0 7.678 0 .198.068.248.255.241.343-.012.685-.018 1.028 0 .218.007.287-.061.28-.278-.005-.33-.005-.658-.004-.986.001-.393.002-.786-.008-1.181-.006-.242.068-.304.299-.291.324.018.642.012.965 0a.423.423 0 01.374.16c.282.325.565.648.848.97.386.44.77.878 1.152 1.322.162.185.318.29.58.272.223-.011.448-.009.672-.007.15.002.299.003.449 0 .03 0 .066.005.102.01.1.014.203.028.24-.059.044-.106-.045-.186-.128-.26a1.087 1.087 0 01-.065-.062zm-4.426-3.754l.32.002c.166-.003.331-.002.495-.001.218 0 .435.002.652-.005.685-.025 1.184-.514 1.221-1.164.037-.75-.355-1.282-1.078-1.381-.54-.073-1.087-.061-1.635-.05-.291.007-.583.013-.875.006-.16-.005-.156.095-.151.19l.001.046c-.002.3-.002.6 0 .9 0 .4.001.799-.006 1.199-.006.198.044.272.255.266.267-.013.534-.01.801-.008zM66.606 36.675l-.001.938v.944c.002.942.003 1.885-.006 2.827 0 .199.03.298.267.291.561-.006 1.122-.007 1.682-.009.561-.001 1.122-.003 1.682-.01a3.679 3.679 0 001.47-.346c1.745-.78 2.467-2.65 2.15-4.477-.368-2.105-1.82-3.282-3.975-3.294-.396-.002-.792 0-1.186 0-.592.003-1.182.005-1.773-.006-.274-.006-.317.087-.317.334.009.938.008 1.872.007 2.808zm1.544-1.427v2.353c0 .216 0 .432.002.647.002.538.005 1.074-.009 1.613-.012.279.081.347.35.335.302-.014.608-.011.913-.009l.363.002c1.514 0 2.399-.736 2.592-2.229.15-1.151-.337-2.594-1.907-2.904-.482-.092-.967-.082-1.453-.072-.23.005-.46.01-.69.004-.174-.005-.169.102-.163.206l.002.054zM72.467 11.328c-1.738.712-2.392 2.174-2.455 3.567 0 1.356.243 2.192.71 2.91 1.234 1.876 3.987 2.05 5.613 1.195 1.638-.86 2.324-2.805 2.012-4.563-.567-3.22-3.644-4.025-5.88-3.109zm2.76 6.582c1.04-.328 1.656-1.356 1.656-2.65-.012-2.774-2.516-3.387-4.055-2.514-1.022.576-1.358 1.56-1.296 2.663.131 2.408 2.062 3.021 3.694 2.501zM92.843 30.14c1.433-.818 1.943-2.149 1.987-3.344.006-2.248-.997-3.759-2.629-4.365-.66-.236-1.34-.273-2.024-.223-.953.068-1.794.408-2.48 1.083-1.32 1.288-1.657 3.493-.828 5.22 1.134 2.372 4.223 2.626 5.974 1.629zm-4.871-3.363c.105 1.505 1.164 2.49 2.672 2.49 1.34 0 2.261-.719 2.579-2.013.118-.477.137-.96.043-1.443-.199-1.015-.703-1.802-1.744-2.099-1.059-.303-2.05-.16-2.834.675-.63.669-.779 1.505-.716 2.39zM87.634 18.253l-.472 1.05c.278 0 .542-.001.798-.003l.715-.003c.165.006.21-.095.26-.204l.002-.006.21-.46c.106-.232.212-.463.313-.698.056-.13.131-.18.28-.18 1.29.007 2.573.007 3.863 0 .156 0 .237.05.299.199.097.233.202.464.308.694.07.155.141.309.209.463l.003.008c.049.102.088.184.234.184.33-.004.657-.002.993-.001l.52.001a3.382 3.382 0 01-.016-.057c-.015-.056-.027-.098-.046-.14l-1.747-3.88-1.748-3.88c-.068-.154-.162-.21-.33-.204-.373.013-.747.025-1.121 0-.25-.018-.361.075-.461.298-.545 1.232-1.1 2.458-1.655 3.684l-.619 1.368c-.26.585-.523 1.17-.792 1.767zm2.537-1.934h3.02a730.732 730.732 0 00-1.513-3.443l-.324.742c-.4.914-.786 1.798-1.183 2.701zM54.86 39.602l-.932 2.073h.414c.394-.002.764-.003 1.13.007.132 0 .172-.086.213-.175l.006-.011c.174-.372.349-.75.51-1.127.07-.155.163-.21.33-.21 1.272.005 2.549.005 3.826 0 .174 0 .261.055.33.21.082.203.172.402.264.602.075.165.151.332.222.5.062.155.15.217.324.21.386-.012.772-.018 1.152 0 .256.013.3-.043.187-.284a1665.949 1665.949 0 01-3.42-7.585c-.087-.192-.18-.285-.411-.273a8.03 8.03 0 01-1.09 0c-.256-.019-.361.08-.461.297a813.952 813.952 0 01-2.156 4.793l-.438.973zm5.036-1.041a682.894 682.894 0 01-1.452-3.3c-.118.26-.193.433-.268.612-.126.29-.254.578-.38.867-.256.578-.51 1.156-.76 1.734a.558.558 0 01-.025.043c-.053.083-.13.205.094.205h2.672c.119 0 .181-.025.119-.161zM78.64 25.462v1.572c.001 1.058.002 2.114-.019 3.161 0 .236.075.31.306.298.33-.019.666-.019.996 0 .212.012.268-.069.262-.267-.003-.27-.002-.54-.001-.81 0-.359.002-.717-.005-1.078 0-.21.068-.26.267-.26l.25.004c.664.012 1.329.023 1.993-.004 1.869-.075 2.884-1.424 2.822-2.973-.069-1.684-1.265-2.767-2.965-2.774l-1.203.003c-.804.003-1.609.006-2.41-.003-.262 0-.3.093-.3.323.01.938.009 1.872.008 2.808zm1.546-.622l-.001.39.001.409c.002.275.003.552-.001.829 0 .155.043.216.212.216.278-.002.557 0 .835 0 .488.002.976.004 1.463-.012.742-.03 1.284-.644 1.29-1.405.006-.78-.536-1.412-1.284-1.437-.46-.019-.919-.017-1.379-.016a47.77 47.77 0 01-.92-.003c-.192-.006-.217.08-.217.242.004.264.003.526.001.787z" fill="#5792CA"/></g><path fill="url(#paint0_linear)" d="M48 0h.2v53H48z"/><defs><linearGradient id="paint0_linear" x1="48.1" y1="0" x2="48.1" y2="53" gradientUnits="userSpaceOnUse"><stop stop-color="#AAACAE" stop-opacity="0"/><stop offset=".49" stop-color="#AAACAE"/><stop offset="1" stop-color="#AAACAE" stop-opacity="0"/></linearGradient><clipPath id="clip0"><path fill="#fff" d="M2 7h117v38.391H2z"/></clipPath></defs></svg>