<svg width="196" height="97" fill="none" xmlns="http://www.w3.org/2000/svg"><g clip-path="url(#clip0)"><path d="M24.305 33.457c2.514.27 5.092.528 7.67.808.845.09.845.113.71-.752-.282-1.918-.564-3.837-.836-5.756-.094-.64-.094-.64.48-.54 3.204.54 6.418 1.078 9.632 1.606.428.067.668.235.762.752.376 2.03.825 4.05 1.18 6.082.093.527.344.595.72.673 2.045.427 4.08.887 6.125 1.302.438.09.647.303.73.785.564 3.266 1.138 6.532 1.733 9.797.083.472.042.595-.46.505-2.17-.426-4.35-.785-6.521-1.2-.345-.068-.366.022-.324.348.344 2.816.668 5.633 1.023 8.45.052.404 0 .527-.418.482-3.58-.404-7.159-.785-10.738-1.178-.438-.045-.678-.236-.73-.752-.25-2.861-.533-5.723-.783-8.596-.031-.393-.157-.483-.5-.516-2.84-.247-5.678-.516-8.516-.774-.407-.034-.574-.236-.606-.674-.26-3.467-.521-6.935-.793-10.392-.041-.37.042-.538.46-.46z" fill="#CB1920"/><path d="M166.854 50.044v-1.212c0-2.436.01-4.86-.011-7.295 0-.393.105-.527.47-.505.553.034 1.117.023 1.67 0 .292-.011.438.056.438.427-.01 4.657-.01 9.314 0 13.971 0 .326-.115.427-.397.415a4.538 4.538 0 00-.782 0c-.313.034-.512-.112-.699-.37-2.192-3.041-4.394-6.082-6.596-9.124-.083-.112-.125-.269-.334-.314v.55c0 2.895-.01 5.802.011 8.697 0 .438-.104.595-.522.561a16.552 16.552 0 00-1.67 0c-.302.012-.427-.078-.427-.437.01-4.635.01-9.281 0-13.916 0-.336.083-.493.407-.449h.052c1.179-.213 1.951.27 2.671 1.336 1.712 2.525 3.569 4.926 5.375 7.373.073.112.125.27.344.291zM101.966 48.416c0-2.278.01-4.556-.011-6.845 0-.415.105-.539.491-.528 3.109.023 6.219.023 9.329 0 .407 0 .511.135.49.539a15.245 15.245 0 000 1.683c.021.404-.125.494-.48.494-2.222-.011-4.445.011-6.678-.022-.47-.012-.595.134-.574.628.042.73.031 1.459 0 2.188-.021.46.104.606.542.595 2.108-.022 4.206 0 6.314-.022.438 0 .636.078.584.606a9.346 9.346 0 000 1.515c.032.426-.104.538-.49.538-2.119-.022-4.237 0-6.366-.022-.449 0-.616.1-.584.617.042.73.031 1.459 0 2.188-.021.438.125.528.501.528 2.212-.022 4.414.011 6.626-.022.491-.012.637.157.605.662-.041.56-.02 1.122-.01 1.683.01.292-.063.449-.376.449-3.193-.011-6.397-.011-9.59 0-.407 0-.323-.28-.323-.528v-6.924zM185.731 48.461c0-2.278.011-4.556-.01-6.845 0-.416.073-.584.511-.584 3.089.023 6.188.023 9.277 0 .407 0 .501.135.48.539a15.245 15.245 0 000 1.683c.021.404-.104.505-.469.494-2.223-.011-4.446 0-6.679-.023-.438 0-.616.079-.584.606.041.763.031 1.538 0 2.3-.011.405.125.506.48.495 2.139-.011 4.278.01 6.417-.023.439 0 .585.135.543.595-.031.505-.031 1.01 0 1.515.031.415-.104.539-.49.539-2.108-.023-4.206.01-6.314-.023-.49-.011-.678.112-.636.674.052.706.041 1.425 0 2.132-.021.437.125.527.5.516 2.223-.023 4.446 0 6.679-.023.428 0 .585.102.553.584a12.952 12.952 0 000 1.683c.032.438-.115.528-.501.528-2.901-.011-5.802-.011-8.703-.011-1.054 0-1.054 0-1.054-1.156V48.46zM97.623 27.004c.835 0 1.67.011 2.505-.011.313-.012.469.056.459.449a302.262 302.262 0 000 5.386c0 .314-.125.528-.313.73-1.69 1.874-3.767 2.502-6.136 2.255-.804-.078-1.576-.247-2.328-.572-2.462-1.1-3.673-3.187-3.923-5.925-.24-2.727.365-5.207 2.316-7.138 2.547-2.513 7.326-2.412 9.758.18.187.202.167.314 0 .494-.376.392-.741.785-1.086 1.212-.23.291-.386.213-.636.022-1.67-1.302-3.465-1.605-5.343-.64-1.785.92-2.839 3.39-2.484 5.656.584 3.76 4.57 5.488 7.472 3.232.22-.168.323-.348.313-.65a18.104 18.104 0 010-1.684c.02-.404-.073-.56-.48-.538-.866.033-1.743 0-2.609.022-.323.011-.47-.079-.449-.46.032-.528.032-1.044 0-1.571-.02-.393.126-.472.46-.46.834.022 1.67.01 2.504.01zM177.738 40.571c1.096-.01 2.265.191 3.35.83.72.427 1.273 1.022 1.691 1.785.125.225.114.348-.126.471-.521.27-1.022.55-1.534.842-.188.112-.292.067-.438-.1-1.158-1.336-3.131-1.796-4.696-1.123-.292.123-.564.28-.783.539-.678.763-.542 1.851.313 2.367.668.404 1.409.494 2.15.595 1.012.146 2.025.303 2.995.685 1.607.617 2.588 1.784 2.672 3.67.104 2.064-.71 3.59-2.411 4.365-2.223 1.01-4.498.999-6.752.034-1.116-.483-1.868-1.38-2.41-2.526-.157-.336-.105-.482.208-.64.501-.246.992-.549 1.482-.818.157-.09.271-.18.418.078 1.012 1.897 2.661 2.211 4.497 2.043.491-.045.96-.18 1.388-.427.668-.393 1.033-.976.992-1.818-.032-.808-.491-1.245-1.107-1.548-.855-.427-1.774-.472-2.692-.618-.908-.145-1.805-.347-2.651-.774-1.346-.673-2.045-1.818-2.097-3.4-.052-1.46.49-2.626 1.628-3.423 1.169-.83 2.442-1.1 3.913-1.089zM120.311 40.572c1.596.022 3.12.336 4.33 1.56 1.127 1.144 1.096 1.234-.229 2.008-.564.326-.898.404-1.472-.135-1.304-1.2-2.869-1.324-4.455-.662-.647.27-1.065.808-1.065 1.583 0 .796.501 1.19 1.127 1.436 1.002.393 2.077.404 3.12.629.7.145 1.388.325 2.046.64 1.283.616 2.097 1.626 2.243 3.175.167 1.762-.271 3.255-1.701 4.287-.908.65-1.93.943-2.984 1.055-1.43.146-2.849.067-4.206-.516-1.221-.517-2.097-1.437-2.661-2.705-.104-.236-.135-.382.136-.527.553-.27 1.085-.584 1.628-.898.156-.09.261-.112.365.09.95 1.829 2.536 2.177 4.289 2.087a3.559 3.559 0 001.597-.46c.647-.382 1.033-.954 1.012-1.762-.01-.774-.449-1.257-1.075-1.582-.866-.45-1.805-.494-2.734-.651-.908-.146-1.805-.348-2.651-.775-1.294-.65-2.014-1.716-2.087-3.276-.083-1.661.533-2.896 1.868-3.726 1.106-.662 2.306-.898 3.559-.876zM14.192 69.435c-1.169 0-2.327-.808-2.786-2.02-.47-1.246-.209-2.514.751-3.524 1.002-1.044 1.993-2.087 3.016-3.097 1.148-1.134 2.932-1.078 4.122.09 1.096 1.077 1.346 2.861.407 4.04a34.406 34.406 0 01-3.705 3.927c-.48.438-1.085.595-1.805.584zM159.558 28.194c0-2.278.021-4.557-.01-6.846-.011-.516.135-.64.584-.606a9.723 9.723 0 001.513 0c.407-.034.532.101.532.55-.02 3.625-.01 7.25-.01 10.874 0 .91-.115.775.71.775 1.951.01 3.892.01 5.844-.012.396 0 .511.124.49.539-.031.505-.031 1.01 0 1.515.021.404-.073.55-.48.55a563.567 563.567 0 00-8.703 0c-.386 0-.449-.146-.449-.516-.01-2.256-.021-4.545-.021-6.823zM103.094 28.081c0-2.266.01-4.522-.011-6.789 0-.404.084-.572.491-.55.521.034 1.043.034 1.565 0 .428-.034.563.124.563.595-.02 3.614-.01 7.216-.01 10.83 0 .92-.104.785.751.796a332.8 332.8 0 005.792-.011c.386 0 .522.1.491.527a13.803 13.803 0 000 1.627c.02.36-.105.438-.418.438-2.922-.011-5.844-.011-8.766 0-.375 0-.459-.134-.459-.516.011-2.312.011-4.623.011-6.947zM25.451 76.36c-.031-.46.115-.943.282-1.415.438-1.256.887-2.513 1.315-3.77.49-1.403 1.482-2.222 2.62-2.155 1.335.079 2.452 1.1 2.786 2.536.166.719.093 1.403-.136 2.088a572.846 572.846 0 01-1.325 3.894c-.543 1.582-1.774 2.39-3.204 2.11-1.325-.28-2.327-1.661-2.338-3.288zM5.227 55.632c-1.346 0-2.441-.83-2.723-2.008-.292-1.235.25-2.57 1.43-3.154 1.492-.752 3.015-1.425 4.602-1.919 1.47-.46 3.078.494 3.464 1.953.313 1.167-.198 2.457-1.346 3.007-1.513.73-3.079 1.347-4.633 1.998-.272.1-.564.157-.794.123zM44.685 77.717c0 .808.021 1.604-.01 2.412-.031.864-.376 1.594-.991 2.144-1.002.886-2.328.684-3.11-.427-.324-.46-.564-.976-.574-1.537-.042-1.863-.105-3.737-.032-5.6.021-.46.188-.864.428-1.246.773-1.256 2.202-1.458 3.246-.46.668.64 1.002 1.47 1.022 2.424.021.763 0 1.538 0 2.3.011-.01.011-.01.021-.01zM6.501 36.229c.658.033 1.284.123 1.837.527 1.085.797 1.19 2.188.22 3.142-.408.404-.888.696-1.43.752-1.764.19-3.528.27-5.302.157a1.956 1.956 0 01-1.805-1.526c-.167-.763.24-1.694.97-2.256.668-.505 1.43-.64 2.223-.673 1.106-.045 2.202 0 3.287-.123zM56.361 76.662c.01.786-.146 1.425-.532 1.986-.657.988-1.753 1.033-2.483.113a2.924 2.924 0 01-.522-.965c-.438-1.358-.887-2.716-1.315-4.074-.25-.808-.25-1.616.042-2.413.521-1.414 1.857-1.683 2.828-.572.26.303.47.65.595 1.044.417 1.29.834 2.57 1.241 3.86.115.359.178.73.146 1.021zM5.97 25.545a3.28 3.28 0 011 .123c1.055.315 2.12.595 3.163.92.918.281 1.503.932 1.524 1.639.02.707-.595 1.403-1.514 1.717-.647.225-1.294.225-1.951.045-1.138-.326-2.285-.64-3.423-.988-.7-.213-1.315-.55-1.43-1.436-.083-.629.46-1.347 1.232-1.717.459-.213.929-.337 1.398-.303zM22.832 60.469c-1.67-.011-3.11-1.492-3.1-3.187.01-1.504 1.2-2.682 2.682-2.66 1.67.023 3.058 1.504 3.047 3.232 0 1.526-1.127 2.638-2.63 2.615zM32.528 67.662c-2.066-.012-3.559-2.492-2.724-4.523.553-1.358 2.024-1.896 3.35-1.223 1.304.673 2.045 2.3 1.722 3.77-.282 1.224-1.19 1.987-2.348 1.976zM105.701 70.871c0 1.572-.011 3.143.01 4.714 0 .393-.115.527-.47.505a13.612 13.612 0 00-1.513 0c-.302.011-.428-.079-.428-.438.011-3.198.011-6.397 0-9.595 0-.314.084-.437.386-.426.522.022 1.044.034 1.566 0 .386-.023.469.146.459.527-.021 1.571-.01 3.142-.01 4.713zM63.95 69.39c-.043.471-.095.954-.324 1.38-.397.752-1.127.92-1.754.37a2.284 2.284 0 01-.427-.482c-.658-.965-1.326-1.919-1.973-2.895a3.786 3.786 0 01-.595-2.862c.105-.572.334-1.1.887-1.28.574-.19 1.086.057 1.44.54a34.964 34.964 0 012.349 3.49c.292.516.344 1.122.396 1.739zM16.32 51.03a2.92 2.92 0 01-1.93-.695c-.7-.584-1.106-1.347-1.002-2.323.104-.977.647-1.639 1.482-1.998 1.18-.505 2.285-.292 3.266.561.783.685 1.086 1.75.804 2.66-.303.999-1.221 1.717-2.306 1.795h-.314zM44.372 67.763c0 1.19-.511 2.099-1.398 2.458-.825.337-1.753.034-2.474-.83-.678-.808-.96-1.773-.814-2.85.126-.944.564-1.707 1.472-1.987.95-.292 1.743.1 2.39.853a3.47 3.47 0 01.824 2.356zM16.227 22.201c-.824-.01-1.482-.19-2.076-.628-.793-.572-1.597-1.122-2.39-1.706-.845-.628-.814-1.515.115-2.009 1.054-.572 2.129-.527 3.14.113.857.538 1.66 1.156 2.495 1.74.428.302.762.684.678 1.279-.083.606-.521.841-.991 1.032-.355.135-.72.202-.97.18zM67.748 58.774c.01.303-.021.594-.125.886-.24.618-.741.853-1.263.494-.929-.65-1.879-1.29-2.724-2.065-.814-.752-1.127-1.818-1.012-2.985.094-.965.814-1.358 1.576-.83.824.583 1.649 1.178 2.42 1.84.783.651 1.086 1.605 1.128 2.66zM14.035 40.718c-1.033 0-1.806-.27-2.421-.954-.783-.876-.71-2.077.167-2.84 1.158-1.02 3.047-.909 4.09.247.867.954.752 2.267-.281 3.019-.522.382-1.096.55-1.555.528zM25.275 18.296c-1.117-.022-2.046-.438-2.714-1.47-.386-.595-.814-1.167-1.21-1.75-.386-.584-.25-1.09.365-1.392 1.065-.528 2.734-.079 3.465.92.448.617.897 1.235 1.335 1.863.637.92.355 1.627-.71 1.796-.177.022-.354.022-.531.033zM52.814 66.293c-.02.168-.02.325-.041.471-.136.797-.46 1.493-1.221 1.728-.783.247-1.44-.123-1.941-.763-.741-.931-1.044-2.009-.762-3.22.323-1.403 1.565-1.897 2.66-1.055.898.695 1.243 1.705 1.305 2.839zM67.53 47.485c0 .942-.304 1.212-1.16.998-.552-.134-1.116-.269-1.669-.426-1.252-.337-2.275-1.717-2.296-3.109-.01-.897.365-1.223 1.17-1.01.573.157 1.136.315 1.71.472 1.274.336 2.244 1.672 2.244 3.075zM35.846 18.14c-.856-.09-1.691-.405-2.348-1.145-.24-.27-.366-.573-.428-.943a34.386 34.386 0 00-.355-1.807c-.115-.494.104-.752.49-.897 1.148-.438 3.33.572 3.444 1.986.042.482.167.954.313 1.414.313.965-.083 1.346-1.116 1.391zM58.626 34.321c-.042-.505.167-.774.626-.864.543-.112 1.085-.235 1.628-.348.313-.067.626-.022.908.135.876.494 1.46 1.257 1.722 2.267.198.763 0 1.1-.72 1.28-.366.1-.741.179-1.106.302-.658.236-1.221.034-1.743-.404-.72-.617-1.221-1.369-1.315-2.368zM15.56 32.233c-.72-.022-1.555-.235-2.192-.976-.616-.718-.563-1.56.115-2.21 1.075-1.01 3.298-.764 4.153.448.564.797.397 1.728-.386 2.267-.449.325-.97.449-1.69.471zM45.771 21.527c-1.106-.168-2.035-.684-2.609-1.773a1.104 1.104 0 01-.094-.909c.146-.46.25-.931.376-1.391.156-.584.428-.808.991-.74 1.002.111 1.806.628 2.4 1.492.25.37.303.774.199 1.223-.105.426-.22.864-.292 1.302-.115.583-.428.83-.971.796zM54.077 23.772c1.023.022 2.4 1.268 2.588 2.29.073.358.031.695-.26.964-.303.27-.596.573-.867.887-.365.426-.793.516-1.273.325-.992-.392-1.732-1.077-2.108-2.165-.146-.416-.073-.752.26-1.044.366-.314.71-.662 1.065-.988.178-.18.386-.314.595-.269zM58.419 61.422c-.042.326-.063.685-.199 1.022-.323.819-.991 1.1-1.753.73-1.231-.596-1.993-2.705-1.482-4.04.355-.921 1.159-1.19 1.973-.63.991.663 1.356 1.707 1.46 2.919zM20.276 22.515c.866.034 1.648.292 2.254.976.678.763.511 1.639-.376 2.088-1.012.516-2.661.202-3.454-.651-.741-.797-.574-1.74.396-2.189a2.698 2.698 0 011.18-.224zM61.287 53.97c0 .573-.084 1.134-.616 1.381-.522.247-1.023.023-1.44-.37-.845-.797-1.294-1.785-1.221-3.008.063-1.032.803-1.504 1.638-.999 1.075.663 1.566 1.706 1.639 2.997zM26.976 19.575c.918.011 1.743.314 2.39 1.033.73.83.511 1.694-.512 1.952-1.106.27-2.097-.078-2.932-.864-.355-.337-.657-.763-.47-1.324.199-.561.658-.718 1.17-.774.114-.023.229-.023.354-.023zM57.906 43.837c-.01-.987.542-1.391 1.398-1.02.981.426 1.847 1.806 1.847 2.962 0 .976-.563 1.391-1.398 1.021-.981-.438-1.837-1.818-1.847-2.963zM36.65 22.516c-.94-.112-1.858-.505-2.484-1.448-.522-.786-.272-1.403.594-1.594 1.044-.224 2.578.54 3.079 1.55.156.325.25.661.073 1.01-.167.302-.637.493-1.263.482zM58.157 37.25c-.01.662-.303.943-.918.887-1.107-.112-2.474-1.796-2.442-2.985.02-.651.375-.932 1.022-.83 1.117.156 2.348 1.705 2.338 2.928zM43.223 22.077c.97.146 1.91.707 2.463 1.863.376.786-.01 1.425-.825 1.358-1.179-.101-2.118-.707-2.702-1.84-.428-.83-.053-1.403 1.064-1.38zM52.166 30.864c-1.075-.022-2.463-1.257-2.682-2.39-.146-.74.198-1.167.897-1.111 1.086.09 2.38 1.29 2.61 2.424.135.684-.178 1.088-.825 1.077z" fill="#fff"/><path d="M102.988 62.736c.01-.91.678-1.616 1.534-1.605.835.011 1.513.752 1.503 1.65-.011.897-.71 1.616-1.545 1.604-.845-.011-1.503-.74-1.492-1.65z" fill="#CB1920"/><path fill-rule="evenodd" clip-rule="evenodd" d="M141.713 32.515c.397-1.684.011-3.58-1.951-4.624 1.534-1.043 1.983-2.244 1.544-4.085-.396-1.683-1.732-2.805-3.589-2.962-1.469-.119-2.946-.103-4.423-.088-.905.01-1.811.02-2.715-.002-.359-.01-.357.202-.355.448V21.262c0 4.6 0 9.2-.011 13.8-.01.404.115.494.47.494 1.059-.006 2.121-.006 3.183-.006 1.062 0 2.124 0 3.183-.005a7.042 7.042 0 002.16-.36c1.263-.426 2.171-1.245 2.504-2.67zm-6.597-5.825c-.162 0-.323 0-.484-.002-.482-.002-.961-.004-1.446.013-.303.011-.439-.067-.428-.427.021-.841.01-1.683 0-2.524 0-.292.042-.438.365-.438.584.01 1.169.009 1.755.007a73.851 73.851 0 012.106.015c.585.012 1.128.236 1.524.741.71.898.407 2.11-.637 2.469a2.562 2.562 0 01-.866.157 35.254 35.254 0 00-1.889-.011zm-.708 6.26h-.001a52.78 52.78 0 00-1.252.002c-.282.011-.407-.056-.407-.404.021-1.01.01-2.02 0-3.03 0-.292.083-.393.355-.382.455.005.91.003 1.366 0a59.684 59.684 0 012.39.023c.762.022 1.472.303 2.015.931.688.797.511 1.886-.366 2.413-.532.314-1.116.415-1.711.438-.43.017-.872.014-1.317.012l-.447-.001c-.208 0-.417-.001-.625-.003zM100.181 55.16a1102.041 1102.041 0 00-3.736-4.533l.133-.052a.475.475 0 01.17-.05c2.493-.684 3.453-3.097 3.026-5.52-.428-2.402-2.213-3.895-4.675-3.928a194.41 194.41 0 00-3.416-.015c-.948.001-1.897.002-2.846-.008-.323 0-.449.067-.449.46.01 4.635.01 9.281 0 13.916 0 .359.115.449.428.437a17.659 17.659 0 011.722 0c.365.012.48-.112.47-.505A98.499 98.499 0 0191 53.577c.001-.713.003-1.426-.014-2.142-.01-.438.115-.55.5-.528.544.034 1.076.023 1.618 0 .261-.011.45.068.626.292.473.589.947 1.173 1.42 1.757a314.54 314.54 0 011.93 2.395c.272.337.532.528.97.494.376-.02.752-.016 1.128-.012.25.003.5.005.751 0 .052 0 .111.01.171.018.167.025.342.05.403-.107.073-.193-.076-.338-.214-.472a1.822 1.822 0 01-.109-.112zm-7.415-6.804c.18.002.358.004.537.004.278-.005.553-.003.828-.002.365.002.729.004 1.092-.01 1.148-.044 1.983-.93 2.046-2.109.062-1.358-.595-2.323-1.806-2.502-.906-.132-1.82-.111-2.739-.09-.488.011-.977.023-1.466.011-.27-.01-.261.17-.253.343l.002.083c-.004.544-.003 1.087-.002 1.63.002.726.004 1.45-.008 2.175-.01.359.073.493.428.482.447-.024.894-.02 1.341-.015zM108.228 67.029l-.001 1.7.001 1.708c.002 1.709.004 3.417-.012 5.126 0 .359.052.538.449.527.939-.011 1.878-.014 2.818-.017.939-.002 1.878-.005 2.817-.016.856-.012 1.68-.247 2.463-.629 2.922-1.414 4.132-4.803 3.6-8.114-.615-3.815-3.047-5.947-6.658-5.97-.664-.004-1.326-.002-1.988.001-.991.004-1.98.008-2.969-.012-.459-.011-.532.157-.532.606.016 1.7.014 3.393.012 5.09zm2.587-2.587v4.264c0 .392.002.783.004 1.173.004.974.008 1.946-.014 2.923-.021.505.136.629.584.606.508-.024 1.02-.019 1.53-.014l.61.003c2.536 0 4.017-1.335 4.341-4.04.25-2.087-.564-4.702-3.193-5.263-.808-.168-1.621-.149-2.435-.13-.385.009-.77.017-1.155.007-.294-.01-.284.184-.275.373l.003.098zM118.047 21.09c-2.911 1.291-4.007 3.94-4.111 6.464 0 2.458.407 3.973 1.189 5.275 2.067 3.4 6.679 3.714 9.403 2.166 2.744-1.56 3.892-5.084 3.37-8.271-.949-5.836-6.104-7.294-9.851-5.634zm4.624 11.93c1.742-.595 2.775-2.458 2.775-4.803-.02-5.028-4.216-6.139-6.793-4.556-1.712 1.043-2.275 2.828-2.171 4.825.219 4.366 3.454 5.476 6.189 4.534zM152.182 55.183c2.4-1.481 3.256-3.894 3.329-6.06.01-4.074-1.67-6.812-4.404-7.911-1.106-.427-2.243-.494-3.391-.405-1.597.124-3.006.741-4.154 1.964-2.212 2.334-2.775 6.33-1.388 9.46 1.9 4.299 7.076 4.759 10.008 2.952zm-8.161-6.094c.178 2.727 1.952 4.511 4.477 4.511 2.244 0 3.788-1.301 4.32-3.647a6.47 6.47 0 00.073-2.614c-.334-1.84-1.179-3.266-2.922-3.805-1.774-.55-3.433-.292-4.748 1.223-1.054 1.212-1.304 2.727-1.2 4.332zM143.455 33.64l-.791 1.904c.467 0 .908-.003 1.338-.006.406-.003.802-.005 1.198-.005.276.01.352-.172.434-.37l.004-.012c.116-.28.234-.557.351-.833.178-.42.356-.839.526-1.265.094-.236.219-.326.47-.326 2.16.011 4.309.011 6.47 0 .261 0 .396.09.501.36.162.422.339.84.515 1.257.119.28.237.56.351.84l.006.014c.08.185.146.335.39.335a93.102 93.102 0 011.664-.003c.286.001.576.003.872.003a7.304 7.304 0 01-.027-.104c-.026-.102-.045-.178-.077-.255l-2.927-7.031-2.928-7.03c-.114-.281-.271-.382-.553-.371-.626.022-1.252.045-1.878 0-.418-.034-.605.135-.772.539-.913 2.233-1.843 4.454-2.773 6.677l-1.036 2.48c-.437 1.06-.878 2.12-1.328 3.202zm4.25-3.505h5.061c-.845-2.099-1.67-4.119-2.536-6.24l-.545 1.349c-.668 1.654-1.314 3.255-1.98 4.89zM88.55 72.333c-.51 1.223-1.025 2.462-1.56 3.756l.693-.001c.66-.002 1.28-.004 1.894.013.22 0 .287-.155.357-.316l.009-.021c.292-.673.584-1.358.855-2.042.115-.281.272-.382.553-.382 2.13.011 4.269.011 6.408 0 .292 0 .438.101.553.382.137.367.29.728.442 1.09.127.3.254.602.372.907.104.28.25.393.543.382a22.189 22.189 0 011.93 0c.428.022.501-.079.313-.517a3164.76 3164.76 0 01-5.729-13.747c-.146-.348-.303-.516-.689-.494-.605.045-1.22.045-1.826 0-.428-.033-.605.146-.772.54-1.19 2.894-2.4 5.789-3.61 8.683v.002l-.736 1.765zm8.436-1.89c-.793-1.94-1.586-3.882-2.431-5.98a36.29 36.29 0 00-.449 1.111c-.212.524-.425 1.048-.639 1.571-.426 1.048-.853 2.095-1.27 3.142-.01.022-.026.049-.043.078-.089.15-.219.371.157.371h4.477c.198 0 .303-.044.198-.291v-.002zM128.389 46.706l-.002 1.699.001 1.15c.001 1.917.003 3.83-.032 5.73 0 .426.125.56.511.538a13.846 13.846 0 011.67 0c.355.022.449-.124.438-.483-.004-.49-.003-.979-.002-1.467.002-.651.004-1.301-.008-1.956 0-.381.115-.47.449-.47l.417.007c1.113.021 2.226.042 3.34-.008 3.13-.134 4.831-2.58 4.727-5.386-.115-3.053-2.119-5.017-4.968-5.028-.67 0-1.343.003-2.015.005-1.346.005-2.694.01-4.037-.005-.438 0-.501.168-.501.584.016 1.7.014 3.393.012 5.09zm2.589-1.128l-.002.706.002.741c.002.5.005 1.001-.002 1.503 0 .28.073.393.354.393.467-.004.934-.002 1.401 0a63.15 63.15 0 002.45-.022c1.242-.056 2.15-1.167 2.16-2.548.011-1.414-.897-2.558-2.149-2.603-.771-.034-1.541-.031-2.311-.029-.513.002-1.027.004-1.54-.005-.324-.011-.365.146-.365.438.007.479.004.953.002 1.426z" fill="#fff"/></g><path fill="#fff" d="M76.884.56h.335v96.055h-.335z"/><defs><clipPath id="clip0"><path fill="#fff" transform="translate(0 13.246)" d="M0 0h196v69.577H0z"/></clipPath></defs></svg>