<svg width="223" height="59" fill="none" xmlns="http://www.w3.org/2000/svg"><path d="M77.86 17.59c-1.483-.355-3.14-.886-5.234-.886-3.315 0-7.415.886-12.737 3.013 5.235-.532 13.086-2.127 24.34 4.52-.96-2.393-2.705-5.229-6.369-6.647z" fill="url(#paint0_linear)"/><path d="M72.538 16.792c-3.315 0-7.415.887-12.737 3.014 0 0 .175-3.723 1.832-4.698.872-.354 10.556-1.418 13.522-2.481 2.442-.886 4.623-1.24 6.804-1.596 7.066-4.608 12.3-9.305 18.581-10.99-3.75 1.241-9.508 8.775-10.468 10.37-7.24 2.393-12.65 4.254-13.26 4.432-1.396.177-3.228.975-4.274 1.95zm15.964 2.305c-1.92-.266-4.1-.887-6.456-1.773-1.483.71-2.791.62-4.274.266 3.664 1.418 5.408 4.254 6.28 6.647a64.735 64.735 0 016.194 4.254c-2.006-2.659-2.704-6.026-1.744-9.394z" fill="#E7AE30"/><path d="M76.812 14.842c-1.483.178-3.228.975-4.275 1.862 2.181 0 3.752.531 5.235.886 1.395.355 2.704.443 4.274-.266-.698-.709-2.18-2.836-5.234-2.482z" fill="#fff"/><path d="M82.046 17.324c2.355.886 4.449 1.507 6.455 1.773 1.483-5.14 6.805-10.281 16.75-13.383-3.49 1.063-9.77 3.013-15.092 4.697-7.24 2.393-12.65 4.254-13.26 4.432 2.966-.355 4.45 1.772 5.147 2.481z" fill="url(#paint1_linear)"/><path d="M145.903 25.655c10.206-1.861 17.098-2.747 26.432-3.013-11.777 7.445-30.096 21.714-49.463 21.714-16.749 0-29.224-10.37-32.539-15.776 9.771 11.433 38.21.177 55.57-2.925zm49.026-10.547c-8.287 0-14.132 2.305-22.594 7.622 15.005-.354 31.667 1.684 50.248 8.42-3.228-8.863-14.219-16.042-27.654-16.042z" fill="url(#paint2_linear)"/><path d="M59.801 19.806c1.832 1.33 3.664 2.659 5.409 3.988 7.066-.266 15.092 2.127 19.715 5.052 0 0 0-2.127-.872-4.52-11.166-6.647-19.018-5.14-24.252-4.52z" fill="url(#paint3_linear)"/><path d="M88.502 19.097c2.093.354 4.012.266 5.844 0 .611-1.507 1.832-2.836 3.664-3.545 1.745-.71 4.013-1.064 6.63-1.153 6.717-4.963 12.824-12.142 24.077-14.18-4.187 0-13.696 2.481-23.466 5.406-9.945 3.19-15.266 8.331-16.75 13.472z" fill="url(#paint4_linear)"/><path d="M96.876 26.276c9.945 5.317 26.52-7.711 49.027-.62-13.522-6.56-30.533-11.522-41.35-11.257-3.141 2.305-6.368 4.166-10.294 4.698-.96 2.57-.174 5.672 2.617 7.179z" fill="#E5C080"/><path d="M94.347 19.097c3.925-.62 7.153-2.393 10.294-4.698-2.618.089-4.886.444-6.63 1.153-1.832.797-3.054 2.127-3.664 3.545z" fill="url(#paint5_linear)"/><path d="M7.895 45.951c-1.657 2.57-3.053 4.697-3.838 5.76-.175.267-.436.355-.785.355H.916s9.858-14.446 10.556-15.51c.698-.974 1.657-2.215 1.657-2.924.175-.089 1.92-.62 3.054-.62.349 0 .436.265.523.531.524 3.634 2.617 15.599 3.315 18.523h-1.309c-.61 0-1.308 0-1.482-.088-.35-.089-.524-.177-.698-.886-.262-1.684-.611-3.811-.873-5.23H7.895v.09zm7.328-1.95c-.174-1.595-.872-6.735-1.047-7.799-1.308 1.95-4.1 6.204-5.147 7.8h6.194zM29.704 37.709c1.92 0 3.053.797 3.49 1.24 1.395 0 3.053-.177 3.838-.265-.174 1.95-1.134 2.215-2.704 2.304 0 .177.087.532.087.886 0 2.836-2.704 6.027-6.456 6.027-.872 0-1.483-.177-1.657-.266-.262.177-.785.532-.96.798-.174.177-.436.266-.436.531 0 .355.436.62 1.658.71 1.57.088 2.704 0 3.838.088 2.268.177 3.228 1.152 3.228 2.659 0 3.102-3.054 6.381-8.637 6.381-3.402 0-5.06-1.418-5.06-3.19 0-1.95 2.094-3.102 3.752-3.989-1.396-.531-1.832-1.772-1.745-2.659.872-.443 2.181-1.329 2.879-1.95-.698-.531-1.57-1.506-1.57-3.101 0-3.014 2.617-6.204 6.455-6.204zm-6.892 17.105c0 1.24 1.135 1.773 3.141 1.773 3.228 0 4.885-1.95 4.885-3.103 0-1.063-.96-1.506-3.49-1.506-.959 0-1.831 0-2.355.266-.872.443-2.18 1.24-2.18 2.57zM29.53 39.57c-2.181 0-3.49 2.393-3.49 4.343 0 1.329.785 2.127 2.094 2.127 2.355 0 3.49-2.66 3.49-4.343 0-1.33-.786-2.127-2.094-2.127zM70.967 37.975c.35 0 .61.177.698.443.262 1.595 1.047 7.533 1.396 9.66 1.832-2.836 4.274-7.533 5.408-10.015.262 0 1.135.089 1.832.266.262.089.35.177.35.443 0 .178-.088.355-.175.62-.873 1.95-3.751 7.623-7.677 12.674-3.664 4.875-5.67 6.382-6.979 6.382-1.134 0-1.657-.62-1.744-.886 1.22-.71 3.75-2.748 6.542-6.47-.523-3.457-1.308-9.838-2.006-12.852.262 0 1.308-.265 2.355-.265zM38.777 41.963c.436-1.861.61-2.925.698-3.457.436-.088 1.396-.354 2.355-.354.436 0 .61.177.61.443s-.174.886-.26 1.507c-.35 1.33-1.745 7.533-2.443 11.078-.088.532-.35.798-.785.886-.262 0-1.047.09-1.484.09h-.96c.35-1.773 2.269-10.193 2.269-10.193zm1.134-6.293c.61 0 2.094-.177 2.53-.266.436-.088.523-.266.61-.709.088-.266.437-1.506.437-2.127 0-.266-.175-.443-.61-.443-.699 0-2.007.355-2.356.532-.087.886-.35 2.216-.61 3.013zM52.997 41.963c.436-1.861.61-2.925.697-3.457.437-.088 1.396-.354 2.356-.354.436 0 .61.177.61.443s-.174.886-.261 1.507c-.35 1.33-1.745 7.533-2.443 11.078-.087.532-.349.798-.785.886-.174 0-1.047.09-1.57.09h-.96c.436-1.773 2.356-10.193 2.356-10.193zm1.134-6.293c.61 0 2.093-.177 2.53-.266.436-.088.523-.266.61-.709.087-.266.436-1.506.436-2.127 0-.266-.174-.443-.61-.443-.698 0-2.007.355-2.356.532 0 .886-.349 2.216-.61 3.013zM64.25 38.418h-.524c.611-2.482.873-3.368.96-3.723-1.483 0-3.053.62-3.49 2.57-.087.266-.174.887-.261 1.153-1.396 0-2.181.797-2.443 1.772.262 0 1.134.089 1.832.089h.175s-1.57 6.558-1.832 7.888c-.088.532-.262 1.152-.262 1.684 0 1.506.96 2.393 2.966 2.393 2.704 0 3.838-2.039 3.838-3.19-.261.176-1.483.974-2.704.974-.872 0-1.221-.443-1.221-1.063 0-.178 0-.532.087-.887.262-1.33 1.483-6.558 1.832-7.888h.872c2.705 0 3.577-.797 3.839-2.038-.262.088-1.047.266-3.664.266zM47.5 34.695c.35-1.418.524-2.836.611-3.368.262-.088 1.658-.531 2.355-.531.35 0 .611.177.611.531 0 .444-.087.975-.262 1.507-.087.532-3.402 14.89-3.402 14.89-.349 1.506-.698 3.368-.872 4.254 0 0-.61.088-1.483.088h-1.134c-.262 0-.437-.088-.35-.443L47.5 34.695z" fill="#A63622"/><defs><linearGradient id="paint0_linear" x1="60.279" y1="17.193" x2="84.647" y2="21.422" gradientUnits="userSpaceOnUse"><stop stop-color="#DEA02F"/><stop offset=".27" stop-color="#DC992F"/><stop offset=".709" stop-color="#D6862E"/><stop offset=".9" stop-color="#D37B2D"/></linearGradient><linearGradient id="paint1_linear" x1="77.854" y1="18.271" x2="106.399" y2="9.681" gradientUnits="userSpaceOnUse"><stop offset=".15" stop-color="#C95A29"/><stop offset="1" stop-color="#DA932F"/></linearGradient><linearGradient id="paint2_linear" x1="91.779" y1="39.096" x2="221.246" y2="21.186" gradientUnits="userSpaceOnUse"><stop stop-color="#C14B28"/><stop offset=".8" stop-color="#EDC155"/></linearGradient><linearGradient id="paint3_linear" x1="61.723" y1="16.445" x2="84.643" y2="29.47" gradientUnits="userSpaceOnUse"><stop stop-color="#FFEC31"/><stop offset=".123" stop-color="#FCE631"/><stop offset=".324" stop-color="#F6D632"/><stop offset=".576" stop-color="#EBBA31"/><stop offset=".8" stop-color="#DF9A2E"/></linearGradient><linearGradient id="paint4_linear" x1="87.916" y1="17.859" x2="128.22" y2="-.64" gradientUnits="userSpaceOnUse"><stop stop-color="#D89D5E"/><stop offset=".203" stop-color="#E6BC64"/><stop offset=".442" stop-color="#F4D968"/><stop offset=".633" stop-color="#FDEA69"/><stop offset=".75" stop-color="#FFF169"/></linearGradient><linearGradient id="paint5_linear" x1="94.143" y1="18.724" x2="104.411" y2="14.011" gradientUnits="userSpaceOnUse"><stop stop-color="#CE8847"/><stop offset="1" stop-color="#DAA65B"/></linearGradient></defs></svg>