<svg width="214" height="47" fill="none" xmlns="http://www.w3.org/2000/svg"><path fill-rule="evenodd" clip-rule="evenodd" d="M193.254.98c1.467-.19 2.993.053 4.309.723a7.391 7.391 0 013.394 3.515 7.292 7.292 0 01.401 4.925 7.288 7.288 0 01-2.363 3.682 7.382 7.382 0 01-4.256 1.706 7.364 7.364 0 01-7.306-4.492 7.284 7.284 0 01.04-5.711c.99-2.318 3.261-4.035 5.781-4.347zm-23.887 1.348c1.887-.174 3.819-.087 5.63.49 2.765.828 5.181 2.7 6.713 5.117a12.107 12.107 0 011.874 6.77v30.238c.006.463.047.983-.268 1.365-.436.6-1.397.7-1.932.173a319.698 319.698 0 01-15.388-14.429c-2.154-2.19-4.308-4.393-6.229-6.792-2.02-2.55-3.289-5.706-3.423-8.955-.157-3.393 1.106-6.815 3.4-9.324 2.451-2.711 5.996-4.33 9.623-4.653zm8.564 26.556c-1.123.29-1.898 1.51-1.653 2.642.192 1.18 1.426 2.058 2.62 1.856 1.251-.15 2.206-1.451 1.944-2.682-.198-1.295-1.647-2.209-2.911-1.816zM209.02 5.993c1.595-.266 3.289.531 4.093 1.919.891 1.45.693 3.457-.472 4.7-1.118 1.271-3.08 1.693-4.622.988-1.578-.659-2.597-2.399-2.382-4.087.152-1.757 1.625-3.278 3.383-3.52zm-5.758 9.4c-2.655.334-5.042 2.161-6.049 4.618a7.583 7.583 0 00-.11 5.584 7.611 7.611 0 002.899 3.654 7.7 7.7 0 004.465 1.3 7.702 7.702 0 004.495-1.56c1.956-1.463 3.126-3.903 3.016-6.33-.065-2.538-1.526-4.978-3.726-6.261a7.837 7.837 0 00-4.99-1.006zm-71.923 4.502c.058-1.34 1.321-2.48 2.672-2.404 1.327.005 2.527 1.167 2.538 2.491.064.792-.419 1.463-.739 2.145-.571 1.127-1.147 2.254-1.717 3.381-.111.22-.239.527-.53.52-.483.007-.961.012-1.444-.005-.204.006-.303-.249-.192-.405.454-1.023.92-2.04 1.374-3.063-1.176-.29-2.067-1.446-1.962-2.66zm57.957-2.18c1.63-.334 3.417.36 4.383 1.706 1.048 1.388 1.124 3.405.181 4.868a4.391 4.391 0 01-3.802 2.046c-1.572-.012-3.085-.942-3.802-2.324-.745-1.376-.652-3.15.233-4.44a4.385 4.385 0 012.807-1.855zm-101.458.18c.192-.196.483-.202.745-.202.838.011 1.683-.006 2.52.006a.716.716 0 01.705.751c.006 7.128 0 14.261.006 21.389.047.41-.274.832-.704.827-.932.011-1.87 0-2.8.005-.21.018-.466-.098-.478-.33-.07-.485-.1-.976-.1-1.467-.727 1.208-2.083 1.919-3.457 2.11-1.782.237-3.65-.157-5.153-1.15-1.152-.758-2.066-1.856-2.649-3.1-.722-1.537-.948-3.271-.774-4.953.186-1.78.903-3.527 2.143-4.845a7.107 7.107 0 014.162-2.173c1.293-.174 2.655-.11 3.878.393a3.773 3.773 0 011.758 1.433c-.076-1.277-.012-2.555-.035-3.832v-4.209c-.006-.237.046-.491.233-.653zm-4.803 10.637c-.96.179-1.84.751-2.364 1.572-.67 1.023-.827 2.295-.693 3.486.117 1.046.547 2.093 1.363 2.792.96.844 2.369 1.075 3.586.734a3.6 3.6 0 002.119-1.665c.611-1.052.745-2.318.594-3.503-.134-1.052-.623-2.098-1.49-2.751-.874-.665-2.05-.868-3.115-.665zm23.631-10.55c.169-.237.477-.3.751-.29.867.007 1.735-.01 2.602.007.39 0 .716.364.693.751v21.476c.017.375-.303.734-.693.734-.931.011-1.863 0-2.794.006-.169 0-.408-.018-.46-.208-.111-.503-.111-1.018-.134-1.527-.21.197-.344.457-.553.66-.856.872-2.067 1.329-3.272 1.433-1.595.127-3.237-.231-4.605-1.075-1.31-.804-2.33-2.04-2.929-3.44a9.52 9.52 0 01-.087-7.104c.582-1.457 1.601-2.758 2.934-3.602 1.403-.902 3.121-1.243 4.774-1.08 1.368.11 2.818.63 3.604 1.814.017-2.566.006-5.139.006-7.711.023-.29-.024-.607.163-.844zm-4.792 10.561c-.949.191-1.81.78-2.323 1.602-.657 1.034-.803 2.312-.657 3.509.128 1.023.558 2.046 1.356 2.728.955.838 2.352 1.07 3.563.74a3.597 3.597 0 002.084-1.572c.646-1.035.798-2.307.67-3.503-.123-1.064-.582-2.134-1.444-2.804-.903-.717-2.137-.925-3.249-.7zM1.191 18.22c.163-.052.343-.046.518-.052 2.043.011 4.087-.006 6.13.006 2.65.04 5.356.867 7.365 2.63 1.956 1.682 3.086 4.156 3.406 6.677.355 2.798 0 5.78-1.473 8.243-1.188 2.012-3.15 3.52-5.362 4.266-1.35.463-2.783.677-4.203.677H1.534c-.268.011-.547-.087-.693-.318-.157-.226-.122-.515-.128-.775-.017-6.856.012-13.724-.005-20.585-.018-.324.163-.66.483-.77zm3.953 4.017c-.023 4.793-.006 9.585-.012 14.377 1.415-.034 2.859.122 4.239-.248 1.408-.353 2.707-1.197 3.528-2.4.96-1.38 1.286-3.11 1.246-4.763-.03-1.59-.425-3.231-1.404-4.514-.82-1.099-2.055-1.862-3.382-2.197-1.368-.376-2.806-.203-4.215-.255zm35.508-3.248c-.041-.405.285-.821.71-.81 2.73-.011 5.466 0 8.203-.005 1.566 0 3.161.416 4.436 1.335 1.28.902 2.183 2.3 2.538 3.815.355 1.526.262 3.18-.384 4.613-.588 1.33-1.682 2.41-2.986 3.041-.402.214-.833.335-1.252.509 1.49 2.774 2.94 5.567 4.419 8.347.11.203.227.492.052.688-.122.156-.343.139-.518.145-1.083-.006-2.166 0-3.249-.006-.518 0-.978-.364-1.193-.815-1.34-2.613-2.696-5.22-4.029-7.833-.769-.018-1.537-.006-2.3-.006-.005 2.636 0 5.278-.005 7.914a.734.734 0 01-.763.74c-.99 0-1.985.006-2.975-.006a.704.704 0 01-.693-.572c-.035-.26-.017-.526-.017-.786.005-6.758.005-13.533.005-20.308zM45.093 22c.018 2.075 0 4.156.012 6.231 1.217 0 2.434.006 3.645 0 .972-.011 2.008-.289 2.695-1.012.705-.722.897-1.803.716-2.768a2.784 2.784 0 00-1.187-1.856c-.728-.486-1.63-.624-2.486-.607-1.136.012-2.265-.023-3.395.012zm15.027 4.792a7.615 7.615 0 015.135-2.203c1.548-.034 3.138.255 4.483 1.035a6.57 6.57 0 012.602 2.792c.733 1.486.96 3.174.885 4.81.006.404-.344.786-.769.745-3.51 0-7.02.006-10.531-.005.029.936.454 1.844 1.147 2.48.814.763 1.962 1.133 3.073 1.063.891-.034 1.805-.33 2.446-.97.285-.267.483-.608.68-.943.152-.278.519-.37.804-.278.792.237 1.578.469 2.37.711.308.081.483.451.343.74a6.681 6.681 0 01-2.637 3.197c-1.112.711-2.422 1.081-3.738 1.156-1.659.104-3.359-.254-4.791-1.092a7.568 7.568 0 01-3.109-3.44c-.722-1.595-.914-3.399-.687-5.122.233-1.745 1.025-3.433 2.294-4.676zm2.823 2.266c-.53.537-.844 1.266-.937 2.006 2.346.04 4.692.011 7.039.017-.035-.855-.385-1.723-1.054-2.277-.728-.62-1.723-.821-2.655-.787-.89.03-1.776.393-2.393 1.04zm77.018-4.405c-1.619.225-3.185 1.087-4.087 2.463-.949 1.422-1.054 3.381-.175 4.855.699 1.174 1.968 1.885 3.261 2.243.96.249 1.927.445 2.893.682.448.122.902.324 1.188.7.378.503.297 1.266-.14 1.711-.367.387-.908.55-1.432.584-.809.058-1.683-.122-2.3-.67-.396-.336-.652-.816-.768-1.313-.024-.197-.216-.37-.419-.306-.874.185-1.753.375-2.626.572-.39.075-.641.514-.518.89.39 1.359 1.362 2.532 2.608 3.209 1.409.774 3.074.965 4.657.832 1.491-.133 2.999-.723 4.006-1.856 1.24-1.37 1.613-3.486.815-5.168-.501-1.063-1.461-1.855-2.527-2.33-1.007-.462-2.113-.606-3.184-.855-.6-.15-1.275-.18-1.77-.595-.472-.376-.577-1.099-.268-1.613.303-.526.902-.81 1.49-.885.775-.086 1.619.081 2.201.63.297.266.466.625.635.977a.606.606 0 00.669.33c.774-.156 1.543-.341 2.311-.514a.71.71 0 00.519-.845c-.35-1.248-1.235-2.323-2.37-2.954-1.397-.774-3.085-.965-4.669-.774zm-112.624.908c1.14-.608 2.48-.717 3.75-.567.005 1.416 0 2.832.005 4.249-1.048-.18-2.166-.191-3.161.22a3.207 3.207 0 00-1.642 1.497c-.408.774-.53 1.665-.536 2.532-.006 2.15.006 4.3-.006 6.451.012.376-.308.728-.692.728-.932.012-1.863 0-2.795.006a.732.732 0 01-.757-.601c-.029-.254-.011-.509-.017-.763V25.884c-.012-.248.07-.503.273-.659.21-.185.507-.162.763-.168.774.006 1.555 0 2.329.006.373-.023.74.278.75.654.024.537 0 1.075.007 1.612.401-.74.978-1.387 1.729-1.768zm85.61-.284c.076-.202.321-.225.507-.225h3.062c.588-.018 1.141.393 1.351.925 1.234 2.722 2.503 5.434 3.726 8.156.157-.162.21-.387.303-.59 1.071-2.537 2.148-5.075 3.219-7.613.204-.514.751-.89 1.316-.878.99.006 1.979-.006 2.975.006.215-.024.431.15.402.381-.041.312-.216.584-.332.873l-8.96 19.735a1.364 1.364 0 01-1.38.775c-.966-.011-1.939.012-2.899-.011-.32-.012-.414-.4-.285-.642 1.117-2.503 2.288-4.983 3.4-7.486-2.061-4.18-4.099-8.37-6.154-12.55-.117-.272-.344-.544-.251-.856zm79.312 4.081c1.438-.26 2.969.035 4.186.833a5.73 5.73 0 012.486 3.532 5.73 5.73 0 01-.751 4.353 5.815 5.815 0 01-3.546 2.509 5.82 5.82 0 01-4.587-.839c-1.404-.936-2.352-2.514-2.504-4.185a5.689 5.689 0 011.042-3.879 5.781 5.781 0 013.674-2.324zM32.658 35.157c-1.217.196-2.23 1.237-2.381 2.45-.175 1.134.42 2.325 1.42 2.891 1.002.595 2.352.503 3.267-.208 1.018-.752 1.426-2.197.931-3.359-.49-1.248-1.915-2.029-3.237-1.774zm154.46 7.156a2.034 2.034 0 011.566.324c.513.358.839.971.839 1.595a1.993 1.993 0 01-1.025 1.758 2.025 2.025 0 01-2.096-.099 1.977 1.977 0 01-.844-1.936c.105-.804.763-1.486 1.56-1.642z" fill="#573F94"/></svg>