<svg width="713" height="227" fill="none" xmlns="http://www.w3.org/2000/svg"><g opacity=".7"><path opacity=".55" d="M462.823 79.962c0-8.03 6.171-14.539 13.785-14.539s13.785 6.51 13.785 14.54S484.222 94.5 476.608 94.5s-13.785-6.509-13.785-14.539z" fill="#C7BEFF"/><path fill-rule="evenodd" clip-rule="evenodd" d="M482.232 72.442l6.754-6.885c.5.243 1.049.39 1.639.39.732 0 1.41-.22 1.992-.586 3.014 1.233 6.193 1.885 9.477 1.885 4.102 0 8.117-1.004 11.725-2.912a10.421 10.421 0 004.113 6.232c-6.297 2.49-10.8 8.813-10.8 16.17v2.45c0 .72.566 1.305 1.264 1.305.697 0 1.263-.585 1.263-1.306v-2.449c0-3.904 1.483-7.589 4.177-10.372 2.695-2.784 6.258-4.318 10.036-4.318 3.778 0 7.342 1.534 10.035 4.318 2.694 2.783 4.177 6.468 4.177 10.372v2.45c0 .72.565 1.305 1.262 1.305.699 0 1.264-.583 1.265-1.306v-2.449c0-7.414-4.573-13.779-10.948-16.228a10.443 10.443 0 004.288-8.457c0-5.164-3.719-9.447-8.567-10.246a26.501 26.501 0 002.196-10.537c0-4.326-1.07-8.573-3.075-12.351a3.89 3.89 0 00.527-1.938c0-.6-.145-1.16-.384-1.669l4.732-4.826h4.804c.527 1.508 1.931 2.598 3.59 2.598 2.378 0 4.256-2.227 3.734-4.745-.309-1.483-1.497-2.673-2.956-2.969-1.988-.405-3.759.78-4.368 2.518h-5.858l-5.48 5.587a3.722 3.722 0 00-1.638-.39 3.72 3.72 0 00-.856.106c-4.782-5.016-11.378-7.9-18.257-7.9-7.541 0-14.305 3.375-18.976 8.696l-1.611 2.03a26.145 26.145 0 00-4.9 15.253c0 8.17 3.804 15.87 10.197 20.77l-.002.013c0 .6.144 1.16.385 1.669l-6.01 6.124h-1.616V60.41H453.96v18.048h25.602v-6.016h2.67zm43.597-2.89c3.212-.923 5.571-3.936 5.571-7.501 0-4.298-3.429-7.794-7.647-7.794-4.216 0-7.645 3.496-7.645 7.794 0 3.592 2.395 6.623 5.643 7.522a16.192 16.192 0 014.078-.02zm10.669-50.367c0-.716.569-1.299 1.275-1.299.703 0 1.273.583 1.273 1.3 0 .715-.57 1.298-1.273 1.298a1.287 1.287 0 01-1.275-1.299zm-14.019 7.794c0 .716-.569 1.299-1.274 1.299-.702 0-1.273-.583-1.273-1.3 0-.714.571-1.298 1.273-1.298.705 0 1.274.584 1.274 1.299zm-33.13 35.072c0-.716.571-1.3 1.274-1.3.703 0 1.275.584 1.275 1.3 0 .716-.572 1.299-1.275 1.299-.702 0-1.274-.583-1.274-1.3zm12.744-44.165c6.024 0 11.801 2.462 16.078 6.752a3.901 3.901 0 00-.787 2.34c0 2.15 1.715 3.898 3.821 3.898.461 0 .897-.096 1.309-.25a23.736 23.736 0 012.516 10.642c0 3.637-.847 7.236-2.43 10.462-4.897.569-8.742 4.686-9.01 9.762-5.814 3.431-13.051 4.069-19.343 1.75.12-.377.2-.773.2-1.191 0-2.15-1.715-3.897-3.821-3.897-1.153 0-2.175.533-2.878 1.36-5.402-4.425-8.591-11.142-8.591-18.246-.003-12.892 10.288-23.382 22.936-23.382zm12.275 20.464c0-6.784-5.269-12.305-11.748-12.305-3.185 0-6.164 1.31-8.394 3.692l-1.864-1.915c2.723-2.91 6.368-4.512 10.256-4.512 7.919 0 14.361 6.747 14.361 15.04h-2.611zm-18.489 4.011h-2.532v-5.104c0-4.927 3.978-8.933 8.862-8.933v2.552c-3.49 0-6.33 2.861-6.33 6.38v5.105zm6.823-9.024c1.899 0 3.446 1.735 3.446 3.867v5.157h-2.297v-5.156c0-.711-.514-1.29-1.149-1.29s-1.149.579-1.149 1.29h-2.298c0-2.133 1.544-3.868 3.447-3.868zm0 15.04a3.447 3.447 0 01-3.447-3.437v-4.584h2.298v4.584c0 .631.513 1.146 1.149 1.146.635 0 1.148-.515 1.148-1.146h2.298a3.446 3.446 0 01-3.446 3.438zm-9.355-3.008c0 3.599 2.423 6.823 6.032 8.022l.861-2.292c-2.576-.856-4.307-3.16-4.307-5.73h-2.586zm17.724-8.264c0-3.94-2.374-7.469-5.91-8.781l-.842 2.508c2.522.938 4.22 3.459 4.22 6.273v7.98c0 3.666-2.839 6.649-6.33 6.649v2.66c4.884 0 8.862-4.176 8.862-9.31v-7.98zm-20.075 10.618c1.108 5.298 5.972 9.144 11.562 9.144 6.505 0 11.798-5.129 11.799-11.43v-5.081h2.622v5.08c0 7.704-6.47 13.971-14.421 13.971-6.833 0-12.776-4.7-14.134-11.178l2.572-.506zm-.309-16.392c-1.481 2.034-2.263 4.356-2.263 6.714v7.324h3.075v-7.324c0-1.93.639-3.83 1.848-5.492l-2.66-1.221zm-13.685 44.55h-20.48V62.99h20.48v12.892zm-16.805-10.458h13.128c.726 0 1.313.45 1.313 1.003 0 .554-.587 1.003-1.313 1.003h-13.128c-.725 0-1.313-.45-1.313-1.003 0-.554.588-1.003 1.313-1.003zm13.128 5.014h-13.128c-.725 0-1.313.449-1.313 1.002 0 .554.588 1.003 1.313 1.003h13.128c.726 0 1.313-.449 1.313-1.003 0-.553-.587-1.002-1.313-1.002zm56.75-44.119h10.24c.707 0 1.281.449 1.281 1.003 0 .553-.574 1.002-1.281 1.002h-10.24c-.707 0-1.28-.448-1.28-1.002s.573-1.003 1.28-1.003zm10.24 5.013h-10.24c-.707 0-1.28.45-1.28 1.003 0 .554.573 1.003 1.28 1.003h10.24c.707 0 1.281-.449 1.281-1.003 0-.554-.574-1.003-1.281-1.003zm-10.24 4.997h10.24c.707 0 1.281.449 1.281 1.003 0 .553-.574 1.002-1.281 1.002h-10.24c-.707 0-1.28-.448-1.28-1.002s.573-1.003 1.28-1.003z" fill="#fff"/><path d="M184.181 98.59a.566.566 0 00.436-.187c.125-.124.187-.342.187-.56-.031-.436-.343-.778-.716-.81h-.032a.654.654 0 00-.404.156c-.125.125-.187.343-.187.56 0 .436.342.81.716.841zM184.181 99.12a.566.566 0 00-.436.186c-.156.156-.218.373-.218.591v1.183a.87.87 0 00.249.623c.125.124.28.186.436.186v.094-.094c.374 0 .654-.373.654-.809v-1.152c0-.435-.311-.809-.685-.809zM182.188 85.268c-.125 0-.249.031-.311.093-.032.032-.063.094-.032.187.032.218.374.467.686.53.186.03.342 0 .404-.094.032-.062.063-.093.032-.187-.063-.218-.374-.467-.686-.498-.031-.03-.062-.03-.093-.03zM181.628 84.428c.031.218.342.435.685.467h.124c.125 0 .249-.032.281-.094.031-.03.031-.093.031-.155l-.156-.53c-.062-.186-.343-.404-.654-.435h-.125c-.124 0-.249.03-.28.093-.031.031-.031.093-.031.124l.125.53zM175.399 90.217c0 .342.342.591.778.591v.094-.094a.916.916 0 00.592-.218.502.502 0 00.156-.342c0-.311-.343-.591-.779-.591-.405 0-.747.249-.747.56zM174.122 90.84c.436 0 .779-.28.779-.623a.502.502 0 00-.156-.342.832.832 0 00-.561-.218h-.031l-1.09.03c-.405.032-.747.312-.778.623a.47.47 0 00.124.343c.125.155.343.218.592.218l1.121-.031zM190.067 91.649c-.062 0-.093.031-.156.062-.062.062-.062.187-.062.343.062.31.312.622.561.684l.623.156h.062c.062 0 .093-.031.124-.062.063-.063.063-.187.063-.343-.063-.31-.281-.591-.53-.653l-.623-.156c0-.031-.031-.031-.062-.031zM189.195 92.458h.062a.24.24 0 00.156-.062c.062-.063.093-.218.062-.343-.062-.31-.311-.622-.592-.684h-.093a.24.24 0 00-.156.062c-.062.062-.093.187-.062.342.093.312.374.623.623.685zM179.198 94.73a.927.927 0 00-.623-.249.845.845 0 00-.529.187.732.732 0 00-.218.498c0 .218.093.436.249.591a.927.927 0 00.623.25c.218 0 .405-.063.529-.219a.732.732 0 00.218-.498.835.835 0 00-.249-.56zM177.112 95.882a.897.897 0 00-.561.218l-.872.809a.853.853 0 00-.249.591c0 .218.094.436.249.592a.871.871 0 00.623.249.852.852 0 00.592-.25l.841-.84a.753.753 0 00.218-.56.853.853 0 00-.249-.591.855.855 0 00-.592-.218zM186.984 88.256c.062 0 .125 0 .156-.062a.238.238 0 00.062-.156c0-.156-.093-.311-.249-.467-.156-.155-.374-.249-.529-.249a.237.237 0 00-.156.063.238.238 0 00-.062.155c0 .156.093.311.249.467.187.156.373.249.529.249zM187.7 87.603c.031 0 .094 0 .156-.063l.342-.342c.032-.031.032-.062.032-.125 0-.124-.094-.31-.25-.435-.155-.156-.342-.25-.498-.25-.031 0-.093 0-.124.032l-.374.311c-.031.031-.062.062-.062.125 0 .124.093.31.249.466.187.187.405.28.529.28zM177.641 86.762c.156.093.343.187.561.187.156 0 .311-.031.405-.125.093-.062.155-.156.155-.249 0-.124-.093-.249-.218-.342a1.072 1.072 0 00-.56-.156c-.156 0-.312.031-.405.094-.093.062-.156.155-.156.248 0 .125.063.25.218.343zM175.616 85.392l.686.467c.249.187.716.187.965.031.093-.062.156-.155.156-.249 0-.093-.063-.218-.187-.31l-.685-.468c-.125-.093-.312-.124-.467-.124-.156 0-.343.03-.436.124-.094.063-.156.156-.156.25-.062.093 0 .186.124.28zM188.105 95.415a.283.283 0 00-.249.124c-.187.218-.125.654.093.965.125.156.281.25.436.25.094 0 .187-.063.249-.125.156-.25.125-.654-.093-.965-.125-.156-.311-.249-.436-.249zM189.6 97.034c-.125-.156-.249-.218-.374-.218-.093 0-.187.062-.249.124-.156.25-.125.685.093.965l.561.747c.187.25.436.28.592.063.155-.25.124-.685-.063-.965l-.56-.716zM180.942 98.31a1.105 1.105 0 00-.311-.062.7.7 0 00-.685.498l-.436 1.12c-.156.436.031.934.467 1.121a.923.923 0 00.311.062.768.768 0 00.717-.529l.405-1.12c.155-.405-.063-.903-.468-1.09zM181.627 96.38c-.093-.063-.218-.063-.311-.063a.678.678 0 00-.623.436c-.156.405.062.872.467 1.058.094.063.218.063.312.063.28 0 .529-.187.623-.467.124-.374-.094-.84-.468-1.027zM184.586 86.7a.809.809 0 00.342.093c.063 0 .218 0 .249-.155.063-.187-.155-.467-.467-.623a.809.809 0 00-.342-.093c-.063 0-.218 0-.281.156 0 .186.156.466.499.622zM184.866 85.735a.813.813 0 00.343.093c.062 0 .218 0 .218-.124l.124-.498c.031-.156-.124-.405-.436-.56a.81.81 0 00-.342-.094c-.063 0-.187 0-.218.125l-.156.498c-.031.124.124.404.467.56zM173.623 87.758l.966.249a.862.862 0 00.28.031c.311 0 .561-.124.685-.311.062-.094.062-.187.031-.311-.062-.125-.218-.25-.405-.312l-.934-.249c-.062-.03-.156-.03-.218-.03-.28 0-.56.124-.685.31a.37.37 0 00-.031.312c0 .155.124.28.311.311zM176.395 88.568c.094.03.187.062.312.062.28 0 .529-.125.623-.311.062-.094.062-.187 0-.312-.063-.155-.218-.28-.436-.342-.094-.031-.187-.031-.312-.031-.28 0-.529.124-.623.311-.062.093-.062.187-.031.311a.887.887 0 00.467.312zM191.033 94.855l-.623-.436c-.063-.062-.156-.062-.218-.062-.125 0-.218.093-.249.28-.063.311.124.685.373.872l.654.435c.187.156.374.031.436-.218 0-.342-.155-.715-.373-.871zM189.039 94.606c.094.062.156.093.249.093.156 0 .25-.093.281-.28.062-.311-.125-.685-.405-.871-.094-.063-.156-.094-.249-.094-.156 0-.249.094-.281.28-.062.312.125.716.405.872zM175.648 93.797a.64.64 0 00-.031-.53.828.828 0 00-.748-.435.92.92 0 00-.311.062l-1.09.436a.914.914 0 00-.467.436.763.763 0 000 .529.813.813 0 00.716.436c.125 0 .249-.031.343-.063l1.121-.435a.917.917 0 00.467-.436zM176.893 93.547c.094 0 .187-.03.312-.062a.69.69 0 00.405-.373.562.562 0 00-.032-.498c-.124-.28-.436-.436-.778-.436-.094 0-.187.03-.28.062a.856.856 0 00-.436.374.559.559 0 00.031.498c.124.249.436.435.778.435zM187.888 89.159c-.063 0-.125.062-.125.093-.062.093-.031.28.093.436.156.28.499.498.686.436.062 0 .093-.063.124-.125.062-.124.031-.28-.093-.436-.156-.249-.405-.436-.623-.436-.031.032-.062.032-.062.032zM189.506 89.906h.062l.53-.125c.031 0 .093-.03.093-.093.031-.094 0-.28-.093-.436-.156-.249-.374-.436-.592-.436h-.031l-.529.094c-.063 0-.094.03-.125.093-.031.094 0 .28.093.436.125.28.374.467.592.467zM178.7 84.677c.124.187.436.311.716.311h.156c.155-.031.249-.093.28-.187a.243.243 0 00-.062-.249l-.436-.56c-.125-.156-.405-.28-.654-.28h-.156c-.156.031-.249.093-.28.187-.031.093 0 .155.031.218l.405.56zM179.447 85.486c-.031.093 0 .187.063.28.124.187.436.343.716.343h.156c.124-.031.249-.094.28-.187.031-.093 0-.187-.062-.28a.987.987 0 00-.717-.343h-.155c-.125.031-.249.094-.281.187zM187.763 98.963c-.094-.28-.312-.466-.53-.466-.062 0-.124 0-.187.03-.28.125-.405.561-.249.966l.343.996c.093.28.28.435.498.435a.445.445 0 00.187-.062c.28-.155.405-.591.28-.965l-.342-.934zM187.077 97.158c-.125-.28-.374-.498-.592-.498-.062 0-.124 0-.155.031-.281.125-.374.53-.218.934.124.28.373.498.591.498.063 0 .125 0 .187-.031.249-.125.343-.56.187-.934z" fill="#fff"/><path d="M187.264 92.956s.031 0 0-.03l-.529-2.771c0-.031-.062-.093-.094-.093l-1.993-.405-.373-1.837c0-.03-.063-.093-.125-.093l-2.896-.467h-.063l.281 1.868-2.461-.25c-.031 0-.062 0-.062.032v.031l.249 2.864c0 .062.063.093.125.093l2.554.218.249 2.428c0 .062.062.124.124.124l3.177.311h.031s.031-.03 0-.062l-.311-2.397 2.117.436z" fill="#CB1A20"/><path d="M184.591 74.316c0-8.626 6.866-15.619 15.336-15.619 8.471 0 15.338 6.993 15.338 15.619 0 8.625-6.867 15.618-15.338 15.618-8.47 0-15.336-6.993-15.336-15.618z" fill="#C7BEFF" fill-opacity=".55"/><path fill-rule="evenodd" clip-rule="evenodd" d="M163.822 80.527c0 .694-.56 1.258-1.251 1.258-.69 0-1.251-.564-1.251-1.258v-4.305c0-3.723 3.01-6.753 6.71-6.753h27.833c3.7 0 6.71 3.03 6.71 6.753v23.226c0 .696-.56 1.257-1.25 1.257a1.254 1.254 0 01-1.252-1.257V76.222c0-2.336-1.887-4.236-4.208-4.236H168.03c-2.32 0-4.208 1.9-4.208 4.236v4.305zm4.218 57.539h16.225c.684 0 1.239.558 1.239 1.246s-.555 1.247-1.239 1.247H168.04c-3.663 0-6.643-3.001-6.643-6.69v-5.971l-4.541-3.713a4.977 4.977 0 01-1.807-3.362 4.982 4.982 0 011.084-3.663 4.916 4.916 0 012.103-1.522 5.026 5.026 0 01-.399-6.734 4.919 4.919 0 012.1-1.525 4.976 4.976 0 01-1.479-3.067 4.982 4.982 0 011.083-3.663 4.935 4.935 0 011.856-1.426v-.305l-5.648-4.619a4.966 4.966 0 01-1.806-3.362 4.99 4.99 0 011.083-3.663 4.914 4.914 0 013.337-1.82 4.892 4.892 0 013.034.668 1.242 1.242 0 011.237-1.235c.685 0 1.24.558 1.24 1.247v12.69a4.895 4.895 0 012.475.966V76.556c0-.938.759-1.702 1.691-1.702h6.601c.885 0 1.658.57 1.927 1.42l.137.433c.084.268.328.45.609.45h9.57a.638.638 0 00.608-.45l.136-.434a2.016 2.016 0 011.926-1.419h6.04c.932 0 1.69.763 1.69 1.702v18.095c0 .69-.554 1.247-1.237 1.247a1.241 1.241 0 01-1.238-1.247V77.347h-4.921l-.037.113a3.103 3.103 0 01-2.969 2.189h-9.569a3.104 3.104 0 01-2.969-2.19l-.036-.112h-5.482v24.461l2.71 2.217a4.977 4.977 0 011.807 3.362 4.988 4.988 0 01-3.186 5.186 5.025 5.025 0 01.398 6.732 4.907 4.907 0 01-2.103 1.522 5.025 5.025 0 01.386 6.749l-.007.009-.005.006v5.487h15.115c.683 0 1.238.558 1.238 1.247 0 .688-.555 1.246-1.238 1.246H168.04a1.698 1.698 0 01-1.691-1.702v-4.65c-.27.075-.549.132-.836.162a4.912 4.912 0 01-1.639-.106v4.594c0 2.315 1.868 4.197 4.166 4.197zM156.405 90.68c.069.665.391 1.263.905 1.683l4.087 3.343v-6.442l-.957-.782a2.468 2.468 0 00-3.493.365 2.495 2.495 0 00-.542 1.833zm6.73 10.629c-.66.07-1.253.393-1.671.912a2.493 2.493 0 00-.543 1.834c.07.665.39 1.262.905 1.682l5.02 4.106a2.472 2.472 0 003.491-.366c.419-.518.611-1.17.543-1.833a2.482 2.482 0 00-.904-1.683l-5.021-4.105a2.446 2.446 0 00-1.82-.547zm-1.705 8.256a2.462 2.462 0 00-1.671.912 2.515 2.515 0 00.363 3.517l5.019 4.104a2.474 2.474 0 003.493-.365 2.517 2.517 0 00-.363-3.517l-2.915-2.383a.242.242 0 00-.036-.027l-.036-.027-2.099-1.717a2.464 2.464 0 00-1.755-.497zm-3.375 9.166a2.503 2.503 0 00-.542 1.835c.069.664.39 1.262.905 1.683l5.018 4.105a2.47 2.47 0 003.493-.365 2.515 2.515 0 00-.363-3.518l-2.912-2.381a.513.513 0 00-.037-.028l-.038-.027-2.107-1.724a2.459 2.459 0 00-1.487-.503c-.723 0-1.439.316-1.93.923zm71.762 33.706l-7.362-10.345c-.386-.544-1.066-.61-1.52-.148-.455.461-.51 1.274-.123 1.816l7.361 10.348c.213.301.518.454.822.454a.977.977 0 00.699-.307c.454-.461.509-1.274.123-1.818zm-30.788-3.985c.299.051.566.224.749.481l2.551 3.584c.396.558.299 1.356-.218 1.783a1.127 1.127 0 01-.718.262c-.355 0-.706-.171-.937-.499l-2.275-3.193c-4.849-1.056-8.728-5.188-9.727-10.435l-.436-2.281c-.607-3.187-.118-6.5 1.379-9.326l5.841-11.034a1.604 1.604 0 00-.113-1.683l-5.472-7.557c-2.294-3.17-2.18-7.668.275-10.696l.291-.362c.552-.68 1.349-1.08 2.188-1.098.839-.019 1.649.35 2.225 1.007l5.22 5.964a1.342 1.342 0 01-.048 1.797 1.124 1.124 0 01-1.67-.052l-5.221-5.965a.582.582 0 00-.461-.208.596.596 0 00-.452.227l-.293.361c-1.712 2.112-1.791 5.25-.191 7.462l5.472 7.555c.943 1.303 1.061 3.072.302 4.507l-5.842 11.034a11.568 11.568 0 00-1.116 7.556l.435 2.281c.837 4.386 4.157 7.813 8.262 8.528zm16.814-13.863a1.79 1.79 0 01-.437-1.169v-6.563c0-4.597-1.766-8.971-4.971-12.318l-6.68-6.97a1.313 1.313 0 00-1.834-.054 1.26 1.26 0 00-.054 1.802l6.68 6.972c2.752 2.87 4.267 6.624 4.267 10.568v6.565c0 1.03.375 2.032 1.053 2.818l3.345 3.87c.257.296.623.449.988.449.297 0 .596-.099.84-.303.545-.456.611-1.26.148-1.797l-3.345-3.87zm-40.159-8.55h9.31c.656 0 1.19.599 1.19 1.337 0 .737-.534 1.335-1.19 1.335h-9.31c-1.505 0-2.728-1.374-2.728-3.064v-5.719c0-1.689 1.223-3.065 2.728-3.065h11.947c.659 0 1.191.599 1.191 1.338 0 .737-.532 1.337-1.191 1.337h-11.947c-.192 0-.349.175-.349.39v5.719c0 .217.157.392.349.392z" fill="#fff"/><path d="M0 140.904c0-13.683 10.892-24.774 24.328-24.774 13.437 0 24.329 11.091 24.329 24.774 0 13.682-10.892 24.774-24.329 24.774C10.892 165.679 0 154.588 0 140.904z" fill="#C7BEFF" fill-opacity=".55"/><path fill-rule="evenodd" clip-rule="evenodd" d="M48.738 99.96h6.387c3.434 0 6.227 2.837 6.225 6.325v37.168c0 2.081-.994 3.93-2.524 5.084l.001.044v3.844c0 1.368-1.094 2.482-2.44 2.482h-2.523c-1.346 0-2.44-1.114-2.44-2.482v-2.646H31.082v2.646c0 1.368-1.095 2.482-2.44 2.482h-2.523c-1.346 0-2.44-1.114-2.44-2.482v-3.844-.022l.001-.022a6.356 6.356 0 01-2.525-5.084v-37.168c0-3.488 2.793-6.325 6.225-6.325h6.388V80.57h-.082c-1.346 0-2.442-1.114-2.442-2.482v-2.563c0-1.368 1.096-2.48 2.442-2.48H48.82c1.346 0 2.442 1.112 2.442 2.48v2.563c0 1.368-1.096 2.482-2.442 2.482h-.081v19.39zm2.687 21.705a1.19 1.19 0 011.18-1.199h6.386v-2.728H23.517v2.728H47.56c.651 0 1.18.537 1.18 1.199a1.19 1.19 0 01-1.18 1.199H28.56v19.39h25.386v-19.39h-1.342a1.19 1.19 0 01-1.18-1.199zm-22.865-6.326h25.386v-7.855H28.56v7.855zm5.046-39.814v2.563c0 .046.037.084.082.083H48.82a.082.082 0 00.08-.083v-2.563a.082.082 0 00-.08-.082H33.688a.082.082 0 00-.082.082zM46.38 80.57H36.128v19.39H46.38V80.57zm8.747 21.788H27.382c-2.132 0-3.865 1.762-3.865 3.927v9.054h2.685v-9.054a1.19 1.19 0 011.18-1.199h27.745c.651 0 1.18.537 1.18 1.199v9.054h2.684v-9.054c0-2.165-1.734-3.927-3.864-3.927zm-26.484 50.15a.082.082 0 00.08-.083v-2.646h-1.341c-.46 0-.91-.052-1.343-.15v2.796c0 .047.037.083.082.083h2.522zm27.745 0a.081.081 0 00.08-.083v-2.796c-.431.098-.88.15-1.341.15h-1.343v2.646c0 .047.037.083.082.083h2.522zm-29.008-5.126h27.745c2.132 0 3.864-1.762 3.864-3.927v-20.591h-2.684v20.591a1.19 1.19 0 01-1.18 1.199H27.38a1.19 1.19 0 01-1.18-1.199v-20.591h-2.684v20.591c0 2.165 1.734 3.927 3.864 3.927zm5.537-21.558h17.729c.654 0 1.184.583 1.184 1.302 0 .718-.53 1.301-1.184 1.301H36.634v1.48c0 .72-.53 1.303-1.184 1.303-.655 0-1.185-.583-1.185-1.303v-1.48h-1.348c-.654 0-1.184-.583-1.184-1.301 0-.719.53-1.302 1.184-1.302z" fill="#fff"/><path d="M215.222 92.61c11.304-9.13 39.131-29.478 60.001-37.826" stroke="#fff" stroke-opacity=".8"/><path d="M280.72 53.825c-.302 1.759-1.947 2.944-3.674 2.647-1.727-.296-2.883-1.962-2.581-3.721.302-1.76 1.947-2.945 3.675-2.648 1.727.297 2.882 1.963 2.58 3.722z" fill="#fff"/><path d="M314.957 32.6c0-13.682 10.891-24.774 24.327-24.774 13.438 0 24.33 11.092 24.33 24.774 0 13.683-10.892 24.774-24.33 24.774-13.436 0-24.327-11.091-24.327-24.774z" fill="#C7BEFF" fill-opacity=".55"/><path fill-rule="evenodd" clip-rule="evenodd" d="M300.424 21.373h.943c.493 0 .896.43.897.955v9.318c0 .526-.403.954-.897.954h-10.898c-.496 0-.898-.428-.898-.954v-9.318c0-.526.402-.955.898-.955h.855v-1.286c0-2.603 2.041-4.72 4.55-4.72s4.55 2.117 4.55 4.72v1.286zm-4.507 7.987c.495 0 .898-.428.898-.956V25.57c0-.527-.403-.954-.898-.954s-.898.427-.898.954v2.835c0 .528.403.956.898.956zm-2.8-7.987h5.512v-1.286c0-1.55-1.236-2.812-2.756-2.812-1.52 0-2.756 1.262-2.756 2.813v1.285zm6.658 39.008h6.406c.898 0 1.627-.716 1.627-1.6 0-.883-.729-1.6-1.627-1.6h-6.406c-3.594 0-6.506-2.864-6.506-6.398 0-3.535 2.912-6.4 6.506-6.4.898 0 1.626-.716 1.626-1.6.003-1.767 1.462-3.197 3.26-3.194.849.002 1.665.33 2.271.915.64.62 1.67.612 2.301-.017.236-.236.392-.539.446-.866.883-5.224 5.905-8.756 11.216-7.888 5.312.869 8.902 5.808 8.019 11.032a9.74 9.74 0 01-.204.926 1.586 1.586 0 00.671 1.76c2.994 1.953 3.811 5.925 1.825 8.87a6.537 6.537 0 01-5.407 2.86h-4.879c-.899 0-1.627.717-1.627 1.6 0 .884.727 1.6 1.627 1.6h4.879c5.39-.005 9.755-4.306 9.75-9.608a9.53 9.53 0 00-3.459-7.32c.144-.75.215-1.508.216-2.27-.009-7.067-5.842-12.79-13.028-12.783-5.471.007-10.353 3.378-12.217 8.437-3.339-1.307-7.122.295-8.451 3.58-.116.283-.21.575-.282.872-5.331.785-9.005 5.67-8.209 10.913.716 4.702 4.821 8.181 9.656 8.18zm21.282 10.228c.582-1.678 2.148-2.882 3.984-2.882 2.331 0 4.227 1.94 4.227 4.322 0 2.384-1.896 4.322-4.227 4.322-1.837 0-3.403-1.203-3.984-2.881h-7.653c-.778 0-1.409-.645-1.409-1.441V55.426c0-.796.631-1.442 1.409-1.442.779 0 1.408.646 1.408 1.442v15.183h6.245zm2.575 1.44c0 .795.632 1.441 1.409 1.441.778 0 1.409-.647 1.409-1.441s-.631-1.44-1.409-1.44c-.777 0-1.409.646-1.409 1.44zm16.482-16.466h9.725c.779 0 1.412.674 1.412 1.504v24.176c0 .831-.632 1.504-1.412 1.504h-16.018c-.78 0-1.413-.672-1.413-1.504V63.787c0-.399.149-.782.414-1.063l6.292-6.7c.266-.282.625-.44 1-.44zm-4.879 24.175h13.19V58.592H340.7l-5.465 5.819v15.347z" fill="#fff"/><path d="M664.343 41.778c0-13.98 10.891-25.313 24.329-25.313 13.436 0 24.328 11.333 24.328 25.313 0 13.98-10.892 25.312-24.328 25.312-13.438 0-24.329-11.332-24.329-25.312z" fill="#C7BEFF" fill-opacity=".55"/><path d="M687.609 36.007c-1.949 1.537-2.482 2.33-9.397 9.299l-4.146-.689 1.902-1.936a3.512 3.512 0 000-4.908 3.363 3.363 0 00-4.821 0l-5.373 5.47-18.792-3.116a3.803 3.803 0 00-3.327 1.094c-1.67 1.702-1.444 4.518.464 5.922l18.725 13.81-3.507 3.57c-1.201 1.224-2.464 2.907-3.764 5.008l-8.733-2.616a3.632 3.632 0 00-3.633.944c-1.621 1.651-1.378 4.392.507 5.72l7.157 5.048a94.175 94.175 0 00-2.038 4.919c-.158.426-.057.907.258 1.229a1.12 1.12 0 001.207.263 89.637 89.637 0 004.831-2.076l4.957 7.29a3.631 3.631 0 005.617.516 3.791 3.791 0 00.926-3.698l-2.568-8.893c2.064-1.324 3.717-2.613 4.917-3.835l3.507-3.571 13.562 19.069a3.791 3.791 0 005.817.472 3.965 3.965 0 001.073-3.388l-3.059-19.135 5.372-5.471a3.52 3.52 0 000-4.91 3.363 3.363 0 00-4.821 0l-1.902 1.937-.674-4.22c6.85-7.051 7.615-7.58 9.124-9.564a.025.025 0 00.007-.009c3.506-4.625 4.325-9.295 2.04-11.624-2.284-2.326-6.87-1.492-11.415 2.079zm-14.854 3.401a1.123 1.123 0 011.609 0 1.173 1.173 0 010 1.636l-3.062 3.115-2.763-.458 4.216-4.293zm-27.303 5.86a1.608 1.608 0 01-.187-2.411c.353-.36.86-.527 1.354-.446l29.614 4.911-11.76 11.973-19.021-14.027zm-.637 24.228c.364-.37.894-.507 1.386-.36l8.166 2.446a80.012 80.012 0 00-2.518 4.918l-6.84-4.823a1.443 1.443 0 01-.194-2.18zM664.1 89.134c-.612.623-1.64.54-2.141-.198l-4.736-6.966a76.97 76.97 0 004.826-2.564l2.402 8.318a1.446 1.446 0 01-.351 1.41zm27.94-30.088a1.12 1.12 0 011.606 0 1.17 1.17 0 010 1.636l-4.215 4.294-.45-2.815 3.059-3.115zm-1.345 28.25a1.61 1.61 0 01-.438 1.38 1.542 1.542 0 01-2.368-.19l-13.774-19.37 11.76-11.975 4.82 30.155zm-23.319-14.591c-1.251 1.273-3.081 2.648-5.44 4.087-3.067 1.87-6.694 3.642-9.966 5.057 1.428-3.424 3.199-7.178 5.074-10.336 1.372-2.312 2.685-4.113 3.904-5.354 27.756-28.196 26.111-26.74 27.796-28.113 1.869-.122 3.515.444 4.659 1.61 1.143 1.165 1.701 2.841 1.58 4.743-1.35 1.72.06.062-27.607 28.306zm29.551-31.346c-.363-1.275-1.006-2.413-1.918-3.34a7.544 7.544 0 00-3.279-1.953c1.644-.85 4.414-1.8 5.689-.502 1.008 1.026.759 3.286-.492 5.795z" fill="#fff"/><path d="M676.224 56.58l-3.097 2.524c-.428.349-.428.914 0 1.263.427.348 1.12.348 1.55 0l3.097-2.525c.427-.348.427-.913 0-1.262-.427-.348-1.121-.348-1.55 0zM683.253 48.095l-3.717 3.785a1.36 1.36 0 000 1.894 1.3 1.3 0 001.859 0l3.718-3.786a1.355 1.355 0 000-1.893 1.298 1.298 0 00-1.86 0z" fill="#fff"/><path d="M348.268 27.284c22.174-9.131 77.849-11.659 110.689 12.473" stroke="#fff" stroke-opacity=".8"/><path d="M462.428 40.162c-.302 1.758-1.947 2.944-3.675 2.647-1.727-.296-2.882-1.962-2.58-3.721.302-1.76 1.947-2.945 3.674-2.648 1.727.296 2.883 1.963 2.581 3.722z" fill="#fff"/><path d="M57.392 160.655c21.602 7.483 55.597 7.818 87.794-17.165" stroke="#fff" stroke-opacity=".8"/><path d="M148.645 142.994c-.348-1.75-2.024-2.892-3.743-2.551-1.719.342-2.83 2.038-2.482 3.788.348 1.751 2.023 2.893 3.742 2.551 1.719-.342 2.831-2.038 2.483-3.788z" fill="#fff"/><path d="M545.693 69.064c21.026 8.976 54.914 11.689 88.78-10.98" stroke="#fff" stroke-opacity=".8"/><path d="M637.957 57.83c-.224-1.77-1.816-3.026-3.554-2.805-1.739.22-2.966 1.834-2.742 3.605.225 1.77 1.817 3.027 3.555 2.806 1.739-.22 2.966-1.835 2.741-3.605z" fill="#fff"/></g><g clip-path="url(#clip0)"><path d="M489.121 196.509c-13.05 0-21.274-7.222-21.274-21.883v-27.354h10.747v27.791c0 7.659 3.947 11.598 10.527 11.598 6.579 0 10.527-4.048 10.527-12.035v-21.993c0-2.954 2.412-5.361 5.373-5.361h5.154v27.682c0 14.333-8.005 21.555-21.054 21.555zM521.031 147.272h4.935c3.07 0 6.031 1.422 7.895 3.939l19.848 25.931v-29.87h10.527v48.471c-5.702 0-11.185-2.626-14.584-7.222l-17.984-23.633v30.855h-10.527v-48.471h-.11z" fill="#fff" stroke="#fff" stroke-width=".287" stroke-miterlimit="10"/><path d="M418.282 213.359v9.848h-.987v-8.316l-3.4 5.69h-.219l-3.399-5.69v8.316h-.987v-9.848h1.206l3.29 5.471 3.289-5.471h1.207zM426.067 217.079c.658.765.987 1.641.987 2.625v.438h-6.141c.22 1.423 1.316 2.298 2.742 2.298 1.096 0 1.864-.438 2.303-1.204l.767.438a3.646 3.646 0 01-3.07 1.641c-1.097 0-1.974-.328-2.742-.985-.658-.656-.986-1.531-.986-2.626 0-1.094.328-1.969.986-2.625a3.636 3.636 0 012.632-1.095c1.097 0 1.974.438 2.522 1.095zm-5.154 2.188h5.264c-.11-.766-.329-1.313-.877-1.751-.439-.437-.987-.656-1.645-.656-1.535 0-2.632.984-2.742 2.407zM434.621 213.358h.877v9.848h-.877v-1.423c-.658.985-1.535 1.532-2.851 1.532-.987 0-1.864-.328-2.522-1.094-.658-.766-1.097-1.532-1.097-2.626 0-1.094.329-1.86 1.097-2.626.767-.766 1.535-1.094 2.522-1.094 1.206 0 2.193.547 2.851 1.532v-4.049zm-2.851 9.082c.767 0 1.425-.219 1.974-.766.548-.547.767-1.204.767-1.97 0-.765-.219-1.422-.767-1.969-.549-.547-1.207-.766-1.974-.766-.768 0-1.426.219-1.974.766s-.768 1.204-.768 1.969c0 .766.22 1.423.768 1.97.548.547 1.206.766 1.974.766zM437.472 214.453c-.219-.219-.219-.657 0-.985.219-.328.658-.219.987 0 .219.219.219.656 0 .985-.329.328-.768.328-.987 0zm0 8.753v-7.003h.877v7.003h-.877zM440.981 222.33c-.658-.765-1.097-1.531-1.097-2.626 0-1.094.329-1.86 1.097-2.625.658-.766 1.535-1.095 2.632-1.095 1.425 0 2.522.766 3.07 1.86l-.768.438c-.329-.875-1.315-1.422-2.302-1.422-.768 0-1.426.219-1.974.766s-.768 1.203-.768 1.969.22 1.422.768 1.97c.548.547 1.206.765 1.974.765 1.096 0 1.864-.547 2.412-1.422l.768.438c-.549 1.094-1.755 1.86-3.18 1.86-1.097.109-1.974-.219-2.632-.876zM454.03 216.203h.878v7.003h-.878v-1.423c-.658.985-1.535 1.532-2.851 1.532-.987 0-1.864-.328-2.522-1.094-.658-.766-1.097-1.532-1.097-2.626 0-1.094.329-1.86 1.097-2.626.768-.766 1.535-1.094 2.522-1.094 1.206 0 2.193.547 2.851 1.532v-1.204zm-2.741 6.237c.767 0 1.425-.219 1.974-.766.548-.547.767-1.204.767-1.969 0-.766-.219-1.423-.767-1.97-.549-.547-1.207-.766-1.974-.766-.768 0-1.426.219-1.974.766s-.768 1.204-.768 1.97c0 .765.22 1.422.768 1.969.548.547 1.206.766 1.974.766zM456.991 223.206V213.03h.877v10.176h-.877zM463.351 213.358h.987v6.456c0 1.532.987 2.516 2.632 2.516s2.632-.984 2.632-2.516v-6.456h.987v6.456c0 1.094-.329 1.969-.987 2.516-.658.657-1.536.985-2.632.985-1.097 0-1.974-.328-2.632-.985-.658-.656-.987-1.531-.987-2.516v-6.456zM476.291 217.079h-1.974v4.267c0 1.203.658 1.094 1.974 1.094v.766c-1.974.328-2.961-.219-2.961-1.86v-4.267h-1.426v-.876h1.426v-1.75l.877-.328v1.969h1.974v.985h.11zM477.826 214.453c-.219-.219-.219-.657 0-.985.219-.219.658-.219.987 0 .219.219.219.656 0 .985-.329.328-.658.328-.987 0zm0 8.753v-7.003h.877v7.003h-.877zM480.787 223.206V213.03h.877v10.176h-.877zM483.638 214.453c-.219-.219-.219-.657 0-.985.219-.219.658-.219.987 0 .219.219.219.656 0 .985-.329.328-.768.328-.987 0zm0 8.753v-7.003h.877v7.003h-.877zM490.217 217.079h-1.973v4.267c0 1.203.657 1.094 1.973 1.094v.766c-1.973.328-2.96-.219-2.96-1.86v-4.267h-1.426v-.876h1.426v-1.75l.877-.328v1.969h1.974v.985h.109zM497.016 216.203h.987l-2.961 7.659c-.548 1.423-1.645 2.298-2.851 2.188v-.875c.877.11 1.535-.438 1.974-1.422l.219-.438-3.18-7.002h.987l2.632 5.908 2.193-6.018zM509.078 213.358h.987v9.848h-.877l-5.483-7.988v7.988h-.987v-9.848h.878l5.482 7.988v-7.988zM517.851 217.079c.658.765.987 1.641.987 2.625v.438h-6.141c.219 1.423 1.316 2.298 2.742 2.298 1.096 0 1.864-.438 2.302-1.204l.768.438a3.647 3.647 0 01-3.07 1.641c-1.097 0-1.974-.328-2.742-.985-.658-.656-.987-1.531-.987-2.626 0-1.094.329-1.969.987-2.625a3.634 3.634 0 012.632-1.095c1.096 0 1.864.438 2.522 1.095zm-5.154 2.188h5.264c-.11-.766-.329-1.313-.878-1.751-.438-.437-.986-.656-1.644-.656-1.536 0-2.632.984-2.742 2.407zM523.773 217.079h-1.974v4.267c0 1.203.658 1.094 1.974 1.094v.766c-1.974.328-2.961-.219-2.961-1.86v-4.267h-1.426v-.876h1.426v-1.75l.877-.328v1.969h1.974v.985h.11zM533.752 216.203h.986l-2.193 7.003h-.987l-1.754-5.69-1.755 5.69h-.987l-2.193-7.003h.987l1.755 5.799 1.864-5.799h.877l1.864 5.799 1.536-5.799zM539.125 223.315c-.987 0-1.864-.328-2.632-1.094s-1.097-1.532-1.097-2.626c0-1.094.329-1.86 1.097-2.626.768-.766 1.645-1.094 2.632-1.094.987 0 1.864.328 2.632 1.094.767.657 1.096 1.532 1.096 2.626 0 1.094-.329 1.86-1.096 2.626-.768.766-1.645 1.094-2.632 1.094zm0-.875c.767 0 1.425-.219 1.974-.766.548-.547.767-1.204.767-1.969 0-.766-.219-1.423-.767-1.97-.549-.547-1.207-.766-1.974-.766-.768 0-1.426.219-1.974.766s-.768 1.204-.768 1.97c0 .765.22 1.422.768 1.969.548.547 1.206.766 1.974.766zM545.266 217.297c.438-.875 1.206-1.313 2.193-1.313v.876c-1.316 0-2.193.766-2.193 2.297v4.049h-.878v-7.003h.878v1.094zM554.477 223.206h-1.206l-3.509-3.392v3.392h-.878v-9.848h.878v5.909l3.289-3.064h1.316l-3.619 3.392 3.729 3.611zM565.881 223.206l-.877-2.407h-4.606l-.877 2.407h-.987l3.729-9.848h.986l3.729 9.848h-1.097zm-5.263-3.392h3.947l-1.973-5.252-1.974 5.252zM568.513 222.33c-.658-.765-1.096-1.531-1.096-2.626 0-1.094.328-1.86 1.096-2.625.658-.766 1.535-1.095 2.632-1.095 1.425 0 2.522.766 3.07 1.86l-.767.438c-.329-.875-1.316-1.422-2.303-1.422-.768 0-1.426.219-1.974.766s-.768 1.203-.768 1.969.22 1.422.768 1.97c.548.547 1.206.765 1.974.765 1.096 0 1.864-.547 2.412-1.422l.768.438c-.548 1.094-1.755 1.86-3.18 1.86-.987.109-1.864-.219-2.632-.876zM576.189 222.33c-.658-.765-1.096-1.531-1.096-2.626 0-1.094.329-1.86 1.096-2.625.658-.766 1.535-1.095 2.632-1.095 1.425 0 2.522.766 3.07 1.86l-.767.438c-.329-.875-1.316-1.422-2.303-1.422-.768 0-1.426.219-1.974.766s-.768 1.203-.768 1.969.22 1.422.768 1.97c.548.547 1.206.765 1.974.765 1.096 0 1.864-.547 2.412-1.422l.768.438c-.548 1.094-1.755 1.86-3.18 1.86-.987.109-1.864-.219-2.632-.876zM584.194 217.297c.439-.875 1.206-1.313 2.193-1.313v.876c-1.316 0-2.193.766-2.193 2.297v4.049h-.877v-7.003h.877v1.094zM593.076 217.079c.658.765.987 1.641.987 2.625v.438h-6.141c.22 1.423 1.316 2.298 2.742 2.298 1.097 0 1.864-.438 2.303-1.204l.767.438a3.646 3.646 0 01-3.07 1.641c-1.097 0-1.974-.328-2.742-.985-.657-.656-.986-1.531-.986-2.626 0-1.094.329-1.969.986-2.625a3.636 3.636 0 012.632-1.095c.987 0 1.864.438 2.522 1.095zm-5.263 2.188h5.263c-.109-.766-.329-1.313-.877-1.751-.438-.437-.987-.656-1.645-.656-1.425 0-2.522.984-2.741 2.407zM601.52 213.358h.877v9.848h-.877v-1.423c-.658.985-1.535 1.532-2.851 1.532-.987 0-1.864-.328-2.522-1.094-.658-.766-1.097-1.532-1.097-2.626 0-1.094.329-1.86 1.097-2.626.767-.766 1.535-1.094 2.522-1.094 1.206 0 2.193.547 2.851 1.532v-4.049zm-2.741 9.082c.767 0 1.425-.219 1.974-.766.548-.547.767-1.204.767-1.97 0-.765-.219-1.422-.767-1.969-.549-.547-1.207-.766-1.974-.766-.768 0-1.426.219-1.974.766s-.768 1.204-.768 1.969c0 .766.22 1.423.768 1.97.548.547 1.206.766 1.974.766zM604.371 214.453c-.219-.219-.219-.657 0-.985.22-.328.658-.219.987 0 .22.219.22.656 0 .985-.329.328-.658.328-.987 0zm0 8.753v-7.003h.878v7.003h-.878zM611.06 217.079h-1.973v4.267c0 1.203.658 1.094 1.973 1.094v.766c-1.973.328-2.96-.219-2.96-1.86v-4.267h-1.426v-.876h1.426v-1.75l.877-.328v1.969h1.974v.985h.109zM615.447 223.315c-.987 0-1.865-.328-2.632-1.094-.768-.766-1.097-1.532-1.097-2.626 0-1.094.329-1.86 1.097-2.626.767-.766 1.645-1.094 2.632-1.094.987 0 1.864.328 2.631 1.094.768.657 1.097 1.532 1.097 2.626 0 1.094-.329 1.86-1.097 2.626-.767.766-1.644 1.094-2.631 1.094zm0-.875c.767 0 1.425-.219 1.973-.766.549-.547.768-1.204.768-1.969 0-.766-.219-1.423-.768-1.97-.548-.547-1.206-.766-1.973-.766-.768 0-1.426.219-1.974.766-.549.547-.768 1.204-.768 1.97 0 .765.219 1.422.768 1.969.548.547 1.206.766 1.974.766zM621.588 217.297c.438-.875 1.206-1.313 2.193-1.313v.876c-1.316 0-2.193.766-2.193 2.297v4.049h-.878v-7.003h.878v1.094z" fill="#fff"/><path d="M408.193 169.593V190.6a5.259 5.259 0 005.264 5.252c2.851 0 5.263-2.297 5.263-5.252v-1.969c0-1.86-.548-3.72-1.645-5.361l-8.882-13.677z" fill="#CB1A20"/><path d="M442.406 151.868l-9.869 15.865-9.869-15.865a9.952 9.952 0 00-8.444-4.705h-7.347c.878.547 1.536 1.313 2.084 2.188l15.681 24.072 7.457 11.379h.329l13.817-20.68v31.731h10.636v-48.58h-6.031c-3.509 0-6.579 1.75-8.444 4.595z" fill="#fff" stroke="#fff" stroke-width=".287" stroke-miterlimit="10"/><path d="M592.638 146.944h9.869l20.835 48.908h-11.185l-4.496-10.832h-20.616l-3.18 7.878c-.767 1.751-2.522 2.954-4.496 2.954h-7.676l20.945-48.908zm11.185 28.557l-6.47-15.756-6.47 15.756h12.94z" fill="#fff"/></g><defs><clipPath id="clip0"><path fill="#fff" transform="translate(406 146.616)" d="M0 0h218v79.654H0z"/></clipPath></defs></svg>