<svg width="123" height="36" fill="none" xmlns="http://www.w3.org/2000/svg"><path d="M21.274 33.63c5.826-1.026 10.64-1.874 10.694-1.886l.1-.021-5.5-6.52c-3.026-3.585-5.501-6.533-5.501-6.55 0-.032 5.68-15.617 5.712-15.673.01-.018 3.876 6.631 9.37 16.12l9.425 16.274.071.125-17.483-.002-17.483-.002 10.595-1.865zm67.045-1.577c-2.661-.17-4.21-1.68-4.62-4.506-.108-.752-.109-.771-.12-5.652l-.01-4.723h2.355l.01 4.569c.008 4.118.013 4.6.052 4.89.16 1.176.48 1.966 1.023 2.534.435.454.945.72 1.65.861.332.067 1.278.067 1.581 0a3.5 3.5 0 001.793-.97c.576-.573 1.002-1.387 1.208-2.307l.07-.31.007-4.608.008-4.607H95.731V31.71h-2.38v-1.15c0-.78-.009-1.146-.027-1.14a.942.942 0 00-.136.207 4.829 4.829 0 01-1.842 1.838c-.897.492-1.797.667-3.027.588zm27.012-.011a6.257 6.257 0 01-2.737-.89c-1.704-1.051-2.712-2.782-3.008-5.165-.102-.824-.114-1.931-.029-2.632.191-1.565.808-3.101 1.687-4.198.225-.281.737-.79 1.019-1.015a6.354 6.354 0 012.6-1.237c.551-.12 1.522-.176 2.108-.122 1.472.136 2.821.826 3.738 1.913.932 1.104 1.444 2.647 1.509 4.546.01.298.013.82.005 1.16l-.013.619-5.155.006-5.154.007v.23c0 .697.17 1.492.464 2.168.254.583.691 1.22 1.049 1.527a4.615 4.615 0 002.613 1.101c.364.034 1.293-.002 1.708-.065 1.184-.181 2.31-.644 3.219-1.323.107-.08.209-.155.227-.166.027-.017.033.192.032 1.07v1.09l-.244.15a8.556 8.556 0 01-3.454 1.193c-.373.046-1.739.066-2.184.032zm4.486-9.197c0-1.168-.494-2.466-1.194-3.135a3.282 3.282 0 00-1.82-.88c-.339-.052-1.055-.032-1.412.04a3.693 3.693 0 00-1.928 1.021 5.227 5.227 0 00-1.276 2.035 6.518 6.518 0 00-.247 1l-.017.123h7.894v-.203zm-69.924 8.833c.006-.018 1.756-4.6 3.89-10.182l3.878-10.15H60.154l.104.265c.316.807 7.765 20.077 7.765 20.087 0 .006-.597.012-1.326.012h-1.326l-1.073-2.849-1.074-2.848h-8.646l-.038.097c-.02.053-.48 1.335-1.02 2.848l-.981 2.75-1.329.001c-1.051 0-1.326-.006-1.317-.031zm12.542-7.838c0-.005-.723-1.956-1.606-4.337-1.652-4.454-1.744-4.722-1.875-5.437-.061-.335-.092-.345-.128-.039a7.095 7.095 0 01-.226.98c-.043.135-.787 2.169-1.653 4.52a702.41 702.41 0 00-1.575 4.299c0 .012 1.59.022 3.531.022 1.943 0 3.532-.004 3.532-.008zm6.39 7.499v-.371l4.307-5.9 4.307-5.898-3.9-.013-3.9-.013-.006-.986-.007-.986h11.28v.666L76.6 23.769c-2.369 3.263-4.307 5.937-4.307 5.944 0 .007 1.915.012 4.256.012h4.255V31.71H68.825v-.371zm31.606.354c-.009-.01-.017-3.28-.017-7.27v-7.251h2.354v1.495c0 .822.01 1.495.022 1.495.013 0 .07-.134.128-.3a5.15 5.15 0 011.315-2.017 3.41 3.41 0 011.86-.921c.201-.033.372-.039.776-.029.507.014.772.05 1.08.15l.097.032v2.435l-.278-.138a2.982 2.982 0 00-1.559-.312 2.947 2.947 0 00-2.415 1.389 6.982 6.982 0 00-.984 2.82c-.02.172-.031 1.577-.036 4.347l-.006 4.092h-1.16c-.638 0-1.167-.008-1.177-.017zM.292 31.642c0-.01 2.592-4.493 5.76-9.963l5.76-9.946 6.713-5.613C22.218 3.033 25.248.504 25.26.5c.012-.005-.036.116-.108.27l-7.289 15.577-7.159 15.298-5.206.007c-2.863.003-5.206-.001-5.206-.01z" fill="#0089D6"/></svg>