<svg width="159" height="27" fill="none" xmlns="http://www.w3.org/2000/svg"><path d="M116.118.71h4.817v20.262-.032.225c0 1.32.646 1.997 2.004 2.094h6.757v2.287c0 .258-.129.451-.42.451h-10.96c-3.394 0-3.879-1.868-3.879-3.543V2.127c0-.966.355-1.417 1.519-1.385h.162M103.445.71h4.914v23.934c0 1.063-.453 1.321-1.358 1.321h-5.14V2.031c.032-.806.323-1.353 1.454-1.321h-.064.194zM.96 4.382v-.129c0-1.03-.065-2.126.582-2.802C2.124.839 3.062.71 4.258.71h13.837v2.416c0 .16-.065.322-.323.322H9.397c-1.196.064-1.616.483-1.681 1.675v6.41h9.828v2.545c0 .226-.13.322-.356.322H7.717v9.89-.032.354c-.032.999-.517 1.385-1.584 1.353H.96V4.382zM23.17.71h4.882v19.263c0 1.643.227 2.803 1.39 3.48 1.552.901 4.43.901 6.014.031 1.099-.612 1.487-1.514 1.487-3.382V1.998c.032-.837.323-1.288 1.455-1.256h4.914v17.105c0 1.127 0 3.801-.873 5.283-.905 1.514-2.295 2.545-4.267 3.093-3.201.837-8.115.837-11.154-.065-3.621-1.095-5.335-3.253-5.335-6.765V2.353v.096-.386c0-.484.13-.902.291-1.063.194-.194.518-.29 1.1-.29h.097zM150.969.71c-1.293 0-1.972.58-2.295 1.74l-4.138 17.426h-.13s-3.782-17.04-4.267-19.134h-5.852c-1.131 0-1.487.58-1.487 1.482v23.773h2.457c.388 0 .55-.193.55-.612V5.445h.388l.258.934c.032.193 4.462 17.428 5.011 19.586h3.459c1.294 0 1.779-.548 2.102-1.804l4.752-18.716h.388v20.552h4.623c1.132 0 1.649-.45 1.649-1.546V.74C157.015.71 150.969.71 150.969.71zM84.176.71c-1.196 0-2.133.128-2.715.74-.647.677-.582 1.772-.582 2.803v6.475c0 .129-.065.193-.13.258l-4.429 3.479h4.559v11.532h5.172c1.067.032 1.584-.354 1.584-1.353v-.387.033-9.857h9.474c.225 0 .355-.097.355-.323v-.064-2.48h-9.829V5.123c.065-1.192.486-1.61 1.682-1.675h8.373c.226 0 .291-.161.323-.322V.71H84.176zM74.219 14.432H67.72v11.533h5.14c.905 0 1.358-.258 1.358-1.32v-.162-10.05z" fill="#000"/><path d="M73.83 9.504c.227-.193.356-.322.389-.709V.71H69.11h.064c-1.131-.032-1.422.515-1.454 1.32v12.242l6.11-4.768z" fill="#FB0020"/><path d="M51.588 23.968c2.813-.387 3.75-2.062 3.75-4.543V2.096c0-1.031.582-1.385 1.294-1.385h5.205v16.396c0 4.027-.841 6.088-3.266 7.796-1.26.902-3.427 1.9-8.18 1.9-2.715 0-3.91-.16-4.073-.193-.226-.064-.323-.193-.323-.387v-2.126c1.132.065 3.686.162 5.593-.128z" fill="#000"/></svg>